<svg xmlns="http://www.w3.org/2000/svg" width="66" height="66" viewBox="0 0 66 66">
    <g transform="translate(-151 -1274)">
        <circle cx="33" cy="33" r="33" fill="#e6e6e6" transform="translate(151 1274)"/>
        <g>
            <path d="M146.537 55.314l-.819.3a3.859 3.859 0 0 0-2.462 2.887l-.278 1.457a2.457 2.457 0 0 0 2.413 2.92h7.1a2.458 2.458 0 0 0 2.42-2.89l-.259-1.449a3.851 3.851 0 0 0-2.47-2.933l-.869-.315v-1.28a.705.705 0 0 0-.009-.105 3.482 3.482 0 0 0 1-2.425V49.57a3.377 3.377 0 0 0-6.754 0v1.967a3.368 3.368 0 0 0 .995 2.383.7.7 0 0 0-.006.088zm6.718 3.472l.259 1.449a1.038 1.038 0 0 1-1.023 1.22h-7.1a1.037 1.037 0 0 1-1.019-1.233l.278-1.457a2.433 2.433 0 0 1 1.552-1.82l.537-.194c.013.014.027.028.042.04a3.273 3.273 0 0 0 4.291 0 .7.7 0 0 0 .062-.062l.566.205a2.427 2.427 0 0 1 1.556 1.851zm-6.288-9.216a1.956 1.956 0 0 1 3.851-.487c-.091.045-.185.087-.281.125a2.359 2.359 0 0 1-1.779.162.71.71 0 1 0-.815 1.162 2.35 2.35 0 0 0 1.354.365 4.722 4.722 0 0 0 1.584-.3v.883a2.055 2.055 0 0 1-.616 1.457 1.983 1.983 0 0 1-.611.41l-.046.019a1.831 1.831 0 0 1-.723.13 1.967 1.967 0 0 1-1.919-1.957zm1.892 5.343h.065a3.292 3.292 0 0 0 .971-.146V55.9a1.853 1.853 0 0 1-1.938 0v-1.131a3.331 3.331 0 0 0 .902.143z" transform="translate(142.584 1291) translate(-116.358 -41.822)"/>
            <path d="M81.474 337.323h22.1a.71.71 0 0 0 0-1.419h-22.1a.71.71 0 0 0 0 1.419z" transform="translate(142.584 1291) translate(-60.07 -304.122)"/>
            <path d="M81.474 377.764h22.1a.71.71 0 1 0 0-1.419h-22.1a.71.71 0 1 0 0 1.419z" transform="translate(142.584 1291) translate(-60.07 -340.737)"/>
            <path d="M81.474 418.2h22.1a.71.71 0 1 0 0-1.419h-22.1a.71.71 0 1 0 0 1.419z" transform="translate(142.584 1291) translate(-60.07 -377.35)"/>
            <path d="M81.474 458.644h22.1a.71.71 0 1 0 0-1.419h-22.1a.71.71 0 1 0 0 1.419z" transform="translate(142.584 1291) translate(-60.07 -413.965)"/>
            <path d="M80.764 255.734a.71.71 0 0 0 .71.71h22.1a.71.71 0 1 0 0-1.419h-22.1a.71.71 0 0 0-.71.709z" transform="translate(142.584 1291) translate(-60.07 -230.895)"/>
            <path d="M81.474 296.883h22.1a.71.71 0 1 0 0-1.419h-22.1a.71.71 0 1 0 0 1.419z" transform="translate(142.584 1291) translate(-60.07 -267.509)"/>
            <path d="M53.753 337.3a.712.712 0 1 0-.712-.712.712.712 0 0 0 .712.712z" transform="translate(142.584 1291) translate(-34.97 -304.097)"/>
            <path d="M53.753 256.421a.712.712 0 1 0-.712-.712.712.712 0 0 0 .712.712z" transform="translate(142.584 1291) translate(-34.97 -230.87)"/>
            <path d="M53.753 296.861a.712.712 0 1 0-.712-.712.712.712 0 0 0 .712.712z" transform="translate(142.584 1291) translate(-34.97 -267.483)"/>
            <path d="M53.753 377.741a.712.712 0 1 0-.712-.712.712.712 0 0 0 .712.712z" transform="translate(142.584 1291) translate(-34.97 -340.711)"/>
            <path d="M53.753 418.181a.712.712 0 1 0-.712-.712.712.712 0 0 0 .712.712z" transform="translate(142.584 1291) translate(-34.97 -377.326)"/>
            <path d="M53.753 458.621a.712.712 0 1 0-.712-.712.712.712 0 0 0 .712.712z" transform="translate(142.584 1291) translate(-34.97 -413.939)"/>
            <path d="M59 11.176a4.906 4.906 0 0 1-.688-1.02 5.172 5.172 0 0 1-.256-1.267 3.958 3.958 0 0 0-.88-2.441 3.959 3.959 0 0 0-2.441-.88 5.174 5.174 0 0 1-1.267-.256 4.9 4.9 0 0 1-1.02-.688 5.345 5.345 0 0 0-1.7-1.023v-.214A3.391 3.391 0 0 0 47.365 0H17.8a3.391 3.391 0 0 0-3.387 3.387v2.739a.71.71 0 0 0 1.419 0V3.387A1.97 1.97 0 0 1 17.8 1.419h29.565a1.97 1.97 0 0 1 1.968 1.968V3.6a5.347 5.347 0 0 0-1.7 1.023 4.908 4.908 0 0 1-1.02.688 5.182 5.182 0 0 1-1.267.256 3.958 3.958 0 0 0-2.441.88 3.958 3.958 0 0 0-.88 2.441 5.173 5.173 0 0 1-.256 1.267 4.9 4.9 0 0 1-.688 1.02 3.982 3.982 0 0 0-1.131 2.4 3.982 3.982 0 0 0 1.131 2.4 4.906 4.906 0 0 1 .688 1.02 5.172 5.172 0 0 1 .256 1.267 3.957 3.957 0 0 0 .88 2.441 3.958 3.958 0 0 0 2.441.88c.249.031.49.061.713.1v10.74a1.09 1.09 0 0 0 1.762.858l1.512-1.181v12.956a1.97 1.97 0 0 1-1.968 1.968H17.8a1.97 1.97 0 0 1-1.968-1.968V9.251a.71.71 0 0 0-1.419 0v35.805a3.391 3.391 0 0 0 3.387 3.387h29.565a3.391 3.391 0 0 0 3.387-3.387V32.1l1.508 1.181a1.09 1.09 0 0 0 1.763-.858V24.5a.71.71 0 1 0-1.419 0v7.243l-1.887-1.473a1.091 1.091 0 0 0-1.347 0l-1.888 1.479v-9.334l.156.122a3.982 3.982 0 0 0 2.405 1.131 3.983 3.983 0 0 0 2.405-1.131 4.909 4.909 0 0 1 1.02-.688 5.182 5.182 0 0 1 1.267-.256 3.959 3.959 0 0 0 2.441-.88 3.958 3.958 0 0 0 .88-2.441 5.177 5.177 0 0 1 .256-1.267A4.9 4.9 0 0 1 59 15.986a3.982 3.982 0 0 0 1.131-2.4A3.982 3.982 0 0 0 59 11.176zm-1.114 3.93A5.945 5.945 0 0 0 57 16.462a6.241 6.241 0 0 0-.353 1.636 2.936 2.936 0 0 1-.475 1.611 2.937 2.937 0 0 1-1.612.475 6.243 6.243 0 0 0-1.637.353 5.945 5.945 0 0 0-1.356.885 2.928 2.928 0 0 1-1.525.825 2.927 2.927 0 0 1-1.525-.825 5.948 5.948 0 0 0-1.356-.885c-.034-.014-.153-.059-.179-.067a7.059 7.059 0 0 0-1.458-.286 2.937 2.937 0 0 1-1.612-.475 2.936 2.936 0 0 1-.475-1.611 6.242 6.242 0 0 0-.353-1.637 5.948 5.948 0 0 0-.885-1.356 2.927 2.927 0 0 1-.825-1.525 2.927 2.927 0 0 1 .825-1.525 5.945 5.945 0 0 0 .885-1.356 6.237 6.237 0 0 0 .353-1.636 2.936 2.936 0 0 1 .475-1.611 2.937 2.937 0 0 1 1.612-.475 6.243 6.243 0 0 0 1.637-.353 5.945 5.945 0 0 0 1.356-.885 2.936 2.936 0 0 1 1.522-.825h.005a2.936 2.936 0 0 1 1.523.825 5.948 5.948 0 0 0 1.356.885 6.239 6.239 0 0 0 1.637.353 2.936 2.936 0 0 1 1.612.475 2.935 2.935 0 0 1 .475 1.611A6.242 6.242 0 0 0 57 10.7a5.948 5.948 0 0 0 .885 1.356 2.927 2.927 0 0 1 .825 1.525 2.926 2.926 0 0 1-.825 1.525z" transform="translate(142.584 1291)"/>
            <path d="M345.674 89.407l-2.415-.683-1.4-2.085a.9.9 0 0 0-1.49 0l-1.4 2.085-2.415.683a.9.9 0 0 0-.46 1.417l1.552 1.972-.1 2.507a.9.9 0 0 0 1.2.876l2.355-.866 2.355.866a.9.9 0 0 0 1.205-.876l-.1-2.507 1.552-1.972a.9.9 0 0 0-.46-1.417zm-2.326 2.663a.9.9 0 0 0-.191.588l.074 1.919-1.8-.663a.9.9 0 0 0-.619 0l-1.8.663.074-1.92a.9.9 0 0 0-.191-.588L337.7 90.56l1.849-.523a.9.9 0 0 0 .5-.364l1.069-1.6 1.069 1.6a.9.9 0 0 0 .5.364l1.848.523z" transform="translate(142.584 1291) translate(-291.076 -78.081)"/>
        </g>
    </g>
</svg>
