<svg xmlns="http://www.w3.org/2000/svg" width="70" height="66" viewBox="0 0 70 66">
    <g transform="translate(-396 -1274)">
        <circle cx="33" cy="33" r="33" fill="#e6e6e6" transform="translate(400 1274)"/>
        <g>
            <g>
                <g>
                    <g>
                        <path d="M52.154 36.827h-9.411c.024-.522.038-1.043.038-1.564v-5.074a3.842 3.842 0 0 0-7.684 0v4.988c0 .549.015 1.1.042 1.65H8.752a.791.791 0 1 0 0 1.582h17.457v27.945a.791.791 0 1 0 1.582 0V38.41h7.461q.109 1.15.294 2.288l.759 4.628h-4.39a1.32 1.32 0 0 0-1.315 1.318v3.164a4.383 4.383 0 0 0 4.378 4.378h8.032a4.383 4.383 0 0 0 4.378-4.378v-3.164a1.32 1.32 0 0 0-1.319-1.319h-4.457l.748-4.715q.173-1.093.274-2.2h9.52a.264.264 0 0 1 .264.264v34.27a.264.264 0 0 1-.264.264H27.791v-2.93a.791.791 0 0 0-1.582 0v2.93H1.846a.264.264 0 0 1-.264-.264V38.673a.264.264 0 0 1 .264-.264h3.013a.791.791 0 0 0 0-1.582H1.846A1.848 1.848 0 0 0 0 38.673v34.27a1.848 1.848 0 0 0 1.846 1.847h50.308A1.848 1.848 0 0 0 54 72.944V38.673a1.849 1.849 0 0 0-1.846-1.846zM43.01 52.6h-8.035a2.8 2.8 0 0 1-2.795-2.717H45.8a2.8 2.8 0 0 1-2.79 2.717zm2.8-4.3H32.179v-1.4h13.627zm-7.9-2.979l-.8-4.884a32.641 32.641 0 0 1-.429-5.265v-4.983a2.259 2.259 0 1 1 4.519 0v5.074a32.657 32.657 0 0 1-.4 5.1l-.787 4.963h-2.1z" transform="translate(39.661 -106) translate(356.339 1370.653)"/>
                        <path d="M47.864 169.4a2.157 2.157 0 0 0-3.051 0l-5.38 5.38a2.158 2.158 0 0 0 0 3.051l2.356 2.356a2.157 2.157 0 0 0 3.051 0l5.38-5.38a2.157 2.157 0 0 0 0-3.051zm1.237 4.288l-5.38 5.38a.575.575 0 0 1-.813 0l-2.356-2.356a.575.575 0 0 1 0-.813l5.38-5.38a.575.575 0 0 1 .813 0l2.356 2.356a.575.575 0 0 1 0 .813z" transform="translate(39.661 -106) translate(356.339 1370.653) translate(-34.709 -127.399)"/>
                        <path d="M322.944 312.406a2.16 2.16 0 0 0 2.158-2.157v-3.914a2.16 2.16 0 0 0-2.158-2.157h-7.609a2.16 2.16 0 0 0-2.158 2.157v3.914a2.16 2.16 0 0 0 2.158 2.157zm-8.184-2.157v-3.914a.576.576 0 0 1 .575-.575h7.609a.576.576 0 0 1 .575.575v3.914a.576.576 0 0 1-.575.575h-7.609a.576.576 0 0 1-.575-.575z" transform="translate(39.661 -106) translate(356.339 1370.653) translate(-280.147 -248.527)"/>
                        <path d="M56.5 346.408l-5.244 1.4a1.862 1.862 0 0 0-.835 3.114l3.839 3.839a1.841 1.841 0 0 0 1.308.547 1.9 1.9 0 0 0 .49-.065 1.843 1.843 0 0 0 1.316-1.316l1.405-5.244a1.862 1.862 0 0 0-2.28-2.28zm.751 1.87l-1.405 5.243a.279.279 0 0 1-.467.125l-3.839-3.839a.279.279 0 0 1 .125-.467l5.244-1.4a.279.279 0 0 1 .342.342z" transform="translate(39.661 -106) translate(356.339 1370.653) translate(-44.611 -286.246)"/>
                        <path d="M131.141 268.987a6.559 6.559 0 0 1-.769-.045.791.791 0 1 0-.186 1.571 8.116 8.116 0 0 0 .955.056c2.9 0 5.175-1.495 5.175-3.4s-2.273-3.4-5.175-3.4-5.175 1.495-5.175 3.4a2.45 2.45 0 0 0 .288 1.144.791.791 0 1 0 1.4-.733.871.871 0 0 1-.107-.411c0-.861 1.475-1.82 3.592-1.82s3.592.959 3.592 1.82-1.473 1.818-3.59 1.818z" transform="translate(39.661 -106) translate(356.339 1370.653) translate(-112.68 -212.378)"/>
                        <path d="M348.2 337.454h3.12a.791.791 0 0 0 0-1.582h-3.12a.791.791 0 0 0 0 1.582z" transform="translate(39.661 -106) translate(356.339 1370.653) translate(-310.77 -276.879)"/>
                    </g>
                </g>
            </g>
        </g>
    </g>
</svg>
