<svg xmlns="http://www.w3.org/2000/svg" width="66" height="66" viewBox="0 0 66 66">
    <g transform="translate(-616 -1274)">
        <circle cx="33" cy="33" r="33" fill="#e6e6e6" transform="translate(616 1274)"/>
        <g>
            <g>
                <g>
                    <path d="M78.618 6.42h-4.086V2.335A2.341 2.341 0 0 0 72.2 0H42.432A2.341 2.341 0 0 0 40.1 2.335v37.353a2.341 2.341 0 0 0 2.335 2.335h4.086v4.086a2.341 2.341 0 0 0 2.335 2.335H68.7a6.812 6.812 0 0 0 4.034-1.6l6.517-6.144a6.2 6.2 0 0 0 1.7-3.934V8.755a2.342 2.342 0 0 0-2.333-2.335zm-32.1 2.335v31.517h-4.086a.591.591 0 0 1-.584-.584V2.335a.591.591 0 0 1 .584-.584H72.2a.592.592 0 0 1 .584.584V6.42H48.852a2.341 2.341 0 0 0-2.335 2.335zm31.533 30.674l-6.522 6.138a3.1 3.1 0 0 1-.5.366v-5.37a1.464 1.464 0 0 1 1.46-1.463h5.839a2.451 2.451 0 0 1-.277.329zM79.2 36.77a2.722 2.722 0 0 1-.079.584h-6.632a3.217 3.217 0 0 0-3.21 3.21v6.058a3.052 3.052 0 0 1-.584.071H48.852a.591.591 0 0 1-.584-.584V8.755a.591.591 0 0 1 .584-.584h29.766a.591.591 0 0 1 .584.584z" transform="translate(575.903 1291) translate(40.097) translate(-40.097)"/>
                </g>
            </g>
            <g>
                <g>
                    <path d="M209.036 154.216H192.11a.875.875 0 1 0 0 1.751h16.926a.875.875 0 1 0 0-1.751z" transform="translate(575.903 1291) translate(54.397 14.591) translate(-191.235 -154.216)"/>
                </g>
            </g>
            <g>
                <g>
                    <path d="M209.036 277.59H192.11a.875.875 0 1 0 0 1.751h16.926a.875.875 0 1 0 0-1.751z" transform="translate(575.903 1291) translate(54.397 26.264) translate(-191.235 -277.59)"/>
                </g>
            </g>
            <g>
                <g>
                    <path d="M201.45 339.277h-9.338a.875.875 0 0 0 0 1.751h9.338a.875.875 0 0 0 0-1.751z" transform="translate(575.903 1291) translate(54.397 32.101) translate(-191.236 -339.277)"/>
                </g>
            </g>
            <g>
                <g>
                    <path d="M209.036 215.9H192.11a.875.875 0 0 0 0 1.751h16.926a.875.875 0 0 0 0-1.751z" transform="translate(575.903 1291) translate(54.397 20.428) translate(-191.235 -215.903)"/>
                </g>
            </g>
        </g>
    </g>
</svg>
