<svg xmlns="http://www.w3.org/2000/svg" width="69" height="66" viewBox="0 0 69 66">
    <g transform="translate(-822 -1274)">
        <circle cx="33" cy="33" r="33" fill="#e6e6e6" transform="translate(825 1274)"/>
        <g>
            <g>
                <g>
                    <path d="M52.116 48.727h-.8V37.814a5.063 5.063 0 0 0-5.057-5.057H24.331L9.536 28.53H9.51l-.027-.005-.041-.008h-.238l-.03.005-.046.009-.028-.001-.046.014-.026.01-.046.019-.024.012-.044.024-.022.014-.042.028-.021.016-.039.033-.021.019-.034.034-.02.023-.03.036-.02.027-.024.036-.019.032-.019.036-.017.036-.015.036-.014.04-.009.025c-.003.008 0 .009 0 .013v.013l-.913 3.653H5.058A5.063 5.063 0 0 0 0 37.8v27.7a.8.8 0 0 0 1.6 0v-24a5.038 5.038 0 0 0 3.461 1.374h41.202a3.464 3.464 0 0 1 3.457 3.46v5.59h-8.855c-.023 0-.051.006-.075.01h-.011c-.021 0-.041.01-.062.015h-.013l-.053.019-.02.007-.043.02-.028.013-.032.019-.035.022-.022.016-.04.03-.016.015-.041.037-.022.024-.031.034c-.01.012-.032.041-.046.063l-4.258 6.388a.786.786 0 0 0-.075.141c-.008.018-.014.037-.02.055l-.006.017-.015.059v.016c0 .018-.006.036-.008.054s0 .015 0 .023v.178c0 .007 0 .037.008.055s0 .01 0 .015c0 .02.009.04.015.06l.006.017c.006.019.012.037.02.055a.8.8 0 0 0 .075.141l4.258 6.387a.822.822 0 0 0 .056.073l.02.022q.02.022.042.043l.026.024.048.038.022.017a.8.8 0 0 0 .074.045l.02.009c.02.01.041.02.063.028l.025.009.062.019.026.007.066.012h.024a.8.8 0 0 0 .084.005h8.791v5.59a3.464 3.464 0 0 1-3.46 3.46H5.058a3.464 3.464 0 0 1-3.46-3.46v-3.18a.8.8 0 0 0-1.6 0v3.225a5.063 5.063 0 0 0 5.057 5.033h41.2a5.063 5.063 0 0 0 5.057-5.057v-5.597h.8a2.4 2.4 0 0 0 2.4-2.4V51.122a2.4 2.4 0 0 0-2.396-2.395zM9.891 30.292l14.09 4.026 9.443 2.7H8.21zm39.83 12.356a5.037 5.037 0 0 0-3.46-1.374H5.058a3.46 3.46 0 0 1 0-6.921h2.171l-.665 2.663H5.058a.8.8 0 0 0 0 1.6h40.137a.8.8 0 0 0 0-1.6h-5.956l-9.319-2.662h16.34a3.464 3.464 0 0 1 3.46 3.46zM52.914 63.9a.8.8 0 0 1-.8.8H41.363l-3.726-5.589 3.726-5.59h10.786a2.386 2.386 0 0 0 .765-.136zm-.8-11.978h-.8v-1.6h.8a.8.8 0 1 1 0 1.6z" transform="translate(822 1262.5) translate(0 28.499) translate(0 -28.499)"/>
                </g>
            </g>
            <g>
                <g>
                    <path d="M389.927 288.493a2.928 2.928 0 1 0 2.928 2.928 2.931 2.931 0 0 0-2.928-2.928zm0 4.259a1.331 1.331 0 1 1 1.331-1.331 1.332 1.332 0 0 1-1.331 1.331z" transform="translate(822 1262.5) translate(41.203 56.18) translate(-386.999 -288.493)"/>
                </g>
            </g>
        </g>
    </g>
</svg>
