<svg xmlns="http://www.w3.org/2000/svg" width="75" height="66" viewBox="0 0 75 66">
    <g transform="translate(-1046 -1274)">
        <circle cx="33" cy="33" r="33" fill="#e6e6e6" transform="translate(1055 1274)"/>
        <g>
            <path d="M49.826 36.651h5.651a2.829 2.829 0 0 0 2.823-2.825V31H47v2.826a2.829 2.829 0 0 0 2.826 2.825zm-.942-3.767h7.535v.942a.942.942 0 0 1-.942.942h-5.651a.942.942 0 0 1-.942-.942z" transform="translate(1043 1290) translate(-2.559 -1.745)"/>
            <path d="M59.51 14.186v-.942A12.317 12.317 0 0 0 57.06 5.9L53.388 1H46.8l-3.677 4.9q-.3.4-.566.824V5.709A4.715 4.715 0 0 0 37.848 1H7.709A4.715 4.715 0 0 0 3 5.709V50c2.61-.011 39.557 0 39.557 0v-7.559H59.51V25.488h-6.593v-11.3h2.826v2.057a2.826 2.826 0 1 0 1.884 0v-2.059zm-2.826 5.651a.942.942 0 1 1 .942-.942.943.943 0 0 1-.941.942zM44.629 7.028l3.108-4.144h4.709l3.108 4.144a10.417 10.417 0 0 1 2.028 5.272H42.6a10.413 10.413 0 0 1 2.028-5.274zm2.637 7.158v11.3h-4.709v-11.3zM7.709 2.884h30.139a2.829 2.829 0 0 1 2.826 2.826v14.127h-11.4a4.676 4.676 0 0 0-.87-1.884H32.2a2.829 2.829 0 0 0 2.826-2.826V7.593A2.829 2.829 0 0 0 32.2 4.767H13.36a2.829 2.829 0 0 0-2.826 2.826v7.535a2.829 2.829 0 0 0 2.826 2.826h3.792a4.664 4.664 0 0 0-.87 1.884H4.884V5.709a2.829 2.829 0 0 1 2.825-2.825zm12.244 10.36a2.826 2.826 0 1 1 2.826 2.826 2.829 2.829 0 0 1-2.826-2.826zm6.568 2.826a4.66 4.66 0 0 0 .966-2.826 4.709 4.709 0 1 0-9.418 0 4.66 4.66 0 0 0 .966 2.826H13.36a.943.943 0 0 1-.942-.942V7.593a.943.943 0 0 1 .942-.942H32.2a.943.943 0 0 1 .942.942v7.535a.943.943 0 0 1-.942.942zm-5.627 1.884h3.767a2.822 2.822 0 0 1 2.652 1.884h-9.069a2.82 2.82 0 0 1 2.651-1.884zm18.838 30.138H5.826a4.7 4.7 0 0 0-.942.1V21.72h35.79v26.467a4.7 4.7 0 0 0-.942-.095zm17.895-7.535h-15.07V27.371h15.07zm-6.593-15.069H49.15v-11.3h1.884z" transform="translate(1043 1290)"/>
            <path d="M7 47h1.884v1.884H7z" transform="translate(1043 1290) translate(-.233 -2.676)"/>
            <path d="M7 43h1.884v1.884H7z" transform="translate(1043 1290) translate(-.233 -2.443)"/>
            <path d="M7 39h1.884v1.884H7z" transform="translate(1043 1290) translate(-.233 -2.21)"/>
            <path d="M39 47h1.884v1.884H39z" transform="translate(1043 1290) translate(-2.094 -2.676)"/>
            <path d="M39 43h1.884v1.884H39z" transform="translate(1043 1290) translate(-2.094 -2.443)"/>
            <path d="M39 39h1.884v1.884H39z" transform="translate(1043 1290) translate(-2.094 -2.21)"/>
        </g>
    </g>
</svg>
