<svg xmlns="http://www.w3.org/2000/svg" width="67.418" height="66.4" viewBox="0 0 67.418 66.4">
    <g transform="translate(-1268.582 -1274)">
        <circle cx="33" cy="33" r="33" fill="#e6e6e6" transform="translate(1270 1274)"/>
        <path d="M45.844 27.406l-8.192-1.557c0-.045.014-.088.014-.135v-1.875a7.968 7.968 0 0 0 3.985-6.892 2.388 2.388 0 0 0 .4-4.743l.449-1.054a6.439 6.439 0 0 0-3.243-8.41l-2.223-1.013a8.169 8.169 0 0 0-8.154.885l-1.231.924-.034.024a4.992 4.992 0 0 0-3.006 2.246 4.941 4.941 0 0 0-.183 4.775l.815 1.63a2.391 2.391 0 0 0 .469 4.735 7.968 7.968 0 0 0 3.985 6.892v1.876c0 .046.012.089.014.135l-3.2.608v-1.54a2.394 2.394 0 0 0-2.391-2.391H3.391A2.394 2.394 0 0 0 1 24.917v11.159a2.394 2.394 0 0 0 2.391 2.391h7.971v5.58H1.8a.8.8 0 0 0-.8.8v4.782a.8.8 0 0 0 .8.8h47.822a.8.8 0 0 0 .8-.8V32.893a5.575 5.575 0 0 0-4.578-5.487zm-29.7 11.062h.8v5.58h-.8zm2.391 0h3.188v5.58h-3.187zm4.782 0h20.725v5.58H23.318zm20.724-1.594h-1.593v-8.49l1.594.3zm-1.593-22.319a.8.8 0 0 1-.8.8v-1.597a.8.8 0 0 1 .8.797zM25.976 6.627a3.389 3.389 0 0 1 2.891-1.637 3.722 3.722 0 0 1 3.1 1.661l.25.375 1.326-.885-.25-.375A5.3 5.3 0 0 0 30.29 3.6a6.553 6.553 0 0 1 6.084-.417L38.6 4.191a4.845 4.845 0 0 1 2.44 6.328l-.054.125-1.014-2.025a.8.8 0 0 0-1.192-.281l-1.275.956a6.377 6.377 0 0 1-7.652 0l-1.275-.956a.8.8 0 0 0-1.192.281l-1.08 2.161-.456-.912a3.357 3.357 0 0 1 .125-3.242zm-1.063 7.929a.8.8 0 0 1 .8-.8v1.594a.8.8 0 0 1-.801-.795zm2.387 2.39v-4.594l1.082-2.166.512.383a7.972 7.972 0 0 0 9.566 0l.511-.383 1.082 2.166v4.594a6.377 6.377 0 0 1-12.753 0zm6.377 7.971a7.959 7.959 0 0 0 2.391-.367v1.165a2.391 2.391 0 1 1-4.782 0V24.55a7.959 7.959 0 0 0 2.394.367zm-3.6 2.483a3.963 3.963 0 0 0 7.194 0l3.576.68v8.793h-14.34V28.08zM3.391 36.873a.8.8 0 0 1-.8-.8V24.917a.8.8 0 0 1 .8-.8h20.724a.8.8 0 0 1 .8.8v11.956h-8.771V30.5a.8.8 0 0 0-.8-.8h-3.185a.8.8 0 0 0-.8.8v6.377zm9.565-5.58h1.594v12.754h-1.594zm31.086 17.536H2.594v-3.188h41.448zm4.782 0h-3.188V29a3.98 3.98 0 0 1 3.188 3.9z" transform="translate(1267.582 1289.977)"/>
    </g>
</svg>
