<svg xmlns="http://www.w3.org/2000/svg" width="49" height="49" viewBox="0 0 49 49">
    <g>
        <path d="M15.952 45h-1.581v1.581a2.371 2.371 0 1 0 0 4.742h1.581a.79.79 0 1 1 0 1.581h-2.371v-.79H12v2.371h2.371v1.581h1.581v-1.582a2.371 2.371 0 0 0 0-4.742h-1.581a.79.79 0 0 1 0-1.581h2.371v.79h1.581v-2.37h-2.371z" transform="translate(-1 -1) translate(-2.306 -9.226)"/>
        <path d="M51.952 16.065v-1.581a2.371 2.371 0 1 0 0-4.742h-1.581a.79.79 0 0 1 0-1.581h2.371v.79h1.581v-2.37h-2.371V5h-1.581v1.581a2.371 2.371 0 1 0 0 4.742h1.581a.79.79 0 0 1 0 1.581h-2.371v-.79H48v2.371h2.371v1.581z" transform="translate(-1 -1) translate(-9.855 -.839)"/>
        <path d="M48.856 39.456l-7.363-3.681H24.71v-5.743l3.21-3.364a3.105 3.105 0 0 0 4.069-.882l5.436 2.175a4 4 0 0 0-.07.7 3.952 3.952 0 1 0 4.745-3.872v-6.442a8.694 8.694 0 1 0-1.581 0v6.443a3.954 3.954 0 0 0-2.506 1.7l-5.437-2.175a3.155 3.155 0 1 0-5.8 1.263l-2.066 2.164V9.694a3.956 3.956 0 0 0-3.952-3.952H4.952A3.956 3.956 0 0 0 1 9.694v26.871a3.954 3.954 0 0 0 3.2 3.875c-.028.285-.043.574-.043.866a8.69 8.69 0 0 0 15.395 5.532h21.941l7.363-3.681a2.07 2.07 0 0 0 0-3.7zM34.194 9.694a7.113 7.113 0 1 1 7.113 7.113 7.122 7.122 0 0 1-7.113-7.113zm7.113 16.6a2.371 2.371 0 1 1-2.371 2.371 2.374 2.374 0 0 1 2.37-2.375zm-11.855-3.955a1.581 1.581 0 1 1-1.581 1.581 1.582 1.582 0 0 1 1.581-1.581zm-7.944 18.173a8.619 8.619 0 0 0-.919-3.157h19.24l-1.054 1.578 1.054 1.579zm1.621-4.738h-3.573c-.051-.061-.107-.116-.16-.175l3.733-3.911zm-20.548.79V9.694a2.374 2.374 0 0 1 2.371-2.371h15.806a2.374 2.374 0 0 1 2.371 2.371V29.4l-4.875 5.107a8.65 8.65 0 0 0-9.461-.88 1.58 1.58 0 0 0-1.471-1.012h-1.58a1.582 1.582 0 0 0-1.581 1.581v1.581a1.58 1.58 0 0 0 1.012 1.471 8.622 8.622 0 0 0-.664 1.646 2.374 2.374 0 0 1-1.929-2.327zm3.573-.79h-.412v-1.58h1.581v.412a8.877 8.877 0 0 0-1.169 1.168zm6.7 12.645a7.113 7.113 0 1 1 7.113-7.113 7.121 7.121 0 0 1-7.112 7.113zm8.654-6.327H39.83l-1.054 1.582 1.054 1.583H20.589a8.63 8.63 0 0 0 .92-3.165zm26.64-.349l-6.57 3.287-.9-1.354 1.578-2.376-1.581-2.369.9-1.35 6.572 3.286a.488.488 0 0 1 0 .873z" transform="translate(-1 -1)"/>
        <path d="M6.581 20.484h14.225a1.582 1.582 0 0 0 1.581-1.584v-6.319A1.582 1.582 0 0 0 20.806 11H6.581A1.582 1.582 0 0 0 5 12.581V18.9a1.582 1.582 0 0 0 1.581 1.584zm0-7.9h14.225V18.9H6.581z" transform="translate(-1 -1) translate(-.839 -2.097)"/>
        <path d="M6.581 29.742h1.58a1.582 1.582 0 0 0 1.581-1.581v-1.58A1.582 1.582 0 0 0 8.161 25h-1.58A1.582 1.582 0 0 0 5 26.581v1.581a1.582 1.582 0 0 0 1.581 1.58zm0-3.161h1.58v1.581h-1.58z" transform="translate(-1 -1) translate(-.839 -5.032)"/>
        <path d="M16.161 25h-1.58A1.582 1.582 0 0 0 13 26.581v1.581a1.582 1.582 0 0 0 1.581 1.581h1.581a1.582 1.582 0 0 0 1.581-1.581v-1.581A1.582 1.582 0 0 0 16.161 25zm-1.581 3.161v-1.58h1.581v1.581z" transform="translate(-1 -1) translate(-2.516 -5.032)"/>
        <path d="M24.161 25h-1.58A1.582 1.582 0 0 0 21 26.581v1.581a1.582 1.582 0 0 0 1.581 1.581h1.581a1.582 1.582 0 0 0 1.581-1.581v-1.581A1.582 1.582 0 0 0 24.161 25zm-1.581 3.161v-1.58h1.581v1.581z" transform="translate(-1 -1) translate(-4.194 -5.032)"/>
        <path d="M6.581 37.742h1.58a1.582 1.582 0 0 0 1.581-1.581v-1.58A1.582 1.582 0 0 0 8.161 33h-1.58A1.582 1.582 0 0 0 5 34.581v1.581a1.582 1.582 0 0 0 1.581 1.58zm0-3.161h1.58v1.581h-1.58z" transform="translate(-1 -1) translate(-.839 -6.71)"/>
        <path d="M16.161 33h-1.58A1.582 1.582 0 0 0 13 34.581v1.581a1.582 1.582 0 0 0 1.581 1.581h1.581a1.582 1.582 0 0 0 1.581-1.581v-1.581A1.582 1.582 0 0 0 16.161 33zm-1.581 3.161v-1.58h1.581v1.581z" transform="translate(-1 -1) translate(-2.516 -6.71)"/>
        <path d="M24.161 33h-1.58A1.582 1.582 0 0 0 21 34.581v1.581a1.582 1.582 0 0 0 1.581 1.581h1.581a1.582 1.582 0 0 0 1.581-1.581v-1.581A1.582 1.582 0 0 0 24.161 33zm-1.581 3.161v-1.58h1.581v1.581z" transform="translate(-1 -1) translate(-4.194 -6.71)"/>
    </g>
</svg>
