<svg xmlns="http://www.w3.org/2000/svg" width="49" height="49" viewBox="0 0 49 49">
  <g id="Accounting_Finance" data-name="Accounting &amp; Finance" transform="translate(-1 -1)">
    <path id="Path_10382" data-name="Path 10382" d="M15.952,45H14.371v1.581a2.371,2.371,0,1,0,0,4.742h1.581a.79.79,0,0,1,0,1.581H13.581v-.79H12v2.371h2.371v1.581h1.581V54.484a2.371,2.371,0,0,0,0-4.742H14.371a.79.79,0,1,1,0-1.581h2.371v.79h1.581V46.581H15.952Z" transform="translate(-2.306 -9.226)"/>
    <path id="Path_10383" data-name="Path 10383" d="M51.952,16.065V14.484a2.371,2.371,0,0,0,0-4.742H50.371a.79.79,0,0,1,0-1.581h2.371v.79h1.581V6.581H51.952V5H50.371V6.581a2.371,2.371,0,0,0,0,4.742h1.581a.79.79,0,0,1,0,1.581H49.581v-.79H48v2.371h2.371v1.581Z" transform="translate(-9.855 -0.839)"/>
    <path id="Path_10384" data-name="Path 10384" d="M48.856,39.456l-7.363-3.681H24.71V30.032l3.21-3.364a3.105,3.105,0,0,0,4.069-.882l5.436,2.175a4,4,0,0,0-.07.7A3.952,3.952,0,1,0,42.1,24.789V18.347a8.694,8.694,0,1,0-1.581,0v6.443a3.954,3.954,0,0,0-2.506,1.7l-5.437-2.175a3.155,3.155,0,1,0-5.8,1.263L24.71,27.742V9.694a3.956,3.956,0,0,0-3.952-3.952H4.952A3.956,3.956,0,0,0,1,9.694V36.565A3.954,3.954,0,0,0,4.2,40.44c-.028.285-.043.574-.043.866a8.69,8.69,0,0,0,15.395,5.532H41.493l7.363-3.681a2.07,2.07,0,0,0,0-3.7ZM34.194,9.694a7.113,7.113,0,1,1,7.113,7.113A7.122,7.122,0,0,1,34.194,9.694Zm7.113,16.6a2.371,2.371,0,1,1-2.371,2.371A2.374,2.374,0,0,1,41.306,26.29ZM29.452,22.339a1.581,1.581,0,1,1-1.581,1.581A1.582,1.582,0,0,1,29.452,22.339ZM21.508,40.512a8.619,8.619,0,0,0-.919-3.157h19.24l-1.054,1.578,1.054,1.579Zm1.621-4.738H19.556c-.051-.061-.107-.116-.16-.175l3.733-3.911Zm-20.548.79V9.694A2.374,2.374,0,0,1,4.952,7.323H20.758a2.374,2.374,0,0,1,2.371,2.371V29.4l-4.875,5.107a8.65,8.65,0,0,0-9.461-.88,1.58,1.58,0,0,0-1.471-1.012H5.742a1.582,1.582,0,0,0-1.581,1.581v1.581a1.58,1.58,0,0,0,1.012,1.471,8.622,8.622,0,0,0-.664,1.646,2.374,2.374,0,0,1-1.929-2.327Zm3.573-.79H5.742V34.194H7.323v.412A8.877,8.877,0,0,0,6.154,35.774Zm6.7,12.645a7.113,7.113,0,1,1,7.113-7.113A7.121,7.121,0,0,1,12.855,48.419Zm8.654-6.327H39.83l-1.054,1.582,1.054,1.583H20.589a8.63,8.63,0,0,0,.92-3.165Zm26.64-.349L41.578,45.03l-.9-1.354L42.256,41.3l-1.581-2.369.9-1.35,6.572,3.286a.488.488,0,0,1,0,.873Z"/>
    <path id="Path_10385" data-name="Path 10385" d="M6.581,20.484H20.806A1.582,1.582,0,0,0,22.387,18.9V12.581A1.582,1.582,0,0,0,20.806,11H6.581A1.582,1.582,0,0,0,5,12.581V18.9A1.582,1.582,0,0,0,6.581,20.484Zm0-7.9H20.806V18.9H6.581Z" transform="translate(-0.839 -2.097)"/>
    <path id="Path_10386" data-name="Path 10386" d="M6.581,29.742H8.161a1.582,1.582,0,0,0,1.581-1.581V26.581A1.582,1.582,0,0,0,8.161,25H6.581A1.582,1.582,0,0,0,5,26.581v1.581A1.582,1.582,0,0,0,6.581,29.742Zm0-3.161H8.161v1.581H6.581Z" transform="translate(-0.839 -5.032)"/>
    <path id="Path_10387" data-name="Path 10387" d="M16.161,25H14.581A1.582,1.582,0,0,0,13,26.581v1.581a1.582,1.582,0,0,0,1.581,1.581h1.581a1.582,1.582,0,0,0,1.581-1.581V26.581A1.582,1.582,0,0,0,16.161,25Zm-1.581,3.161V26.581h1.581v1.581Z" transform="translate(-2.516 -5.032)"/>
    <path id="Path_10388" data-name="Path 10388" d="M24.161,25H22.581A1.582,1.582,0,0,0,21,26.581v1.581a1.582,1.582,0,0,0,1.581,1.581h1.581a1.582,1.582,0,0,0,1.581-1.581V26.581A1.582,1.582,0,0,0,24.161,25Zm-1.581,3.161V26.581h1.581v1.581Z" transform="translate(-4.194 -5.032)"/>
    <path id="Path_10389" data-name="Path 10389" d="M6.581,37.742H8.161a1.582,1.582,0,0,0,1.581-1.581V34.581A1.582,1.582,0,0,0,8.161,33H6.581A1.582,1.582,0,0,0,5,34.581v1.581A1.582,1.582,0,0,0,6.581,37.742Zm0-3.161H8.161v1.581H6.581Z" transform="translate(-0.839 -6.71)"/>
    <path id="Path_10390" data-name="Path 10390" d="M16.161,33H14.581A1.582,1.582,0,0,0,13,34.581v1.581a1.582,1.582,0,0,0,1.581,1.581h1.581a1.582,1.582,0,0,0,1.581-1.581V34.581A1.582,1.582,0,0,0,16.161,33Zm-1.581,3.161V34.581h1.581v1.581Z" transform="translate(-2.516 -6.71)"/>
    <path id="Path_10391" data-name="Path 10391" d="M24.161,33H22.581A1.582,1.582,0,0,0,21,34.581v1.581a1.582,1.582,0,0,0,1.581,1.581h1.581a1.582,1.582,0,0,0,1.581-1.581V34.581A1.582,1.582,0,0,0,24.161,33Zm-1.581,3.161V34.581h1.581v1.581Z" transform="translate(-4.194 -6.71)"/>
  </g>
</svg>
