<svg id="advance_science_and_engineering" data-name="advance science and engineering" xmlns="http://www.w3.org/2000/svg" width="45.582" height="49" viewBox="0 0 45.582 49">
  <path id="Path_10349" data-name="Path 10349" d="M55.936,50.25a5.686,5.686,0,1,0,5.686,5.686A5.686,5.686,0,0,0,55.936,50.25Zm0,9.924a4.238,4.238,0,1,1,4.238-4.238,4.238,4.238,0,0,1-4.238,4.238Z" transform="translate(-33.067 -31.436)"/>
  <path id="Path_10350" data-name="Path 10350" d="M67.221,62.25a.724.724,0,0,0-.724.724,1.767,1.767,0,0,1-.876,1.52.724.724,0,1,0,.729,1.25,3.219,3.219,0,0,0,1.594-2.77A.724.724,0,0,0,67.221,62.25Z" transform="translate(-41.871 -38.474)"/>
  <path id="Path_10351" data-name="Path 10351" d="M50.266,27.559a3.2,3.2,0,0,0,3.074-5.364c-.053-.052-.108-.1-.165-.148A6.409,6.409,0,0,0,52.781,17c-1.737-3.01-6.3-4-12.555-2.751-2.056-6.042-5.192-9.5-8.662-9.5s-6.606,3.457-8.664,9.5C16.641,13,12.082,13.99,10.345,17a6.413,6.413,0,0,0-.421,4.937,3.2,3.2,0,0,0,2.911,5.588c.429.571.9,1.149,1.406,1.727-4.2,4.8-5.631,9.24-3.9,12.247,1.247,2.161,3.945,3.282,7.684,3.282a25.29,25.29,0,0,0,4.87-.534c2.058,6.044,5.194,9.5,8.665,9.5a6.445,6.445,0,0,0,4.5-2.119,3.2,3.2,0,0,0,3.551-5.2c-.052-.053-.108-.1-.163-.148.271-.641.53-1.323.775-2.037a25.234,25.234,0,0,0,4.868.534c3.738,0,6.437-1.121,7.684-3.282,1.737-3.007.309-7.449-3.9-12.247C49.375,28.7,49.836,28.129,50.266,27.559Zm2.05-1.855a1.759,1.759,0,0,1-2.485,0h0a1.757,1.757,0,1,1,2.485,0Zm-.788-7.981a4.866,4.866,0,0,1,.335,3.639,3.2,3.2,0,0,0-3.057,5.366c.052.053.108.1.163.148q-.5.656-1.064,1.3a43.726,43.726,0,0,0-5.773-5.029,44.261,44.261,0,0,0-1.464-7.513c5.453-1.054,9.486-.294,10.86,2.087ZM39.25,42.557a41.455,41.455,0,0,1-5.9-1.919c1.234-.6,2.464-1.245,3.67-1.941s2.392-1.444,3.515-2.211a41.431,41.431,0,0,1-1.281,6.071Zm-15.373,0A41.424,41.424,0,0,1,22.6,36.486c1.126.767,2.3,1.509,3.517,2.211s2.433,1.346,3.669,1.941a41.46,41.46,0,0,1-5.9,1.919Zm0-26.614a41.439,41.439,0,0,1,5.9,1.919c-1.235.6-2.464,1.245-3.67,1.943s-2.392,1.444-3.517,2.211a41.412,41.412,0,0,1,1.283-6.073ZM20.813,33.4A40.851,40.851,0,0,1,16.2,29.25,40.9,40.9,0,0,1,20.813,25.1c-.1,1.365-.156,2.755-.156,4.149S20.71,32.033,20.813,33.4Zm6.023,4.044c-1.566-.9-3.065-1.875-4.469-2.885-.173-1.733-.264-3.515-.264-5.308s.091-3.575.264-5.308c1.4-1.009,2.9-1.98,4.469-2.885,1.551-.9,3.14-1.711,4.728-2.431,1.589.72,3.178,1.535,4.729,2.431,1.566.9,3.065,1.875,4.469,2.885.173,1.733.264,3.515.264,5.308s-.091,3.575-.264,5.308c-1.4,1.009-2.9,1.98-4.469,2.885-1.551.9-3.14,1.711-4.728,2.431-1.59-.72-3.179-1.535-4.73-2.431Zm12.415-21.5a41.422,41.422,0,0,1,1.282,6.071c-1.126-.767-2.3-1.509-3.515-2.211s-2.436-1.344-3.672-1.94a41.459,41.459,0,0,1,5.9-1.919Zm3.064,9.16A40.85,40.85,0,0,1,46.93,29.25,40.9,40.9,0,0,1,42.315,33.4c.1-1.365.156-2.755.156-4.149S42.418,26.467,42.315,25.1ZM31.564,6.2c2.745,0,5.422,3.113,7.242,8.363a44.381,44.381,0,0,0-7.243,2.481,44.347,44.347,0,0,0-7.242-2.481C26.142,9.31,28.819,6.2,31.564,6.2ZM10.652,25.7h0a1.76,1.76,0,1,1,1.243.514,1.76,1.76,0,0,1-1.243-.514Zm3.509-3.509a3.2,3.2,0,0,0-2.9-.872,4.8,4.8,0,0,1,.341-3.6c1.374-2.382,5.407-3.143,10.86-2.088a44.289,44.289,0,0,0-1.464,7.513,43.694,43.694,0,0,0-5.774,5.024q-.6-.7-1.129-1.386c.023-.022.047-.041.069-.063a3.207,3.207,0,0,0,0-4.532ZM11.6,40.776c-1.37-2.378-.013-6.253,3.625-10.451a43.712,43.712,0,0,0,5.772,5.026,44.26,44.26,0,0,0,1.464,7.513c-5.454,1.054-9.487.294-10.86-2.088Zm27,9.165a1.76,1.76,0,1,1,.514-1.243,1.76,1.76,0,0,1-.514,1.243Zm-1.241-4.446A3.2,3.2,0,0,0,34.9,50.758,4.861,4.861,0,0,1,31.566,52.3c-2.745,0-5.422-3.113-7.242-8.363a44.381,44.381,0,0,0,7.243-2.481,44.353,44.353,0,0,0,7.244,2.481c-.2.581-.414,1.137-.634,1.664a3.214,3.214,0,0,0-.823-.109Zm14.176-4.719c-1.374,2.382-5.407,3.143-10.86,2.088a44.289,44.289,0,0,0,1.464-7.513,43.691,43.691,0,0,0,5.77-5.026c3.638,4.2,5,8.073,3.624,10.451Z" transform="translate(-8.695 -4.75)"/>
</svg>
