<svg id="agriculture" xmlns="http://www.w3.org/2000/svg" width="45.147" height="48.954" viewBox="0 0 45.147 48.954">
  <path id="Path_10278" data-name="Path 10278" d="M64.641,34.836a2.369,2.369,0,0,0-3.338-.707l-.582.306-3.011-2.4a17.915,17.915,0,0,0-10.325-3.873,6.573,6.573,0,0,1,1.889-3.477,14.589,14.589,0,0,0,2.125.133,14.039,14.039,0,0,0,6.483-1.431.717.717,0,1,0-.656-1.276,13,13,0,0,1-6.459,1.26A81.916,81.916,0,0,1,62.53,15.386a11.722,11.722,0,0,1-2.784,4.872.717.717,0,0,0,1.023,1.005A13.486,13.486,0,0,0,64.2,14.617a1.247,1.247,0,0,0-1.3-1.429c-7.03.134-13.667,3.14-14.549,10.192a1.12,1.12,0,0,0-.006.207,8.892,8.892,0,0,0-1.095,1.284V18.906c3.1-2.827,4.085-6.557,3.318-10.737a22.9,22.9,0,0,0-3.1-7.658h0a1.1,1.1,0,0,0-1.86,0,22.9,22.9,0,0,0-3.1,7.658c-.765,4.17.206,7.9,3.316,10.736v5.846a8.953,8.953,0,0,0-1.008-1.163,1.122,1.122,0,0,0-.006-.207c-.88-7.041-7.521-10.058-14.549-10.193a1.246,1.246,0,0,0-1.3,1.429c1.118,5.7,5.428,10.2,12.767,10.2a15.016,15.016,0,0,0,2.153-.135,6.56,6.56,0,0,1,1.892,3.473,17.905,17.905,0,0,0-8.215,2.378c-.289-.1-.552-.19-.771-.256a8.479,8.479,0,0,0-6.54.765l-5.153,2.889a2.05,2.05,0,0,0-2.491-.338l-1.671.964a2.058,2.058,0,0,0-.752,2.808L26.27,47.923a2.055,2.055,0,0,0,2.808.752l1.671-.964a2.057,2.057,0,0,0,.777-2.76l1.258-1.116a1.392,1.392,0,0,1,1.344-.283l5.8,1.863a5.028,5.028,0,0,0,2.32.314L53.82,44.541a5.085,5.085,0,0,0,2.355-.871c8.512-5.859,8-5.5,8.076-5.565a2.6,2.6,0,0,0,.39-3.27ZM60.7,14.78a82.381,82.381,0,0,0-10.632,7.307c1.5-5.339,7.083-6.876,10.632-7.307ZM43.084,22.089a82.36,82.36,0,0,0-10.624-7.3C37.242,15.379,41.777,17.428,43.084,22.089Zm-12.467-6.7a81.906,81.906,0,0,1,11.765,7.987c-8.252.288-10.93-5.121-11.765-7.987ZM49.156,8.427a9.755,9.755,0,0,1-1.907,8.416V3.03A20.036,20.036,0,0,1,49.156,8.427Zm-5.247,0a20.033,20.033,0,0,1,1.905-5.395V16.841A9.755,9.755,0,0,1,43.91,8.427ZM56.817,33.155l2.519,2.009L56.184,36.82a9.369,9.369,0,0,1-3.265,1.021l.017-.28a.712.712,0,0,0,0-.111,3.543,3.543,0,0,0-2.959-3.225l-.019,0-5.755-.7c-1.823-.275-2.071-1.074-4.894-2.3A16.576,16.576,0,0,1,56.817,33.155ZM63.3,37.026l-7.942,5.464a3.647,3.647,0,0,1-1.688.625L42.1,44.3a3.691,3.691,0,0,1-1.714-.246l-5.816-1.869a2.833,2.833,0,0,0-2.735.575l-1.036.919-2.32-4.019a.717.717,0,1,0-1.242.717l3.026,5.241a.622.622,0,0,1-.227.849l-1.671.964a.621.621,0,0,1-.849-.227L21.417,36.65a.622.622,0,0,1,.227-.849l1.671-.964a.621.621,0,0,1,.849.227l1.389,2.406a.717.717,0,0,0,1.242-.717l-.93-1.611,5.078-2.847a7.039,7.039,0,0,1,5.427-.643c4.452,1.333,4.987,2.9,7.628,3.293l.019,0,5.755.7A2.11,2.11,0,0,1,51.5,37.534l-.025.41-7.315.478a.717.717,0,0,0,.046,1.433l.048,0c7.742-.7,9.456-.112,12.6-1.764,5.475-2.88,5.167-2.709,5.239-2.761a.936.936,0,0,1,1.346.285,1.151,1.151,0,0,1-.132,1.412Z" transform="translate(-19.9 0.002)"/>
</svg>
