<svg xmlns="http://www.w3.org/2000/svg" width="41.737" height="49.179" viewBox="0 0 41.737 49.179">
  <g id="animation" transform="translate(-38.738)">
    <path id="Path_10407" data-name="Path 10407" d="M198.874,289.238H181.96v-.958a1.883,1.883,0,0,0,.489-.295l1.042-.872a1.3,1.3,0,0,0,.466-1v-2.654a1.3,1.3,0,0,0-1.3-1.3h-2.829a1.3,1.3,0,0,0-1.3,1.3v2.654a1.3,1.3,0,0,0,.467,1l1.042.872a1.882,1.882,0,0,0,.488.294v.958h-7.8a1.429,1.429,0,0,0-1.427,1.427v2.021a1.429,1.429,0,0,0,1.427,1.427h7.8v1.965h-7.8a1.429,1.429,0,0,0-1.427,1.427v2.021a1.429,1.429,0,0,0,1.427,1.427h7.8v2.561a.72.72,0,1,0,1.441,0v-2.561h16.914a1.429,1.429,0,0,0,1.427-1.427v-2.022a1.429,1.429,0,0,0-1.427-1.427H181.96v-1.965h16.914a1.429,1.429,0,0,0,1.427-1.427v-2.021a1.429,1.429,0,0,0-1.427-1.427Zm-18.911-3.188V283.6h2.553v2.451l-.992.831a.442.442,0,0,1-.281.1h-.006a.441.441,0,0,1-.281-.1Zm-7.226,13.463v-1.994h7.781v1.994Zm26.123,0h-9.489v-1.994h9.489Zm-10.93-1.994v1.994H181.96v-1.994Zm-15.193-4.846v-1.994h7.781v1.994Zm9.222-1.994h10.314v1.994H181.96Zm16.9,1.994h-5.146v-1.994h5.146Z" transform="translate(-119.826 -255.056)"/>
    <path id="Path_10408" data-name="Path 10408" d="M47.282,355.871H40.131a1.394,1.394,0,0,0-1.393,1.392v2.09a1.394,1.394,0,0,0,1.393,1.392h7.152a1.394,1.394,0,0,0,1.392-1.392v-2.09A1.394,1.394,0,0,0,47.282,355.871Zm-.048,3.435H40.179v-1.994h7.055Z" transform="translate(0 -321.689)"/>
    <path id="Path_10409" data-name="Path 10409" d="M47.282,427.085H40.131a1.394,1.394,0,0,0-1.393,1.393v2.09a1.394,1.394,0,0,0,1.393,1.392h7.152a1.394,1.394,0,0,0,1.392-1.392v-2.09A1.394,1.394,0,0,0,47.282,427.085Zm-.048,3.435H40.179v-1.994h7.055Z" transform="translate(0 -386.063)"/>
    <path id="Path_10410" data-name="Path 10410" d="M77.048,0H42.165a3.431,3.431,0,0,0-3.427,3.427V21.681a3.431,3.431,0,0,0,3.427,3.427h4.873a.72.72,0,0,0,0-1.441H42.165a1.989,1.989,0,0,1-1.987-1.987V3.427a1.989,1.989,0,0,1,1.987-1.987H77.048a1.989,1.989,0,0,1,1.987,1.987V21.681a1.989,1.989,0,0,1-1.987,1.987H49.92a.72.72,0,0,0,0,1.441H77.048a3.431,3.431,0,0,0,3.427-3.427V3.427A3.431,3.431,0,0,0,77.048,0Z" transform="translate(0)"/>
    <path id="Path_10411" data-name="Path 10411" d="M334.159,84.646a4.051,4.051,0,1,0-4.051,4.051A4.056,4.056,0,0,0,334.159,84.646Zm-6.661,0a2.61,2.61,0,1,1,2.61,2.61A2.613,2.613,0,0,1,327.5,84.646Z" transform="translate(-259.721 -72.854)"/>
    <path id="Path_10412" data-name="Path 10412" d="M119.561,74.407a9.838,9.838,0,0,0-7.148,3.109,13.272,13.272,0,0,0-11.48-6.6.72.72,0,0,0,0,1.441,11.8,11.8,0,0,1,6.4,1.878,11.969,11.969,0,0,1,4.294,4.878.722.722,0,0,0,1.227.117,8.392,8.392,0,0,1,6.7-3.38.72.72,0,1,0,0-1.441Z" transform="translate(-55.57 -64.102)"/>
    <path id="Path_10413" data-name="Path 10413" d="M239.787,138.541a6.786,6.786,0,0,0-6.547,5,.72.72,0,1,0,1.39.379,5.345,5.345,0,0,1,5.157-3.934.72.72,0,1,0,0-1.441Z" transform="translate(-175.796 -125.234)"/>
    <path id="Path_10414" data-name="Path 10414" d="M100.933,103.611a8.855,8.855,0,0,1,8.715,7.359.72.72,0,0,0,1.421-.24,10.3,10.3,0,0,0-10.135-8.559.72.72,0,1,0,0,1.441Z" transform="translate(-55.57 -92.356)"/>
  </g>
</svg>
