<svg xmlns="http://www.w3.org/2000/svg" width="30.855" height="48.795" viewBox="0 0 30.855 48.795">
  <g id="anime_Manga" data-name="anime &amp; Manga" transform="translate(0.75 0.75)">
    <g id="Group_459" data-name="Group 459" transform="translate(0 0)">
      <g id="flat">
        <path id="Path_10230" data-name="Path 10230" d="M28.678,3C20.572,3,14,12.127,14,23.386V50.3H43.356V23.386C43.356,12.127,36.784,3,28.678,3Z" transform="translate(-14 -3)" fill="none" stroke="#000" stroke-width="1.5"/>
        <ellipse id="Ellipse_46" data-name="Ellipse 46" cx="13.236" cy="17.648" rx="13.236" ry="17.648" transform="translate(1.511 0.276)" fill="none" stroke="#000" stroke-width="1.5"/>
        <ellipse id="Ellipse_47" data-name="Ellipse 47" cx="2.451" cy="1.471" rx="2.451" ry="1.471" transform="translate(8.374 13.022)" fill="none" stroke="#000" stroke-width="1.5"/>
        <ellipse id="Ellipse_48" data-name="Ellipse 48" cx="2.451" cy="1.471" rx="2.451" ry="1.471" transform="translate(16.218 13.022)" fill="none" stroke="#000" stroke-width="1.5"/>
        <path id="Path_10231" data-name="Path 10231" d="M34.339,31.631H27.815a.815.815,0,1,1,0-1.631h6.523a.815.815,0,0,1,0,1.631Z" transform="translate(-16.399 -2.952)" fill="none" stroke="#000" stroke-width="1.5"/>
        <path id="Path_10232" data-name="Path 10232" d="M32.446,35.631H30.815a.815.815,0,0,1,0-1.631h1.631a.815.815,0,1,1,0,1.631Z" transform="translate(-16.953 -3.69)" fill="none" stroke="#000" stroke-width="1.5"/>
        <path id="Path_10235" data-name="Path 10235" d="M25,12.893h3.262L26.631,8Z" transform="translate(-16.03 -1.996)" fill="none" stroke="#000" stroke-width="1.5"/>
        <path id="Path_10236" data-name="Path 10236" d="M35,12.893h3.262L36.631,8Z" transform="translate(-17.876 -1.996)" fill="none" stroke="#000" stroke-width="1.5"/>
        <path id="Path_10237" data-name="Path 10237" d="M38.262,22H35l1.631,4.893Z" transform="translate(-17.876 -4.045)" fill="none" stroke="#000" stroke-width="1.5"/>
        <path id="Path_10238" data-name="Path 10238" d="M28.262,22H25l1.631,4.893Z" transform="translate(-16.03 -4.045)" fill="none" stroke="#000" stroke-width="1.5"/>
      </g>
    </g>
  </g>
</svg>
