<svg id="architecture" xmlns="http://www.w3.org/2000/svg" width="48.934" height="48.933" viewBox="0 0 48.934 48.933">
  <path id="Path_10239" data-name="Path 10239" d="M48.421,30.232a.821.821,0,0,0-.9.2L44.04,34.089V12.341h0l3.323-3.589A.816.816,0,0,0,47.323,7.6h0l-1.2-1.113,1.662-1.794a.815.815,0,0,0-.046-1.152L44.153.217A.815.815,0,0,0,43,.261L37.2,6.523H8.971A4.083,4.083,0,0,0,4.893,2.445H4.078A4.083,4.083,0,0,0,0,6.523V41.592a.816.816,0,0,0,.816.815H13.161l-1.713,2.057a.816.816,0,0,0,.105,1.148l3.761,3.131a.816.816,0,0,0,1.149-.1h0l4.174-5.015a2.418,2.418,0,0,0,.535-1.216H36.117l-4.9,5.147a.815.815,0,0,0,.591,1.377H48.118a.816.816,0,0,0,.816-.815V30.99a.816.816,0,0,0-.513-.758Zm-2.8-22L44.04,9.941v-1.2l.979-1.06ZM42.409,8.09V8.1l-6.9,7.454-2.4-2.216L41.425,4.36l2.4,2.216-1.4,1.514Zm-8.464,8.237-1.876.547.4-1.913Zm9.7-14.361,2.394,2.215-1.108,1.2L42.533,3.163ZM4.078,4.076h.815A2.447,2.447,0,0,1,7.34,6.523V37.535A4.036,4.036,0,0,0,4.893,36.7H4.078a4.035,4.035,0,0,0-2.447.837V6.523A2.447,2.447,0,0,1,4.078,4.076Zm0,34.254h.815A2.447,2.447,0,0,1,7.34,40.776H1.631a2.447,2.447,0,0,1,2.447-2.447ZM19.385,42.58l-.522.626L16.356,41.12l.521-.627a.815.815,0,0,1,1.148-.1h0l1.253,1.041a.815.815,0,0,1,.106,1.148h0Zm-3.653,4.388-2.507-2.087,2.087-2.508,2.507,2.087Zm5.1-6.192a2.422,2.422,0,0,0-.507-.6l-1.253-1.043a2.447,2.447,0,0,0-3.446.315l-1.107,1.327H8.971V8.154H35.694l-4.328,4.677a.792.792,0,0,0-.145.237c-.01.024-.017.046-.025.07s-.02.049-.026.075L30.2,17.869a.816.816,0,0,0,1.027.949l4.567-1.331c.021-.007.039-.019.059-.026a.667.667,0,0,0,.064-.029.806.806,0,0,0,.245-.172L42.409,10.5V35.8l-4.738,4.975ZM47.3,47.3H33.709L47.3,33.028Zm0,0" transform="translate(0 0)"/>
  <path id="Path_10240" data-name="Path 10240" d="M401.128,407.887a.816.816,0,0,0,.754.5h5.709a.815.815,0,0,0,.816-.815v-5.709a.815.815,0,0,0-1.392-.576L401.3,407A.816.816,0,0,0,401.128,407.887Zm5.647-4.053v2.925H403.85Zm0,0" transform="translate(-362.734 -362.721)"/>
  <path id="Path_10241" data-name="Path 10241" d="M151.651,185.323h-5.709v-8.971a.825.825,0,0,0-.24-.578l-4.893-4.893a.815.815,0,0,0-1.153,0l-4.893,4.893a.826.826,0,0,0-.238.578v8.971h-5.709a.816.816,0,1,0,0,1.631h22.836a.816.816,0,1,0,0-1.631Zm-11.418-12.712,2.925,2.925h-5.849Zm-4.078,4.556h8.156v8.156h-8.156Zm0,0" transform="translate(-115.767 -154.333)"/>
  <path id="Path_10242" data-name="Path 10242" d="M247.465,136.516H249.1v1.631h-1.632Zm0,0" transform="translate(-223.814 -123.469)"/>
  <path id="Path_10243" data-name="Path 10243" d="M247.465,358.383H249.1v1.631h-1.632Zm0,0" transform="translate(-223.814 -324.131)"/>
</svg>
