<svg id="bio_technology" data-name="bio technology" xmlns="http://www.w3.org/2000/svg" width="45.734" height="49" viewBox="0 0 45.734 49">
  <g id="Group_469" data-name="Group 469" transform="translate(0 0)">
    <path id="Path_10271" data-name="Path 10271" d="M36.233,37.933a6.452,6.452,0,0,0-1.633.209V20.783a.817.817,0,1,0-1.633,0V39.308a.817.817,0,0,0,1.168.735,4.9,4.9,0,1,1-2.8,4.424V22.417a.817.817,0,1,0-1.633,0V33.033H28.067V21.288l6.082-3.036a.817.817,0,0,0,.452-.735v-9.8a5.717,5.717,0,0,0-11.433,0V14.25a.817.817,0,1,0,1.633,0V7.717a4.091,4.091,0,0,1,3.267-4v10.1L23.53,16.835a.817.817,0,0,0-.363.682V36.3a.817.817,0,0,0,1.633,0V17.954l4.537-3.022a.817.817,0,0,0,.363-.682V3.715a4.09,4.09,0,0,1,3.267,4v9.3l-6.082,3.04a.817.817,0,0,0-.452.731V44.467a4.915,4.915,0,1,1-2.8-4.423.817.817,0,1,0,.7-1.47,6.466,6.466,0,0,0-2.8-.641,6.533,6.533,0,1,0,6.533,6.533V37.933H29.7v6.533a6.533,6.533,0,1,0,6.533-6.533ZM28.067,36.3V34.667H29.7V36.3Z" transform="translate(-6.833 -2)"/>
    <path id="Path_10272" data-name="Path 10272" d="M43.533,53.267a3.267,3.267,0,1,0-3.267,3.267A3.267,3.267,0,0,0,43.533,53.267Zm-4.9,0A1.633,1.633,0,1,1,40.267,54.9,1.633,1.633,0,0,1,38.633,53.267Z" transform="translate(-10.867 -10.8)"/>
    <ellipse id="Ellipse_53" data-name="Ellipse 53" cx="0.779" cy="0.779" rx="0.779" ry="0.779" transform="translate(21.579 14.805)"/>
    <path id="Path_10273" data-name="Path 10273" d="M22.267,50a3.267,3.267,0,1,0,3.267,3.267A3.267,3.267,0,0,0,22.267,50Zm0,4.9A1.633,1.633,0,1,1,23.9,53.267,1.633,1.633,0,0,1,22.267,54.9Z" transform="translate(-7.567 -10.8)"/>
    <path id="Path_10274" data-name="Path 10274" d="M57.533,21.75V19.4a2.45,2.45,0,0,0,.893-1.764l.74-14.781A.817.817,0,0,0,58.35,2a7.032,7.032,0,0,0-7.023,7.383l.408,8.256a2.45,2.45,0,0,0,.9,1.763V21.75A2.45,2.45,0,0,0,51,24.05V46.917a4.083,4.083,0,1,0,8.167,0v-9.8a.817.817,0,0,0-1.633,0v9.8a2.45,2.45,0,0,1-4.9,0V34.667H58.35a.817.817,0,0,0,.817-.817v-9.8a2.45,2.45,0,0,0-1.633-2.3Zm-4.9,6.383h4.9v1.633h-4.9ZM54.439,5.311A5.338,5.338,0,0,1,57.488,3.7L56.8,17.557a.806.806,0,0,1-.45.682.817.817,0,0,0-.446.728V21.6H54.267V18.966a.817.817,0,0,0-.446-.728.806.806,0,0,1-.45-.681L52.962,9.3A5.352,5.352,0,0,1,54.439,5.311ZM53.45,23.233h3.267a.817.817,0,0,1,.817.817V26.5h-4.9V24.05A.817.817,0,0,1,53.45,23.233Zm-.817,9.8V31.4h4.9v1.633Z" transform="translate(-13.433 -2)"/>
    <path id="Path_10275" data-name="Path 10275" d="M9.083,18.449V11.662a16.379,16.379,0,0,1,2.333-8.424.817.817,0,1,0-1.4-.842A18.008,18.008,0,0,0,7.45,11.662v6.787A3.267,3.267,0,0,0,5,21.6V47.733a3.267,3.267,0,1,0,6.533,0V33.85a.817.817,0,1,0-1.633,0V47.733a1.633,1.633,0,0,1-3.267,0V31.4h4.083a.817.817,0,0,0,.817-.817V21.6A3.267,3.267,0,0,0,9.083,18.449Zm-2.45,6.417H9.9V26.5H6.633Zm1.633-4.9A1.633,1.633,0,0,1,9.9,21.6v1.633H6.633V21.6A1.633,1.633,0,0,1,8.267,19.967Zm-1.633,9.8V28.133H9.9v1.633Z" transform="translate(-5 -2)"/>
  </g>
</svg>
