<svg xmlns="http://www.w3.org/2000/svg" width="31.925" height="22.905" viewBox="0 0 31.925 22.905">
    <g>
        <g>
            <path d="M31.306 60.209H29.2v-.718a.619.619 0 0 0-.446-.619 17.431 17.431 0 0 0-4.462-.569 11.508 11.508 0 0 0-8.339 3.097 11.387 11.387 0 0 0-8.342-3.1 17.431 17.431 0 0 0-4.462.569.619.619 0 0 0-.446.619v.712H.619a.619.619 0 0 0-.619.622v19.765a.617.617 0 0 0 .922.538 21.817 21.817 0 0 1 14.889-1.238h.149a.619.619 0 0 0 .149 0c8.663-2.2 14.852 1.182 14.889 1.238a.619.619 0 0 0 .928-.532V60.828a.619.619 0 0 0-.62-.619zM1.238 79.6V61.447h1.479v15.52a.619.619 0 0 0 .712.619 27.081 27.081 0 0 1 3.871-.31 16.052 16.052 0 0 1 5.285.8A22.749 22.749 0 0 0 1.238 79.6zM7.3 76.045a27.227 27.227 0 0 0-3.366.217V59.98a17.068 17.068 0 0 1 3.67-.408 10.1 10.1 0 0 1 7.718 3.028l.019 15.415c-1.288-.838-3.8-1.97-8.041-1.97zM16.578 62.6a10.2 10.2 0 0 1 7.722-3.028 17.143 17.143 0 0 1 3.67.408v16.281a27.221 27.221 0 0 0-3.348-.223 14.586 14.586 0 0 0-8.045 1.974zm14.1 17a22.754 22.754 0 0 0-11.368-1.528 16.09 16.09 0 0 1 5.309-.8 27.073 27.073 0 0 1 3.892.3.619.619 0 0 0 .712-.619V61.447h1.479z" transform="translate(0 -58.303) translate(0 58.303) translate(0 -58.303)"/>
        </g>
    </g>
</svg>
