<svg id="bridal" xmlns="http://www.w3.org/2000/svg" width="48.946" height="48.946" viewBox="0 0 48.946 48.946">
  <path id="Path_10186" data-name="Path 10186" d="M54,42h1.579v1.579H54Z" transform="translate(-12.159 -9.632)"/>
  <path id="Path_10187" data-name="Path 10187" d="M49.946,10.473A6.329,6.329,0,0,0,42.5,4.258a7.1,7.1,0,0,0-11.979.054,3.937,3.937,0,0,0-4.243,1.42A19.285,19.285,0,0,0,18.66,4.158H17.495a28.457,28.457,0,0,0-4.669.387A15.207,15.207,0,0,0,1.758,12.719,7.168,7.168,0,0,0,4.881,22.3l-.523,6.266a8.463,8.463,0,0,1-1.388,3.98,2.331,2.331,0,0,0,1.2,3.505l.9.3.805,3.219a7.449,7.449,0,0,0,7.226,5.641A20.462,20.462,0,0,0,19,44.345l.089-.027a10.272,10.272,0,0,1-1.374,4.4l-.818,1.228H35.632l-.818-1.228A18.376,18.376,0,0,1,31.793,39.8c.689-1.941,1.982-2.8,3.611-3.886a16.208,16.208,0,0,0,4.28-3.736v2.909a2.344,2.344,0,0,0-1.09,3.648,3.158,3.158,0,1,0,3.759,0,2.344,2.344,0,0,0-1.09-3.648V21.526a3.125,3.125,0,0,0,1.579-.439v10.7H44.42V23.034a4.732,4.732,0,0,0,3-7.507A6.3,6.3,0,0,0,49.946,10.473ZM18.66,5.737A17.742,17.742,0,0,1,31.4,11.159a9.006,9.006,0,0,0-.223.894H26.292A16.374,16.374,0,0,1,13.6,6.026a26.883,26.883,0,0,1,3.891-.29Zm23.2,9.533a2.991,2.991,0,0,0-1.691.148,5.075,5.075,0,0,0,.306-1.787c0-2.664-2.493-5.189-2.6-5.295l-.558-.558-.558.558c-.107.106-2.6,2.63-2.6,5.295a4.6,4.6,0,0,0,.993,3,2.325,2.325,0,0,0,.387,2.5c-.046.082-.091.168-.134.259a6.952,6.952,0,0,1-2.825-5.754A7.825,7.825,0,0,1,33.671,9.85,11.257,11.257,0,0,1,36.7,6.414l.614-.471.614.472a11.263,11.263,0,0,1,3.03,3.435,7.825,7.825,0,0,1,1.093,3.781,6.99,6.99,0,0,1-.194,1.639ZM31.733,23.894H27.841V20.975a5.695,5.695,0,0,1,3.413-5.238,9.6,9.6,0,0,0,.489,1.5,4.151,4.151,0,0,0-2.323,3.736v1.34h2.312a4.7,4.7,0,0,0,3.238-1.286c-.014.159-.024.324-.024.5a5.023,5.023,0,0,0,.2,1.344,6.238,6.238,0,0,1-3.413,1.024Zm-5.44-10.263H31c0,.159.006.321.015.484a7.447,7.447,0,0,0-1.936,1.095H26.292A19.5,19.5,0,0,1,10.272,6.9a13.457,13.457,0,0,1,1.6-.53,17.946,17.946,0,0,0,14.418,7.264Zm6.183,5a7.328,7.328,0,0,0,1.2,1.419,3.127,3.127,0,0,1-1.943.686H31.01a2.591,2.591,0,0,1,1.465-2.1Zm3.26-5a6.368,6.368,0,0,1,1.579-3.538,6.368,6.368,0,0,1,1.579,3.538,3.131,3.131,0,0,1-.521,1.839,2.275,2.275,0,0,0-2.116,0A3.138,3.138,0,0,1,35.736,13.631Zm.789,3.947a.789.789,0,1,1,.789.789A.79.79,0,0,1,36.525,17.578Zm-3.78,30.789H19.69a13.973,13.973,0,0,0,1.023-4.537l3.407-1.022L23.668,41.3l-5.124,1.537a18.9,18.9,0,0,1-5.435.8,5.855,5.855,0,0,1-5.2-3.158H9.821a6.222,6.222,0,0,0,4.37-1.81l-1.116-1.116A4.636,4.636,0,0,1,9.82,38.894H7.339L6.4,35.124l-1.726-.576a.753.753,0,0,1-.388-1.131,10.024,10.024,0,0,0,1.647-4.723l.485-5.816a7.191,7.191,0,0,0,1.76.227h.517a12.759,12.759,0,0,0,2.1-.174,5.264,5.264,0,0,0,2.778-1.405h2.345A5.538,5.538,0,0,1,21.244,25.6L22.7,30.941l2.514-2.514a2,2,0,0,1,3.416,1.415,5.77,5.77,0,0,1-1.34,3.711,3.108,3.108,0,0,0-1.028-.186,3.158,3.158,0,0,0,0,6.316,3.129,3.129,0,0,0,2-.736,8.9,8.9,0,0,0,1.968,1.269,19.823,19.823,0,0,0,2.513,8.15Zm-4.9-11.842a1.579,1.579,0,1,1-1.579-1.579A1.58,1.58,0,0,1,27.841,36.525ZM34.529,34.6a9.578,9.578,0,0,0-3.957,4.024A8.4,8.4,0,0,1,29.2,37.67a3.092,3.092,0,0,0-.59-3.238,7.337,7.337,0,0,0,1.6-4.589A3.58,3.58,0,0,0,24.1,27.311l-.589.589-.741-2.717a7.122,7.122,0,0,0-6.855-5.236H14.7a5.266,5.266,0,0,0,.512-2.233,4.021,4.021,0,0,0-3.159-4.006,3.951,3.951,0,0,0-4.735,3.87H8.895a2.373,2.373,0,0,1,2.855-2.321,2.475,2.475,0,0,1,1.882,2.457,3.7,3.7,0,0,1-3.1,3.66,11.275,11.275,0,0,1-1.838.152H8.176a5.6,5.6,0,0,1-5.006-8.1A13.611,13.611,0,0,1,8.827,7.58a21.078,21.078,0,0,0,17.466,9.209h1.286c-.026.038-.056.073-.082.111a7.324,7.324,0,0,0-1.234,4.075v4.5h5.47a8.133,8.133,0,0,0,1-.069q.16.336.344.671a12.832,12.832,0,0,0,3.448,3.92l1.577,1.21.73-.561a14.045,14.045,0,0,1-4.306,3.96Zm5.944,8.236a1.579,1.579,0,1,1,1.579-1.579A1.58,1.58,0,0,1,40.473,42.841Zm-.789-5.526a.789.789,0,1,1,.789.789A.79.79,0,0,1,39.683,37.315Zm0-9.4a12.573,12.573,0,0,1-.965.827l-.614.472-.614-.472a11.245,11.245,0,0,1-3.03-3.435c-.05-.09-.084-.18-.13-.27a7.783,7.783,0,0,0,1.425-.669,11.382,11.382,0,0,0,1.792,2.453l.557.558.558-.558a11.055,11.055,0,0,0,1.021-1.227Zm0-6.39A6.368,6.368,0,0,1,38.1,25.064a6.368,6.368,0,0,1-1.579-3.538,3.247,3.247,0,0,1,.388-1.619,2.4,2.4,0,0,0,.4.04,2.333,2.333,0,0,0,1.08-.273,3.158,3.158,0,0,0,1.288,1.412Zm1.579-1.579a1.579,1.579,0,1,1,1.579-1.579A1.58,1.58,0,0,1,41.262,19.947Zm4.567-5.277-1.029.54.882.757a3.149,3.149,0,0,1-1.262,5.447V18.368A3.137,3.137,0,0,0,43.3,15.979a8.472,8.472,0,0,0,.327-2.348,9.383,9.383,0,0,0-1.292-4.55,12.841,12.841,0,0,0-3.448-3.92l-1.577-1.21-1.577,1.21a12.841,12.841,0,0,0-3.448,3.92c-.091.163-.158.326-.239.489A19.284,19.284,0,0,0,27.739,6.44a2.349,2.349,0,0,1,1.682-.7A2.293,2.293,0,0,1,30.5,6l.716.378.359-.725a5.523,5.523,0,0,1,9.837-.127l.3.575.622-.184a4.582,4.582,0,0,1,1.3-.181,4.737,4.737,0,0,1,2.2,8.933Z" transform="translate(-1 -1)"/>
  <path id="Path_10188" data-name="Path 10188" d="M10.409,34.293,9.293,35.409a6.224,6.224,0,0,0,4.37,1.81h2.5V35.641h-2.5A4.633,4.633,0,0,1,10.409,34.293Z" transform="translate(-2.746 -8.01)"/>
</svg>
