<svg id="business_economics" data-name="business &amp; economics" xmlns="http://www.w3.org/2000/svg" width="49" height="49" viewBox="0 0 49 49">
  <path id="Path_10293" data-name="Path 10293" d="M64.183,248H57.65a.817.817,0,0,0-.817.817v7.35H51.117a.817.817,0,0,0-.817.817V262.7H44.583a.817.817,0,0,0-.817.817v7.35H42.133V262.7c0-.459-.222-1.318-1.709-1.913a9.751,9.751,0,0,0-6.381,0l-.076.032v-2.2c0-.459-.222-1.318-1.709-1.913a8.862,8.862,0,0,0-3.191-.537,8.862,8.862,0,0,0-3.191.537l-.076.032V250.45c0-.459-.222-1.318-1.709-1.913A8.861,8.861,0,0,0,20.9,248a8.862,8.862,0,0,0-3.191.537c-1.487.595-1.709,1.454-1.709,1.913v20.417c0,.459.222,1.318,1.709,1.913a8.861,8.861,0,0,0,3.191.537,8.861,8.861,0,0,0,3.191-.537,3.933,3.933,0,0,0,.893-.484,3.933,3.933,0,0,0,.893.484,8.861,8.861,0,0,0,3.191.537,8.861,8.861,0,0,0,3.191-.537,3.933,3.933,0,0,0,.893-.484,3.933,3.933,0,0,0,.893.484,9.75,9.75,0,0,0,6.381,0A4.444,4.444,0,0,0,41,272.5H64.183a.817.817,0,0,0,.817-.817V248.817A.817.817,0,0,0,64.183,248Zm-46.55,16.581.076.032a8.86,8.86,0,0,0,3.191.537,8.862,8.862,0,0,0,3.191-.537l.076-.032v2.171c-.142.253-1.272.848-3.267.848s-3.125-.595-3.267-.848Zm0-4.083.076.032a8.861,8.861,0,0,0,3.191.537,8.861,8.861,0,0,0,3.191-.537l.076-.032v2.171c-.142.253-1.272.848-3.267.848s-3.125-.595-3.267-.848Zm0-4.083.076.032a8.862,8.862,0,0,0,3.191.537,8.862,8.862,0,0,0,3.191-.537l.076-.032v2.171c-.142.253-1.272.848-3.267.848s-3.125-.595-3.267-.848Zm0-4.083.076.032a8.86,8.86,0,0,0,3.191.537,8.862,8.862,0,0,0,3.191-.537l.076-.032V254.5c-.142.253-1.272.848-3.267.848s-3.125-.595-3.267-.848Zm11.433,11.185c-1.995,0-3.125-.595-3.267-.848V260.5l.076.032a8.861,8.861,0,0,0,3.191.537,8.861,8.861,0,0,0,3.191-.537l.076-.032v2.171C32.191,262.922,31.062,263.517,29.067,263.517ZM25.8,264.581l.076.032a8.862,8.862,0,0,0,3.191.537,8.862,8.862,0,0,0,3.191-.537l.076-.032v2.171c-.142.253-1.272.848-3.267.848s-3.125-.595-3.267-.848Zm8.167,0,.076.032a9.751,9.751,0,0,0,6.381,0l.076-.032v2.171c-.142.253-1.272.848-3.267.848s-3.125-.595-3.267-.848Zm3.267-2.7a4.965,4.965,0,0,1,3.245.818,5,5,0,0,1-3.245.816,5,5,0,0,1-3.245-.816A4.965,4.965,0,0,1,37.233,261.883ZM29.067,257.8a4.966,4.966,0,0,1,3.245.818,5,5,0,0,1-3.245.816,4.987,4.987,0,0,1-3.246-.817A4.986,4.986,0,0,1,29.067,257.8ZM20.9,249.633a4.965,4.965,0,0,1,3.245.818,5,5,0,0,1-3.245.815,5,5,0,0,1-3.245-.815A4.965,4.965,0,0,1,20.9,249.633Zm0,22.05c-1.991,0-3.122-.593-3.267-.846v-2.172l.076.032a8.861,8.861,0,0,0,3.191.537,8.861,8.861,0,0,0,3.191-.537l.076-.032v2.172C24.022,271.09,22.891,271.683,20.9,271.683Zm8.167,0c-1.995,0-3.125-.595-3.267-.848v-2.171l.076.032a8.861,8.861,0,0,0,3.191.537,8.861,8.861,0,0,0,3.191-.537l.076-.032v2.172C32.188,271.09,31.058,271.683,29.067,271.683Zm8.167,0c-1.991,0-3.122-.593-3.267-.846v-2.172l.076.032a9.751,9.751,0,0,0,6.381,0l.076-.032v2.172C40.355,271.09,39.225,271.683,37.233,271.683Zm8.167-7.35h4.9v6.533H45.4Zm6.533-6.533h4.9v13.067h-4.9Zm6.533,13.067V249.633h4.9v21.233Z" transform="translate(-16 -224.317)"/>
  <rect id="Rectangle_283" data-name="Rectangle 283" width="1.195" height="1.195" transform="translate(21.549 32.557)"/>
  <path id="Path_10294" data-name="Path 10294" d="M256,177.967V179.6h4.083a.817.817,0,0,0,.577-.239l16.573-16.572v1.3h1.633v-3.267a.817.817,0,0,0-.817-.817h-3.267v1.633h1.3l-16.333,16.333Z" transform="translate(-231.5 -145.3)"/>
  <path id="Path_10295" data-name="Path 10295" d="M72.884,21.188A19.6,19.6,0,0,0,40,35.6a19.853,19.853,0,0,0,.165,2.555l1.62-.211a18.213,18.213,0,0,1-.152-2.345c0-.274.007-.546.019-.817h3.656l2.205,2.94a.817.817,0,0,0,.653.327h6.071L56.071,41.1l-2.677,2.008a.817.817,0,0,0-.327.653v2.45H54.7V44.175l2.94-2.2a.817.817,0,0,0,.21-1.074L55.4,36.813a.817.817,0,0,0-.7-.4H48.575l-2.205-2.94a.817.817,0,0,0-.653-.327H41.8A17.881,17.881,0,0,1,45.4,24.6l2.765,1.659v2.8a.817.817,0,0,0,.817.817h3.745l3.028,3.027a.817.817,0,0,0,1.03.1l4.9-3.267a.817.817,0,0,0,.364-.679V24.5l5.176-5.176a17.925,17.925,0,0,1,3.56,2.211l-4.359,3.633a.817.817,0,0,0-.235.931l1.463,3.657-1.93,2.573H62.05a.817.817,0,0,0-.49.163l-3.267,2.45a.817.817,0,0,0-.19,1.106l3.267,4.9a.817.817,0,0,0,.68.364H64.5v4.9h1.633V40.5a.817.817,0,0,0-.817-.817h-2.83l-2.6-3.893,2.431-1.823h3.811a.817.817,0,0,0,.653-.327l2.45-3.267a.817.817,0,0,0,.1-.793l-1.413-3.533,4.1-3.419A17.9,17.9,0,0,1,77.5,34.036l1.627-.14A19.536,19.536,0,0,0,72.884,21.188Zm-12.228,2.4a.817.817,0,0,0-.239.577v4.463l-3.979,2.653-2.793-2.793a.817.817,0,0,0-.577-.239H49.8V25.8a.817.817,0,0,0-.4-.7l-2.927-1.756a17.959,17.959,0,0,1,19.111-4.686Z" transform="translate(-37.55 -16)"/>
</svg>
