<svg id="Business_administration" data-name="Business administration" xmlns="http://www.w3.org/2000/svg" width="49.02" height="48.999" viewBox="0 0 49.02 48.999">
  <path id="businessman" d="M48.438,31.049H43.695V28.677a2.375,2.375,0,0,0-2.372-2.372H33.416a2.361,2.361,0,0,0-1.726.755l-8.552-1.425V23.655a7.9,7.9,0,0,0,3.953-6.837h.791a2.372,2.372,0,1,0,0-4.744H27.5l.433-1a6.385,6.385,0,0,0-3.217-8.341l-2.207-1a8.106,8.106,0,0,0-8.089.878l-1.247.935,0,0A4.919,4.919,0,0,0,10,10.5l.785,1.57h-.3a2.372,2.372,0,1,0,0,4.744h.791a7.9,7.9,0,0,0,3.953,6.837v1.981l-9.607,1.6A5.517,5.517,0,0,0,1,32.7V49.234a.79.79,0,0,0,.791.791H48.438a1.583,1.583,0,0,0,1.581-1.581V32.631A1.583,1.583,0,0,0,48.438,31.049Zm-6.325-2.372v2.372H37.107a5.54,5.54,0,0,0-2.561-3.163h6.777A.791.791,0,0,1,42.113,28.677Zm-9.488.154a3.949,3.949,0,0,1,2.791,2.218H32.626ZM28.672,14.446a.792.792,0,0,1-.791.791h-.791V13.655h.791A.792.792,0,0,1,28.672,14.446ZM11.542,6.582a3.362,3.362,0,0,1,2.867-1.623,3.7,3.7,0,0,1,3.079,1.647l.248.372L19.052,6.1,18.8,5.729a5.266,5.266,0,0,0-2.982-2.154,6.5,6.5,0,0,1,6.035-.414l2.207,1a4.8,4.8,0,0,1,2.421,6.276l-.053.123-1-2.008a.791.791,0,0,0-1.182-.279l-1.265.949a6.324,6.324,0,0,1-7.59,0l-1.265-.949a.791.791,0,0,0-1.182.279L11.871,10.7l-.452-.9a3.328,3.328,0,0,1,.123-3.216Zm-1.055,8.655a.791.791,0,1,1,0-1.581h.791v1.581Zm2.372,1.581V12.261l1.074-2.148.508.38a7.906,7.906,0,0,0,9.488,0l.508-.38,1.074,2.148v4.557a6.325,6.325,0,0,1-12.65,0Zm6.325,7.906a7.87,7.87,0,0,0,2.372-.364v1.618L19.185,28.35l-2.372-2.372V24.36a7.87,7.87,0,0,0,2.372.364Zm-.255,8.7h.511l1.29,3.226-1.546,6.7-1.546-6.7Zm1.754-3.279-1.131,1.7h-.735l-1.132-1.7.264-.791.677.677a.791.791,0,0,0,1.118,0l.677-.677Zm-10.2,18.3V35H8.906V48.443H2.581V32.7a3.942,3.942,0,0,1,3.3-3.9l9.866-1.644.948.948-.636,1.909a.788.788,0,0,0,.093.689l1.35,2.026-1.427,3.567a.794.794,0,0,0-.036.471L18.414,47.04a.791.791,0,0,0,1.542,0l2.372-10.278a.8.8,0,0,0-.036-.471l-1.427-3.567,1.35-2.026a.793.793,0,0,0,.093-.689L21.67,28.1l.948-.948,8.438,1.406c0,.04-.012.078-.012.119v2.372H26.3a1.583,1.583,0,0,0-1.581,1.581V48.443Zm16.6,0H26.3V46.862H48.439v1.581Zm21.348-3.163H26.3V38.868a5.513,5.513,0,0,0,3.953,1.669H35v.791a2.372,2.372,0,0,0,4.744,0v-.791h4.744a5.518,5.518,0,0,0,3.954-1.669Zm-11.86-3.953V37.374H38.16v3.953a.791.791,0,0,1-1.581,0ZM48.438,35a3.958,3.958,0,0,1-3.953,3.953H39.741V36.584a.79.79,0,0,0-.791-.791H35.788a.79.79,0,0,0-.791.791v2.372H30.254A3.958,3.958,0,0,1,26.3,35V32.631H48.438Z" transform="translate(-1 -1.025)"/>
</svg>
