<svg xmlns="http://www.w3.org/2000/svg" width="43.434" height="48.88" viewBox="0 0 43.434 48.88">
  <g id="business_HRM" data-name="business HRM" transform="translate(-28.524)">
    <g id="XMLID_518_" transform="translate(28.524)">
      <path id="XMLID_1270_" d="M68.6,30.227V18.589a4.391,4.391,0,1,0-4.293-7.2L54.468,5.708a4.392,4.392,0,1,0-8.379,0L36.2,11.415a4.39,4.39,0,1,0-4.244,7.191v1.467a.955.955,0,0,0,1.909,0V18.606a4.393,4.393,0,0,0,2.286-1.326L41.1,20.175a10.106,10.106,0,0,0-.008,8.512l-4.927,2.86a4.394,4.394,0,0,0-2.3-1.337V28.736a.955.955,0,0,0-1.909,0V30.21a4.391,4.391,0,1,0,4.207,7.234l9.921,5.728a4.392,4.392,0,1,0,8.379,0l9.873-5.7A4.39,4.39,0,1,0,68.6,30.227ZM64.341,31.52l-4.879-2.832a10.106,10.106,0,0,0-.008-8.512l4.9-2.867a4.39,4.39,0,0,0,2.334,1.315v11.57A4.392,4.392,0,0,0,64.341,31.52ZM50.278,32.65A8.167,8.167,0,0,1,45.3,30.96a2.987,2.987,0,0,1,2.959-2.606H52.3A2.987,2.987,0,0,1,55.26,30.96a8.167,8.167,0,0,1-4.982,1.69ZM52.3,24.419a2.026,2.026,0,1,1-4.052,0v-.513a2.026,2.026,0,1,1,4.052,0Zm4.5,5a4.914,4.914,0,0,0-3.253-2.812,3.912,3.912,0,0,0,.666-2.187v-.513a3.935,3.935,0,1,0-7.87,0v.513a3.912,3.912,0,0,0,.666,2.187,4.914,4.914,0,0,0-3.253,2.812,8.21,8.21,0,1,1,13.046,0Zm10.765-17.58a2.482,2.482,0,1,1-2.482,2.482A2.485,2.485,0,0,1,67.566,11.838Zm-4.2,1.21a4.384,4.384,0,0,0,.022,2.613l-4.9,2.867a10.122,10.122,0,0,0-7.254-4.163V8.677A4.392,4.392,0,0,0,53.511,7.36ZM50.278,1.909A2.482,2.482,0,1,1,47.8,4.392,2.485,2.485,0,0,1,50.278,1.909ZM32.916,16.8A2.482,2.482,0,1,1,35.4,14.32,2.485,2.485,0,0,1,32.916,16.8Zm4.194-1.177a4.387,4.387,0,0,0,.02-2.54L47.045,7.36a4.392,4.392,0,0,0,2.278,1.317v5.688a10.122,10.122,0,0,0-7.254,4.163ZM32.916,36.978A2.482,2.482,0,1,1,35.4,34.5,2.485,2.485,0,0,1,32.916,36.978Zm4.2-1.193a4.393,4.393,0,0,0,0-2.58l4.944-2.871a10.122,10.122,0,0,0,7.265,4.179V40.2a4.392,4.392,0,0,0-2.278,1.317ZM50.278,46.971a2.482,2.482,0,1,1,2.482-2.482A2.485,2.485,0,0,1,50.278,46.971Zm3.233-5.451A4.392,4.392,0,0,0,51.233,40.2V34.514A10.122,10.122,0,0,0,58.5,30.335l4.882,2.834a4.389,4.389,0,0,0,0,2.652Zm14.055-4.541A2.482,2.482,0,1,1,70.048,34.5,2.485,2.485,0,0,1,67.566,36.978Z" transform="translate(-28.524)"/>
      <path id="XMLID_1286_" d="M65.144,248.039a.955.955,0,1,0-.675-.28A.962.962,0,0,0,65.144,248.039Z" transform="translate(-60.784 -222.632)"/>
    </g>
  </g>
</svg>
