<svg xmlns="http://www.w3.org/2000/svg" width="56.568" height="49" viewBox="0 0 56.568 49">
    <g>
        <path d="M65.79 203h-.023a3.062 3.062 0 0 0-3.057 3.087 3.114 3.114 0 0 0 3.079 3.1h.023a3.625 3.625 0 0 0 2.171-.946A3.077 3.077 0 0 0 65.79 203zm.01 4.525a1.481 1.481 0 0 1-1.047-.425 1.431 1.431 0 0 1-.44-1.025 1.461 1.461 0 0 1 1.465-1.472h.011a1.45 1.45 0 0 1 1.476 1.443 1.472 1.472 0 0 1-1.466 1.479z" transform="translate(-8.997 -41) translate(-47.562 -143.544)"/>
        <path d="M61.448 58.362a.8.8 0 0 0 .006-.1 5.325 5.325 0 0 0-1.324-3.508 4.81 4.81 0 0 0-.73-.669l2.8-.022a.8.8 0 0 0 .8-.847 8.082 8.082 0 0 0-.406-1.964 3.739 3.739 0 0 0-3.727-2.272h-.04c-1.087 0-3.056.018-3.957.021l-1.8-3.257C51.809 43.537 49.982 41 46.979 41h-.039l-21.88.171c-2.466.018-4.642 1.738-6.129 4.835L17.1 49.3c-.9 0-2.891.017-3.992.025a3.749 3.749 0 0 0-3.733 2.324A8.072 8.072 0 0 0 9 53.612a.808.808 0 0 0 .8.84h.007l2.753-.028a5.218 5.218 0 0 0-1.942 4.209.776.776 0 0 0 .007.1l1.359 10.091a3 3 0 0 0 2.511 2.87l.024 3.231a1.891 1.891 0 0 0 1.9 1.872h.014l3.337-.021a1.9 1.9 0 0 0 1.887-1.9l-.024-3.187 9.629-.07q-.048.64-.049 1.287a16.955 16.955 0 0 0 3.246 9.991.8.8 0 0 0 .124.169A17.186 17.186 0 0 0 65.565 72.9a16.934 16.934 0 0 0-4.494-11.532zm-2.611-7.786h.027a2.222 2.222 0 0 1 2.211 1.191 6.39 6.39 0 0 1 .195.7l-4.46.035-1.057-1.909c.983 0 2.277-.018 3.086-.018zm-38.493-3.812l.023-.044c.7-1.465 2.242-3.935 4.7-3.953l21.88-.171h.028c1.721 0 3.126 1.187 4.689 3.929l3.7 6.683-3.918.031a5.36 5.36 0 0 0-10.635.08l-24.218.181zm29.489 6.49l-7.4.054a3.716 3.716 0 0 1 3.675-3.074h.029a3.718 3.718 0 0 1 2.635 1.053 3.645 3.645 0 0 1 1.062 1.966zm-39.118-.415a6.358 6.358 0 0 1 .183-.7 2.231 2.231 0 0 1 2.22-1.221l3.088-.019-1.06 1.9zm9.042 22.343l-3.337.025a.309.309 0 0 1-.211-.085.294.294 0 0 1-.089-.209l-.02-3.189 3.932-.029.024 3.188a.3.3 0 0 1-.298.299zm11.7-5.167l-16.465.122a1.414 1.414 0 0 1-.988-.4 1.377 1.377 0 0 1-.418-.978.794.794 0 0 0-.007-.1L12.22 58.57a3.262 3.262 0 0 1 2.88-3.462.828.828 0 0 0 .131.028h.006l41.463-.324c.006 0 .011-.018.018-.018h.027A2.905 2.905 0 0 1 58.93 55.8a3.785 3.785 0 0 1 .92 2.413l-.22 1.753a17.219 17.219 0 0 0-24.7 2.3l-.013-1.8a.786.786 0 0 0-.8-.775h-.006a.784.784 0 0 0-.8.787l.015 2.079a.791.791 0 0 0 .8.781h.006a16.987 16.987 0 0 0-2.683 6.67zm4.773 12.561l9.7-9.654a.8.8 0 0 0 .162-.9 6.4 6.4 0 0 1 6.541-9l-1.808 1.788a.8.8 0 0 0-.224.705l.688 3.878a.8.8 0 0 0 .632.643l3.769.752a.8.8 0 0 0 .724-.218l1.9-1.887a6.334 6.334 0 0 1-1.844 5.208 6.466 6.466 0 0 1-7.2 1.3.8.8 0 0 0-.9.162L38.669 85a15.677 15.677 0 0 1-2.439-2.428zM63.962 72.9a15.58 15.58 0 0 1-23.975 13.049l9.135-9.094a8.048 8.048 0 0 0 8.378-1.738 7.961 7.961 0 0 0 2.034-8.277.8.8 0 0 0-1.327-.311l-2.623 2.611-2.811-.561-.52-2.931 2.547-2.516a.8.8 0 0 0-.309-1.324A8 8 0 0 0 44.416 72.17l-9.135 9.095a15.446 15.446 0 0 1 .878-17.957 15.582 15.582 0 0 1 27.8 9.593z" transform="translate(-8.997 -41)"/>
        <path d="M188.22 205h-.006a.8.8 0 0 0-.8.805l.015 2.081a.787.787 0 0 0 .8.778h.006a.785.785 0 0 0 .8-.791l-.015-2.088a.792.792 0 0 0-.8-.785z" transform="translate(-8.997 -41) translate(-157.991 -145.31)"/>
        <path d="M154.265 205h-.006a.81.81 0 0 0-.8.819l.016 2.131a.83.83 0 0 0 .8.828h.006a.823.823 0 0 0 .8-.834l-.016-2.124a.823.823 0 0 0-.8-.82z" transform="translate(-8.997 -41) translate(-127.924 -145.311)"/>
    </g>
</svg>
