<svg xmlns="http://www.w3.org/2000/svg" width="39.313" height="35.32" viewBox="0 0 39.313 35.32">
    <g>
        <path d="M246.768 100a.768.768 0 1 0 .768.768.768.768 0 0 0-.768-.768zm0 0" transform="translate(-227.112 -92.322)"/>
        <path d="M80.768 261.536a.768.768 0 1 0-.768-.768.768.768 0 0 0 .768.768zm0 0" transform="translate(-73.857 -240.037)"/>
        <path d="M25.8 0c-6.914 0-12.587 4.766-13.026 10.769C6.191 11.1 0 15.846 0 22.266a10.729 10.729 0 0 0 2.995 7.343 4.67 4.67 0 0 1-1.234 4.4.768.768 0 0 0 .539 1.31 8.47 8.47 0 0 0 5.868-2.372 17.5 17.5 0 0 0 5.342.836c6.912 0 12.584-4.765 13.024-10.767a17.266 17.266 0 0 0 4.6-.819 8.47 8.47 0 0 0 5.868 2.372.768.768 0 0 0 .543-1.311 4.67 4.67 0 0 1-1.234-4.4 10.729 10.729 0 0 0 2.995-7.343C39.313 4.846 32.645 0 25.8 0zM13.514 32.248a15.522 15.522 0 0 1-5.26-.906.768.768 0 0 0-.851.195 6.928 6.928 0 0 1-3.446 2.045 6.21 6.21 0 0 0 .468-4.57.766.766 0 0 0-.188-.325 9.227 9.227 0 0 1-2.7-6.421c0-5.411 5.485-9.982 11.978-9.982 6.131 0 11.517 4.264 11.517 9.982 0 5.5-5.167 9.982-11.517 9.982zm21.562-14.31a.77.77 0 0 0-.188.325 6.21 6.21 0 0 0 .468 4.57 6.926 6.926 0 0 1-3.446-2.045.768.768 0 0 0-.851-.195 15.126 15.126 0 0 1-4.524.887 10.99 10.99 0 0 0-4.149-7.659H32.4a.768.768 0 0 0 0-1.536H20.028a14.32 14.32 0 0 0-5.714-1.513c.441-5.157 5.424-9.236 11.485-9.236 6.493 0 11.978 4.571 11.978 9.982a9.227 9.227 0 0 1-2.7 6.421zm0 0"/>
        <path d="M130.442 260h-9.675a.768.768 0 0 0 0 1.536h9.675a.768.768 0 0 0 0-1.536zm0 0" transform="translate(-110.786 -240.037)"/>
        <path d="M93.514 320H80.768a.768.768 0 0 0 0 1.536h12.746a.768.768 0 0 0 0-1.536zm0 0" transform="translate(-73.857 -295.43)"/>
        <path d="M296.442 100h-9.675a.768.768 0 1 0 0 1.536h9.675a.768.768 0 0 0 0-1.536zm0 0" transform="translate(-264.04 -92.322)"/>
    </g>
</svg>
