<svg id="computer_science" data-name="computer science" xmlns="http://www.w3.org/2000/svg" width="60.76" height="49" viewBox="0 0 60.76 49">
  <path id="Path_10337" data-name="Path 10337" d="M64.84,56H11.92A3.924,3.924,0,0,0,8,59.92V93.24a3.924,3.924,0,0,0,3.92,3.92H31.052l-1.176,2.94H26.62a.98.98,0,0,0-.98.98v1.96H17.8a.98.98,0,1,0,0,1.96H58.96a.98.98,0,1,0,0-1.96H51.12v-1.96a.98.98,0,0,0-.98-.98H46.884l-1.176-2.94H64.84a3.924,3.924,0,0,0,3.92-3.92V59.92A3.924,3.924,0,0,0,64.84,56ZM49.16,102.06v.98H27.6v-.98ZM31.988,100.1l1.176-2.94H43.6l1.176,2.94ZM66.8,93.24a1.963,1.963,0,0,1-1.96,1.96H11.92a1.963,1.963,0,0,1-1.96-1.96v-.98H66.8Zm0-2.94H9.96V59.92a1.963,1.963,0,0,1,1.96-1.96H64.84a1.963,1.963,0,0,1,1.96,1.96Z" transform="translate(-8 -56)"/>
  <path id="Path_10338" data-name="Path 10338" d="M128.476,210.64l4.9,2.94a.98.98,0,0,0,1.008,0l4.9-2.94a.98.98,0,0,0,.476-.84v-5.88a.98.98,0,0,0-.476-.84l-4.9-2.94a.98.98,0,0,0-1.008,0l-4.9,2.94a.98.98,0,0,0-.476.84v5.88a.98.98,0,0,0,.476.84Zm1.484-6.165,3.92-2.352,3.92,2.352v4.77l-3.92,2.352-3.92-2.352Z" transform="translate(-113.3 -182.36)"/>
  <path id="Path_10339" data-name="Path 10339" d="M249.64,213.72h-5.475l-2.255-2.255,1.374-.824a.98.98,0,0,0,.475-.84v-5.88a.98.98,0,0,0-.475-.84l-4.9-2.94a.982.982,0,0,0-1.009,0l-4.9,2.94a.98.98,0,0,0-.475.84v5.88a.98.98,0,0,0,.475.84l4.9,2.94a.982.982,0,0,0,1.009,0l1.793-1.077,2.889,2.89a.981.981,0,0,0,.693.287h5.88a.98.98,0,1,0,0-1.96Zm-7.84-4.475-1.318.791-1.909-1.91a.981.981,0,1,0-1.387,1.387l1.563,1.562-.87.522-3.92-2.352v-4.77l3.92-2.352,3.92,2.352Z" transform="translate(-204.56 -182.36)"/>
  <path id="Path_10340" data-name="Path 10340" d="M280.476,114.64l4.9,2.94a.98.98,0,0,0,1.008,0l4.9-2.94a.98.98,0,0,0,.476-.84v-5.88a.98.98,0,0,0-.476-.84l-4.9-2.94a.98.98,0,0,0-1.008,0l-4.9,2.94a.98.98,0,0,0-.476.84v5.88A.98.98,0,0,0,280.476,114.64Zm1.484-6.165,3.92-2.352,3.92,2.352v4.77l-3.92,2.352-3.92-2.352Z" transform="translate(-246.68 -98.12)"/>
  <path id="Path_10341" data-name="Path 10341" d="M128.98,81.96h4.4l2.324,3.253-1.344.806a.98.98,0,0,0-.476.84v5.88a.98.98,0,0,0,.476.84l4.9,2.94a.98.98,0,0,0,1.008,0l4.9-2.94a.98.98,0,0,0,.476-.84V86.86a.98.98,0,0,0-.476-.84l-4.9-2.94a.98.98,0,0,0-1.008,0l-1.87,1.122-2.708-3.791a.98.98,0,0,0-.8-.41h-4.9a.98.98,0,1,0,0,1.96Zm10.78,3.1,3.92,2.352v4.77l-3.92,2.352-3.92-2.352v-4.77l1-.6,1.14,1.6a.98.98,0,0,0,1.595-1.139L138.529,85.8Z" transform="translate(-113.3 -77.06)"/>
  <path id="Path_10342" data-name="Path 10342" d="M48.98,81.96h6.86a.98.98,0,1,0,0-1.96H48.98a.98.98,0,1,0,0,1.96Z" transform="translate(-43.1 -77.06)"/>
  <path id="Path_10343" data-name="Path 10343" d="M48.98,105.96h6.86a.98.98,0,1,0,0-1.96H48.98a.98.98,0,1,0,0,1.96Z" transform="translate(-43.1 -98.12)"/>
  <path id="Path_10344" data-name="Path 10344" d="M48.98,129.96h6.86a.98.98,0,1,0,0-1.96H48.98a.98.98,0,1,0,0,1.96Z" transform="translate(-43.1 -119.18)"/>
  <path id="Path_10345" data-name="Path 10345" d="M392.98,265.96h6.86a.98.98,0,1,0,0-1.96h-6.86a.98.98,0,1,0,0,1.96Z" transform="translate(-344.96 -238.52)"/>
  <path id="Path_10346" data-name="Path 10346" d="M392.98,289.96h6.86a.98.98,0,1,0,0-1.96h-6.86a.98.98,0,1,0,0,1.96Z" transform="translate(-344.96 -259.58)"/>
  <path id="Path_10347" data-name="Path 10347" d="M392.98,313.96h2.94a.98.98,0,0,0,0-1.96h-2.94a.98.98,0,1,0,0,1.96Z" transform="translate(-344.96 -280.64)"/>
  <path id="Path_10348" data-name="Path 10348" d="M441.96,312h-.98a.98.98,0,0,0,0,1.96h.98a.98.98,0,0,0,0-1.96Z" transform="translate(-387.08 -280.64)"/>
</svg>
