<svg xmlns="http://www.w3.org/2000/svg" width="50.098" height="49" viewBox="0 0 50.098 49">
    <g>
        <path d="M8.35 29.942h6.885a.879.879 0 1 0 0-1.758H8.35a6.592 6.592 0 0 1-.7-13.146.878.878 0 0 0 .721-1.209A6.146 6.146 0 0 1 18.6 7.344a.856.856 0 0 0 .738.281.876.876 0 0 0 .666-.425 10.978 10.978 0 0 1 20.426 5.6 11.024 11.024 0 0 1-.076 1.245.9.9 0 0 0 .273.705.962.962 0 0 0 .731.266c.129-.009.258-.019.39-.019a6.592 6.592 0 0 1 0 13.184H31.641a.879.879 0 1 0 0 1.758h10.107a8.35 8.35 0 0 0 .431-16.688c.006-.153.009-.3.009-.451a12.734 12.734 0 0 0-23.1-7.413A7.905 7.905 0 0 0 6.406 13.47 8.351 8.351 0 0 0 8.35 29.942zm0 0" transform="translate(0 -.059)"/>
        <path d="M22.852 137.41a.879.879 0 0 0 .879-.879V113.68h7.156a3.516 3.516 0 1 0 0-1.758h-8.035a.879.879 0 0 0-.879.879v22.852H4.394v-2.762a3.516 3.516 0 1 0-1.758 0v3.641a.879.879 0 0 0 .879.879zm11.426-26.367a1.758 1.758 0 1 1-1.758 1.757 1.76 1.76 0 0 1 1.757-1.757zM1.758 129.5a1.758 1.758 0 1 1 1.758 1.758 1.76 1.76 0 0 1-1.758-1.758zm0 0" transform="translate(0 -95.048)"/>
        <path d="M78.609 129.5a.879.879 0 0 0 0 1.758h6.153a.879.879 0 0 0 .879-.879v-10.546a.878.878 0 0 0-.2-.563l-3.85-4.62a3.479 3.479 0 0 0 .539-1.849 3.516 3.516 0 1 0-3.516 3.516 3.471 3.471 0 0 0 1.7-.457l3.575 4.29v9.35zm-1.758-16.7a1.758 1.758 0 1 1 3.247.924.872.872 0 0 0-.294.159.853.853 0 0 0-.255.4 1.751 1.751 0 0 1-2.7-1.48zm0 0" transform="translate(-65.425 -95.336)"/>
        <path d="M214 171.137h-18.456v-7.156a3.515 3.515 0 1 0-1.758 0v8.035a.879.879 0 0 0 .879.879H214a.879.879 0 0 0 0-1.758zm-21.093-10.547a1.758 1.758 0 1 1 1.758 1.758 1.759 1.759 0 0 1-1.758-1.758zm0 0" transform="translate(-166.539 -136.992)"/>
        <path d="M230.962 306.586h-6.522l-3.262-5.709a.879.879 0 0 0-.763-.443H212.5a.879.879 0 1 0 0 1.758h7.4l3.262 5.71a.879.879 0 0 0 .763.443h7.031a.879.879 0 0 0 0-1.758zm0 0" transform="translate(-184.379 -261.98)"/>
        <path d="M58.949 330.375h-2.762a3.5 3.5 0 0 0-6.782 0H28.186a.879.879 0 0 0 0 1.758h21.219a3.5 3.5 0 0 0 6.782 0h2.762a.879.879 0 1 0 0-1.758zm-6.149 2.637a1.758 1.758 0 1 1 1.758-1.758 1.76 1.76 0 0 1-1.758 1.758zm0 0" transform="translate(-23.792 -285.77)"/>
    </g>
</svg>
