<svg id="dental_engineering" data-name="dental engineering" xmlns="http://www.w3.org/2000/svg" width="49.022" height="49.021" viewBox="0 0 49.022 49.021">
  <g id="Group_412" data-name="Group 412" transform="translate(0 0)">
    <g id="Group_411" data-name="Group 411">
      <path id="Path_10168" data-name="Path 10168" d="M18.488,22.552l-2.547,1.02A1.7,1.7,0,0,1,13.8,21.245l.561-1.123a1.634,1.634,0,0,0-.306-1.887l-3.908-3.908L11.2,13.272a.817.817,0,0,0,0-1.155L8.509,9.426l.239-.239a.817.817,0,0,0,.016-1.139L1.411.259A.817.817,0,0,0,0,.819V11.441a.817.817,0,0,0,.29.624l2.451,2.072a.817.817,0,0,0,1.1-.047l.239-.242,2.691,2.691a.817.817,0,0,0,1.155,0l1.056-1.056L12.9,19.39l-.558,1.119a3.327,3.327,0,0,0,4.213,4.575L19.1,24.066ZM3.508,12.118l-.286.286L1.634,11.062V2.875l5.4,5.719-.256.256Zm3.846,2.688L5.241,12.693,7.353,10.58,9.466,12.7Z" transform="translate(0 -0.003)"/>
    </g>
  </g>
  <g id="Group_414" data-name="Group 414" transform="translate(22.877 23.694)">
    <g id="Group_413" data-name="Group 413">
      <path id="Path_10169" data-name="Path 10169" d="M249.641,232.058a.817.817,0,0,0-.891.177l-11.439,11.439a.817.817,0,0,0,0,1.155l.648.648-3.206,3.206a7.893,7.893,0,0,0-4.218-1.163c-3.6,0-6.536,2.2-6.536,4.9s2.932,4.9,6.536,4.9,6.536-2.2,6.536-4.9A4.057,4.057,0,0,0,236,249.744l3.111-3.111.648.648a.817.817,0,0,0,1.155,0l8.987-8.987a.817.817,0,0,0,.239-.578v-4.9A.817.817,0,0,0,249.641,232.058Zm-19.1,23.632c-2.657,0-4.9-1.5-4.9-3.268s2.245-3.268,4.9-3.268,4.9,1.5,4.9,3.268S233.193,255.69,230.536,255.69Zm17.975-18.313-8.17,8.17-1.3-1.3,9.466-9.466Z" transform="translate(-224 -231.996)"/>
    </g>
  </g>
  <g id="Group_416" data-name="Group 416" transform="translate(7.132 18.608)">
    <g id="Group_415" data-name="Group 415">
      <path id="Path_10170" data-name="Path 10170" d="M90.871,191.2a3.71,3.71,0,0,0-7.319,0l-2.468,14.81a2.034,2.034,0,0,1-4.021-.059l-2.115-15.51a.818.818,0,0,0-.117-.327l-.454-.727a23.013,23.013,0,0,1-2.95-7.19l-1.6.356a24.654,24.654,0,0,0,3.163,7.7l.361.578,2.092,15.336a3.667,3.667,0,0,0,7.25.108l2.468-14.81a2.075,2.075,0,0,1,4.093,0l1.64,9.838,1.611-.27Z" transform="translate(-69.832 -182.197)"/>
    </g>
  </g>
  <g id="Group_418" data-name="Group 418" transform="translate(9.198 3.267)">
    <g id="Group_417" data-name="Group 417">
      <path id="Path_10171" data-name="Path 10171" d="M113.044,31.993a10.308,10.308,0,0,0-4.06.833,9.2,9.2,0,0,1-7.215,0,10.308,10.308,0,0,0-11.706,2.561l1.212,1.1a8.669,8.669,0,0,1,9.849-2.159,10.833,10.833,0,0,0,8.5,0,8.674,8.674,0,0,1,12.09,7.973,23.04,23.04,0,0,1-3.507,12.226l-.454.727a.817.817,0,0,0-.117.327l-.668,4.9,1.619.221.645-4.728.361-.578a24.675,24.675,0,0,0,3.755-13.1A10.308,10.308,0,0,0,113.044,31.993Z" transform="translate(-90.064 -31.992)"/>
    </g>
  </g>
</svg>
