<svg id="engineering" xmlns="http://www.w3.org/2000/svg" width="48.954" height="48.954" viewBox="0 0 48.954 48.954">
  <g id="Group_460" data-name="Group 460" transform="translate(0 0)">
    <path id="Path_10248" data-name="Path 10248" d="M39.816,27.632H43.9A.816.816,0,1,0,43.9,26h-4.08a.816.816,0,1,0,0,1.632Z" transform="translate(-8.811 -6.418)"/>
    <path id="Path_10249" data-name="Path 10249" d="M50.138,24.159a.816.816,0,0,0-.816.816V51.9H7.711a4.08,4.08,0,1,1,4.08-4.08.816.816,0,1,0,1.632,0V25.791H15.87a.816.816,0,1,0,0-1.632H13.423V21.711A5.711,5.711,0,0,0,2,21.711V47.82a5.718,5.718,0,0,0,5.711,5.711H50.138a.816.816,0,0,0,.816-.816V24.975A.816.816,0,0,0,50.138,24.159ZM3.632,21.711a4.08,4.08,0,1,1,8.159,0V43.822a5.7,5.7,0,0,0-8.159,0Z" transform="translate(-2 -4.577)"/>
    <path id="Path_10250" data-name="Path 10250" d="M48.058,31.676l1.305,3.264h0l1.958,4.9a.816.816,0,0,0,1.516,0l1.958-4.9h0L56.1,31.676a.806.806,0,0,0,.051-.273c0-.011.007-.02.007-.031V17.5a.816.816,0,1,0-1.632,0V30.557H52.9V11.791h1.632v2.448a.816.816,0,1,0,1.632,0V6.08A4.08,4.08,0,0,0,48,6.08V31.373c0,.011.006.02.007.032a.805.805,0,0,0,.051.272Zm3.269,3.776h1.506l-.753,1.883Zm2.159-1.632H50.674l-.653-1.632h4.117Zm-2.222-3.264H49.632V11.791h1.632Zm-1.632-20.4V8.527h4.9v1.632Zm0-4.08a2.448,2.448,0,0,1,4.9,0V6.9h-4.9Z" transform="translate(-10.468 -2)"/>
    <path id="Path_10251" data-name="Path 10251" d="M23.077,18.811V19.2a2.433,2.433,0,0,0,0,4.6v.153A4.9,4.9,0,0,0,26.453,28.6,6.772,6.772,0,0,1,23.288,30.4l-1.244.312a4.023,4.023,0,0,0,.976,7.929h1.689a.816.816,0,1,0,0-1.632H23.02a2.391,2.391,0,0,1-.579-4.711l1.244-.311A8.4,8.4,0,0,0,28.4,28.826a4.9,4.9,0,0,0,4.468-4.874V23.8a2.433,2.433,0,0,0,0-4.6v-.395a7.32,7.32,0,0,0,1.425-9.194.816.816,0,0,0-1.406.83,5.688,5.688,0,0,1-1.346,7.35.816.816,0,0,0-.305.636v.623h-.72l.716-6.437a.816.816,0,0,0-1.069-.864l-2.19.73-2.19-.73a.816.816,0,0,0-1.069.864l.716,6.437h-.72v-.62A.816.816,0,0,0,24.4,17.8a5.706,5.706,0,0,1,6.465-9.371.816.816,0,0,0,.83-1.406,7.338,7.338,0,0,0-8.621,11.788Zm4.9,8.4a3.264,3.264,0,0,1-3.264-3.264h6.527A3.264,3.264,0,0,1,27.972,27.215Zm-1.5-13.509,1.238.413a.816.816,0,0,0,.516,0l1.238-.413-.594,5.35h-1.8Zm-.136,6.982h5.711a.816.816,0,1,1,0,1.632H23.893a.816.816,0,1,1,0-1.632Z" transform="translate(-5.127 -2.738)"/>
    <ellipse id="Ellipse_49" data-name="Ellipse 49" cx="0.5" cy="1" rx="0.5" ry="1" transform="translate(12.785 10)"/>
    <circle id="Ellipse_50" data-name="Ellipse 50" cx="1" cy="1" r="1" transform="translate(31.785 10)"/>
    <circle id="Ellipse_51" data-name="Ellipse 51" cx="1" cy="1" r="1" transform="translate(21.785)"/>
    <path id="Path_10252" data-name="Path 10252" d="M19.016,9.522a.816.816,0,1,0-.3-1.115.816.816,0,0,0,.3,1.115Z" transform="translate(-5.057 -3.105)"/>
    <path id="Path_10253" data-name="Path 10253" d="M39.8,21.522a.816.816,0,1,0-.3-1.115A.816.816,0,0,0,39.8,21.522Z" transform="translate(-8.884 -5.314)"/>
    <ellipse id="Ellipse_52" data-name="Ellipse 52" cx="0.816" cy="0.816" rx="0.816" ry="0.816" transform="matrix(0.966, -0.259, 0.259, 0.966, 26.742, 1.551)"/>
    <path id="Path_10254" data-name="Path 10254" d="M40.616,9.522a.816.816,0,1,0-1.115-.3.816.816,0,0,0,1.115.3Z" transform="translate(-8.884 -3.105)"/>
    <path id="Path_10255" data-name="Path 10255" d="M20.13,20.408a.816.816,0,1,0-.3,1.115A.816.816,0,0,0,20.13,20.408Z" transform="translate(-5.057 -5.314)"/>
    <path id="Path_10256" data-name="Path 10256" d="M24.224,5.13a.816.816,0,1,0-1.115-.3A.816.816,0,0,0,24.224,5.13Z" transform="translate(-5.866 -2.296)"/>
    <path id="Path_10257" data-name="Path 10257" d="M33.725,50.686h3.264a.816.816,0,0,0,.816-.816V48.5a5.605,5.605,0,0,0,.795-.458l1.186.685a.816.816,0,0,0,1.115-.3L42.531,45.6a.816.816,0,0,0-.3-1.115L41.048,43.8c.013-.154.02-.307.02-.459s-.007-.305-.02-.459l1.185-.685a.816.816,0,0,0,.3-1.115L40.9,38.258a.816.816,0,0,0-1.115-.3l-1.186.685a5.605,5.605,0,0,0-.795-.458V36.816A.816.816,0,0,0,36.988,36H33.725a.816.816,0,0,0-.816.816v1.372a5.606,5.606,0,0,0-.795.458l-1.186-.685a.816.816,0,0,0-1.115.3l-1.632,2.826a.816.816,0,0,0,.3,1.115l1.185.685c-.013.154-.02.307-.02.459s.007.305.02.459l-1.185.685A.816.816,0,1,0,29.3,45.9l1.655-.958a.816.816,0,0,0,.395-.854,3.9,3.9,0,0,1,0-1.49.816.816,0,0,0-.395-.854L30,41.194l.816-1.413.951.55a.816.816,0,0,0,.938-.086,4.075,4.075,0,0,1,1.289-.743.816.816,0,0,0,.547-.769v-1.1h1.632v1.1a.816.816,0,0,0,.543.769A4.075,4.075,0,0,1,38,40.244a.816.816,0,0,0,.938.086l.951-.55.816,1.413-.948.55a.816.816,0,0,0-.395.854,3.9,3.9,0,0,1,0,1.49.816.816,0,0,0,.395.854l.951.55L39.9,46.905l-.951-.55a.816.816,0,0,0-.938.086,4.075,4.075,0,0,1-1.289.743.816.816,0,0,0-.543.769v1.1H34.54v-1.1A.816.816,0,0,0,34,47.185a4.075,4.075,0,0,1-1.289-.743.816.816,0,0,0-.938-.086l-1.658.958a.816.816,0,1,0,.816,1.413l1.186-.685a5.605,5.605,0,0,0,.795.458V49.87A.816.816,0,0,0,33.725,50.686Z" transform="translate(-6.8 -8.259)"/>
    <path id="Path_10258" data-name="Path 10258" d="M38.9,44.448A2.448,2.448,0,1,0,36.448,46.9,2.448,2.448,0,0,0,38.9,44.448Zm-3.264,0a.816.816,0,1,1,.816.816A.816.816,0,0,1,35.632,44.448Z" transform="translate(-7.891 -9.364)"/>
    <path id="Path_10259" data-name="Path 10259" d="M37.816,56.711h9.791a3.264,3.264,0,0,0,3.264-3.264V51.816a.816.816,0,1,0-1.632,0v1.632a1.632,1.632,0,0,1-1.632,1.632H37.816a.816.816,0,0,0,0,1.632Z" transform="translate(-8.443 -11.021)"/>
    <path id="Path_10260" data-name="Path 10260" d="M20,53.448A2.448,2.448,0,1,0,22.448,51,2.448,2.448,0,0,0,20,53.448Zm3.264,0a.816.816,0,1,1-.816-.816A.816.816,0,0,1,23.264,53.448Z" transform="translate(-5.314 -11.021)"/>
  </g>
</svg>
