<svg xmlns="http://www.w3.org/2000/svg" width="50.832" height="49" viewBox="0 0 50.832 49">
    <g>
        <path d="M231.949 235.525h1.1a.676.676 0 0 0 0-1.351h-.937v-1.638a.676.676 0 0 0-1.351 0v1.807a1.186 1.186 0 0 0 1.188 1.182zm0 0" transform="translate(0 -.5) translate(-207.705 -208.198)"/>
        <path d="M163.283 214.243a.676.676 0 0 0-.955 0 2.3 2.3 0 0 1-3.228 0 .676.676 0 0 0-.952.958 3.65 3.65 0 0 0 5.133 0 .676.676 0 0 0 .002-.958zm0 0" transform="translate(0 -.5) translate(-142.068 -192.24)"/>
        <path d="M277.826 216.254a3.63 3.63 0 0 0 2.567-1.055.676.676 0 0 0-.952-.958 2.3 2.3 0 0 1-3.228 0 .676.676 0 1 0-.952.958 3.629 3.629 0 0 0 2.565 1.055zm0 0" transform="translate(0 -.5) translate(-247.407 -192.24)"/>
        <path d="M205.495 287.011a.675.675 0 0 0 0 .955 5.029 5.029 0 0 0 3.558 1.46 5.085 5.085 0 0 0 3.594-1.479.676.676 0 0 0-.952-.958 3.73 3.73 0 0 1-5.247.019.675.675 0 0 0-.955 0zm0 0" transform="translate(0 -.5) translate(-184.546 -257.702)"/>
        <path d="M409.408 128.765a2.577 2.577 0 0 1 1.882 1.882.938.938 0 0 0 1.744 0 2.579 2.579 0 0 1 1.882-1.882.939.939 0 0 0 0-1.744 2.579 2.579 0 0 1-1.883-1.883.939.939 0 0 0-1.744 0 2.578 2.578 0 0 1-1.882 1.883.939.939 0 0 0 0 1.744zm2.754-2.289a3.259 3.259 0 0 0 1.418 1.417 3.259 3.259 0 0 0-1.418 1.417 3.26 3.26 0 0 0-1.417-1.417 3.258 3.258 0 0 0 1.418-1.417zm0 0" transform="translate(0 -.5) translate(-367.278 -111.528)"/>
        <path d="M25.463 129.066a2.578 2.578 0 0 1 1.882 1.882.938.938 0 0 0 1.744 0 2.579 2.579 0 0 1 1.883-1.883.938.938 0 0 0 0-1.744 2.579 2.579 0 0 1-1.883-1.883.938.938 0 0 0-1.744 0 2.579 2.579 0 0 1-1.883 1.883.938.938 0 0 0 0 1.744zm2.754-2.289a3.26 3.26 0 0 0 1.417 1.417 3.26 3.26 0 0 0-1.417 1.417 3.26 3.26 0 0 0-1.417-1.417 3.26 3.26 0 0 0 1.417-1.417zm0 0" transform="translate(0 -.5) translate(-22.631 -111.799)"/>
        <path d="M73.928 20.3a1.974 1.974 0 0 1 1.455 1.455.888.888 0 0 0 1.651 0 1.975 1.975 0 0 1 1.455-1.455.889.889 0 0 0 0-1.651 1.975 1.975 0 0 1-1.455-1.455.888.888 0 0 0-1.651 0 1.976 1.976 0 0 1-1.456 1.456.889.889 0 0 0 0 1.651zm2.281-1.719a2.631 2.631 0 0 0 .893.893 2.634 2.634 0 0 0-.893.893 2.626 2.626 0 0 0-.893-.893 2.627 2.627 0 0 0 .892-.893zm0 0" transform="translate(0 -.5) translate(-66.759 -14.679)"/>
        <path d="M50.453 43.7l-.486-.482a.745.745 0 1 0-1.05 1.056l.34.338-3.335 3.315-3.349-3.327a.745.745 0 0 0-.72-.19 4.02 4.02 0 0 1-1.055.141A3.942 3.942 0 0 1 38 43.4l-7.142-7.1a.294.294 0 0 1 0-.419.313.313 0 0 1 .434 0l4.048 4.024a.744.744 0 0 0 1.05 0L37 39.3a.745.745 0 0 0 0-1.056l-5.4-5.364a.294.294 0 0 1 0-.419.313.313 0 0 1 .434 0l5.4 5.364a.744.744 0 0 0 1.05 0l.607-.6a.745.745 0 0 0 0-1.056l-5.4-5.364a.294.294 0 0 1 0-.419.313.313 0 0 1 .434 0l5.4 5.364a.744.744 0 0 0 1.05 0l.607-.6a.744.744 0 0 0 0-1.056l-4.047-4.023a.294.294 0 0 1 0-.419.313.313 0 0 1 .434 0l5.189 5.159a.744.744 0 0 0 1.269-.528v-1.868a.575.575 0 0 1 1.151 0v4.672a.743.743 0 0 0 .111.391 3.922 3.922 0 0 1 .436 3.089.745.745 0 0 0 .193.726l.52.517a.745.745 0 0 0 1.05-1.056l-.226-.225a5.42 5.42 0 0 0-.594-3.643v-4.47a2.065 2.065 0 0 0-4.129 0v.073l-2.379-2.364a5.137 5.137 0 0 0-.57-3.268 2.715 2.715 0 0 0 .395-1.411v-2.435a2.754 2.754 0 0 0-1.508-2.447v-2.905a11.08 11.08 0 0 0-4.14-8.919A12.649 12.649 0 0 0 32.1 7.3a7.6 7.6 0 0 0-15.11 0 12.633 12.633 0 0 0-2.241 1.44 11.081 11.081 0 0 0-4.139 8.919v2.905a2.755 2.755 0 0 0-1.51 2.447v2.435a2.732 2.732 0 0 0 .857 1.984L9.7 31.388a1.23 1.23 0 0 0-.654.34l-1 .99a1.238 1.238 0 0 0-.078 1.671L.478 42.63a1.673 1.673 0 0 0 1.2 2.842A1.67 1.67 0 0 0 2.848 45l8.3-7.454a1.244 1.244 0 0 0 1.68-.066l1-.99a1.231 1.231 0 0 0 .344-.652l4.305-.281a1.3 1.3 0 0 0 .355-.074 10.514 10.514 0 0 0 2.009.694v1.383h-4.968A8.064 8.064 0 0 0 7.8 45.592v2.645A1.265 1.265 0 0 0 9.06 49.5h30.966a1.265 1.265 0 0 0 1.264-1.264v-2.219c.176-.016.351-.039.524-.072l3.2 3.18a1.288 1.288 0 0 0 1.816 0l3.622-3.6a1.286 1.286 0 0 0 0-1.824zm-22.2-7.526a10.34 10.34 0 0 0 1.044-.3 1.861 1.861 0 0 0-.015.219 1.774 1.774 0 0 0 .527 1.266l.2.2h-1.756zm10.363-7.584a1.794 1.794 0 0 0-3.055 1.12l-.385-.383a1.793 1.793 0 0 0-3.06 1.266 1.827 1.827 0 0 0 .028.32 1.814 1.814 0 0 0-.326-.029q-.085 0-.169.008a3.644 3.644 0 0 1-.35-1.563 3.719 3.719 0 0 1 7.368-.688zm-.12-3.144v.034a5.21 5.21 0 0 0-2.171-1.164v-2.573h.87a1.286 1.286 0 0 1 1.3 1.267zM24.543 1.989A6.106 6.106 0 0 1 30.468 6.6a18.2 18.2 0 0 0-11.851 0 6.107 6.107 0 0 1 5.925-4.607zM10.591 23.01a1.286 1.286 0 0 1 1.3-1.267h.87v3.95a8.221 8.221 0 0 0-1.8.247 1.3 1.3 0 0 0-.226.08 1.229 1.229 0 0 1-.143-.574zM1.841 43.9l-.027.026a.192.192 0 0 1-.27 0 .179.179 0 0 1 0-.256l.026-.027 7.456-8.2 1.058 1.057zm10.108-7.652L9.278 33.6l.643-.64 2.67 2.654zm6.286-2.171l-4.758.31-.075-.075 2.667-1.576a.745.745 0 0 0-.757-1.282l-2.988 1.766 1.771-2.961a.745.745 0 1 0-1.278-.764l-1.59 2.659-.081-.081.311-4.721a6.673 6.673 0 0 1 1.5-.173 5.478 5.478 0 0 1 3.906 1.542 5.642 5.642 0 0 1 1.376 5.357zm-.326-6.413a6.8 6.8 0 0 0-3.657-1.864v-6.9h2.923a.745.745 0 1 0 0-1.489H14.12a1.357 1.357 0 0 0-1.357 1.354v1.492H12.1v-2.6A9.637 9.637 0 0 1 15.686 9.9a14.064 14.064 0 0 1 8.857-2.8A14.064 14.064 0 0 1 33.4 9.9a9.638 9.638 0 0 1 3.587 7.761v2.6h-.664v-1.499a1.357 1.357 0 0 0-1.357-1.354h-3.194a3.959 3.959 0 0 1-3.322-1.837 1.359 1.359 0 0 0-2.3 0 3.958 3.958 0 0 1-3.322 1.838h-2.177a.745.745 0 1 0 0 1.489h2.178a5.461 5.461 0 0 0 4.471-2.366 5.462 5.462 0 0 0 4.472 2.368h3.063v5.257a5.2 5.2 0 0 0-5.025 5.173 5.122 5.122 0 0 0 .547 2.307 1.774 1.774 0 0 0 .026 2.1 9.016 9.016 0 0 1-4.553 1.227h-2.572a9.033 9.033 0 0 1-3.537-.717 7.091 7.091 0 0 0-1.813-6.586zm2.965 11.383a1.449 1.449 0 0 0 1.45-1.445v-1.187c.308.027.62.042.935.042h2.571q.472 0 .935-.042V37.6a1.449 1.449 0 0 0 1.45 1.445h.176l-3.847 5.89-3.844-5.887zM9.286 48.011v-2.42a6.573 6.573 0 0 1 6.587-6.544h.08l5.854 8.963zm17.994 0l1.665-2.549a.745.745 0 0 0-1.247-.814L26 47.25a1.736 1.736 0 0 1-1.159.761h-.591a1.736 1.736 0 0 1-1.159-.761l-5.357-8.2h1.186l5 7.659a.745.745 0 0 0 1.247 0l5-7.659h1.186l-1.777 2.721a.745.745 0 1 0 1.247.814l1.67-2.556 4.456 4.43a5.411 5.411 0 0 0 2.85 1.493v2.062zm0 0" transform="translate(0 -.5)"/>
    </g>
</svg>
