<svg id="finance" xmlns="http://www.w3.org/2000/svg" width="49.103" height="49.103" viewBox="0 0 49.103 49.103">
  <g id="Group_420" data-name="Group 420">
    <g id="Group_419" data-name="Group 419">
      <path id="Path_10189" data-name="Path 10189" d="M30.862,197.917H53.851a.7.7,0,0,0,.744-.744v-7.44a.745.745,0,0,0-.744-.744H30.862a.7.7,0,0,0-.744.744v7.44A.7.7,0,0,0,30.862,197.917Zm.744-7.44h21.5v5.952h-21.5Z" transform="translate(-27.142 -170.315)"/>
      <path id="Path_10190" data-name="Path 10190" d="M38.5,292.894H35.38a.7.7,0,0,0-.744.744v3.05a.7.7,0,0,0,.744.744h3.05a.7.7,0,0,0,.744-.744v-3.125C39.249,293.192,38.877,292.894,38.5,292.894Zm-2.381,3.05v-1.637h1.562v1.637Z" transform="translate(-31.214 -263.953)"/>
      <path id="Path_10191" data-name="Path 10191" d="M38.5,356.141H35.38a.7.7,0,0,0-.744.744v3.125a.7.7,0,0,0,.744.744h3.05a.7.7,0,0,0,.744-.744v-3.125A.648.648,0,0,0,38.5,356.141Zm-2.381,3.125v-1.637h1.562v1.637Z" transform="translate(-31.214 -320.95)"/>
      <path id="Path_10192" data-name="Path 10192" d="M38.5,419.388H35.38a.7.7,0,0,0-.744.744v3.125a.7.7,0,0,0,.744.744h3.05a.7.7,0,0,0,.744-.744v-3.125A.684.684,0,0,0,38.5,419.388Zm-2.381,3.125v-1.637h1.562v1.637Z" transform="translate(-31.214 -377.948)"/>
      <path id="Path_10193" data-name="Path 10193" d="M102.5,292.894H99.379a.7.7,0,0,0-.744.744v3.05a.7.7,0,0,0,.744.744H102.5a.7.7,0,0,0,.744-.744v-3.125A.734.734,0,0,0,102.5,292.894Zm-.744,3.05h-1.637v-1.637h1.637Z" transform="translate(-88.889 -263.953)"/>
      <path id="Path_10194" data-name="Path 10194" d="M102.5,356.141H99.379a.7.7,0,0,0-.744.744v3.125a.7.7,0,0,0,.744.744H102.5a.7.7,0,0,0,.744-.744v-3.125A.745.745,0,0,0,102.5,356.141Zm-.744,3.125h-1.637v-1.637h1.637Z" transform="translate(-88.889 -320.95)"/>
      <path id="Path_10195" data-name="Path 10195" d="M102.5,419.388H99.379a.7.7,0,0,0-.744.744v3.125a.7.7,0,0,0,.744.744H102.5a.7.7,0,0,0,.744-.744v-3.125A.8.8,0,0,0,102.5,419.388Zm-.744,3.125h-1.637v-1.637h1.637Z" transform="translate(-88.889 -377.948)"/>
      <path id="Path_10196" data-name="Path 10196" d="M167.182,292.894h-3.05a.7.7,0,0,0-.744.744v3.05a.7.7,0,0,0,.744.744h3.05a.7.7,0,0,0,.744-.744v-3.125A.734.734,0,0,0,167.182,292.894Zm-.744,3.05h-1.562v-1.637h1.562Z" transform="translate(-147.244 -263.953)"/>
      <path id="Path_10197" data-name="Path 10197" d="M167.182,356.141h-3.05a.7.7,0,0,0-.744.744v3.125a.7.7,0,0,0,.744.744h3.05a.7.7,0,0,0,.744-.744v-3.125A.745.745,0,0,0,167.182,356.141Zm-.744,3.125h-1.562v-1.637h1.562Z" transform="translate(-147.244 -320.95)"/>
      <path id="Path_10198" data-name="Path 10198" d="M167.182,419.388h-3.05a.7.7,0,0,0-.744.744v3.125a.7.7,0,0,0,.744.744h3.05a.7.7,0,0,0,.744-.744v-3.125A.8.8,0,0,0,167.182,419.388Zm-.744,3.125h-1.562v-1.637h1.562Z" transform="translate(-147.244 -377.948)"/>
      <path id="Path_10199" data-name="Path 10199" d="M230.429,292.894h-3.05a.7.7,0,0,0-.744.744v3.05a.7.7,0,0,0,.744.744h3.05a.7.7,0,0,0,.744-.744v-3.125A.687.687,0,0,0,230.429,292.894Zm-.744,3.05h-1.562v-1.637h1.562Z" transform="translate(-204.241 -263.953)"/>
      <path id="Path_10200" data-name="Path 10200" d="M230.429,356.141h-3.05a.7.7,0,0,0-.744.744v9.374a.7.7,0,0,0,.744.744h3.05a.7.7,0,0,0,.744-.744v-9.374A.7.7,0,0,0,230.429,356.141Zm-.744,9.374h-1.562v-7.886h1.562Z" transform="translate(-204.241 -320.95)"/>
      <path id="Path_10201" data-name="Path 10201" d="M48.88,12.945,35.637.223A.8.8,0,0,0,35.116,0H9.523a.7.7,0,0,0-.744.744V15.475H.744A.7.7,0,0,0,0,16.219v32.14a.7.7,0,0,0,.744.744H48.359a.7.7,0,0,0,.744-.744V13.466C49.1,13.317,49.029,13.02,48.88,12.945ZM35.86,2.455,46.5,12.648H35.86Zm-6.919,45.16H1.488V16.963H28.941V47.615Zm18.674,0H30.429v-31.4a.7.7,0,0,0-.744-.744H10.267V1.488H34.372V13.466a.7.7,0,0,0,.744.744h12.5Z"/>
      <path id="Path_10202" data-name="Path 10202" d="M152.734,47.435H137.78a.744.744,0,1,0,0,1.488h14.954a.744.744,0,1,0,0-1.488Z" transform="translate(-123.495 -42.748)"/>
      <path id="Path_10203" data-name="Path 10203" d="M152.734,91.859H137.78a.744.744,0,1,0,0,1.488h14.954a.744.744,0,1,0,0-1.488Z" transform="translate(-123.495 -82.782)"/>
      <path id="Path_10204" data-name="Path 10204" d="M330.907,317.741a7.217,7.217,0,1,0,7.142,7.217A7.16,7.16,0,0,0,330.907,317.741Zm0,12.871a5.729,5.729,0,1,1,5.654-5.729A5.668,5.668,0,0,1,330.907,330.612Z" transform="translate(-291.774 -286.345)"/>
      <path id="Path_10205" data-name="Path 10205" d="M372.5,350.138a3.335,3.335,0,0,0-1.786-.818v-2.009a3.69,3.69,0,0,1,1.488.6l.669-.967a4.811,4.811,0,0,0-2.157-.818V345.6h-.67v.521a2.078,2.078,0,0,0-1.637.67,1.873,1.873,0,0,0-.67,1.488,1.852,1.852,0,0,0,.521,1.414,4.076,4.076,0,0,0,1.711.744v2.083a3.145,3.145,0,0,1-1.786-.893l-.744.893a4.93,4.93,0,0,0,2.6,1.19v.744h.67v-.744a2.242,2.242,0,0,0,1.711-.67,1.873,1.873,0,0,0,.67-1.488A1.791,1.791,0,0,0,372.5,350.138ZM370.04,349.1h0a2.851,2.851,0,0,1-.818-.372.733.733,0,0,1-.223-.6.677.677,0,0,1,.3-.6,1.727,1.727,0,0,1,.744-.3Zm1.414,3.125a1.354,1.354,0,0,1-.818.3v-1.934a6.437,6.437,0,0,1,.893.372.845.845,0,0,1,.223.6A.725.725,0,0,1,371.454,352.221Z" transform="translate(-331.13 -311.451)"/>
      <path id="Path_10206" data-name="Path 10206" d="M317.854,161.154c-.074,0,0,0,0,.074L314.8,167.7a.71.71,0,0,0,.223.893.78.78,0,0,0,.893.074l5.878-4.018.074-.074a.073.073,0,0,0,.074-.074l8.184-9.6a2.614,2.614,0,0,0-.3-3.72,2.729,2.729,0,0,0-3.72.3l-8.184,9.6A.073.073,0,0,1,317.854,161.154Zm9.449-8.7a1.153,1.153,0,0,1,1.562-.149,1.173,1.173,0,0,1,.149,1.637l-7.737,9-1.711-1.488Zm-7.142,11.457-2.827,1.934,1.488-3.125Z" transform="translate(-283.631 -135.709)"/>
    </g>
  </g>
</svg>
