<svg id="global_management" data-name="global management" xmlns="http://www.w3.org/2000/svg" width="45.733" height="49" viewBox="0 0 45.733 49">
  <g id="Group_471" data-name="Group 471" transform="translate(26.8 2.025)">
    <g id="Group_470" data-name="Group 470">
      <path id="Path_10279" data-name="Path 10279" d="M278.832,19.832l-.3,1.605a21.323,21.323,0,0,1,11.894,6.714l1.217-1.089A22.966,22.966,0,0,0,278.832,19.832Z" transform="translate(-278.532 -19.832)"/>
    </g>
  </g>
  <g id="Group_473" data-name="Group 473" transform="translate(5.929 2.025)">
    <g id="Group_472" data-name="Group 472">
      <path id="Path_10280" data-name="Path 10280" d="M86.783,19.832a22.969,22.969,0,0,0-12.7,7.114l1.209,1.1a21.332,21.332,0,0,1,11.8-6.606Z" transform="translate(-74.078 -19.832)"/>
    </g>
  </g>
  <g id="Group_475" data-name="Group 475" transform="translate(0 16.878)">
    <g id="Group_474" data-name="Group 474">
      <path id="Path_10281" data-name="Path 10281" d="M18.841,165.877l-1.539-.545a22.97,22.97,0,0,0,0,15.245l1.539-.545A21.346,21.346,0,0,1,18.841,165.877Z" transform="translate(-16 -165.332)"/>
    </g>
  </g>
  <g id="Group_477" data-name="Group 477" transform="translate(6.775 39.586)">
    <g id="Group_476" data-name="Group 476">
      <path id="Path_10282" data-name="Path 10282" d="M83.517,387.781l-1.15,1.16a22.748,22.748,0,0,0,11.858,6.229l.3-1.605A21.113,21.113,0,0,1,83.517,387.781Z" transform="translate(-82.367 -387.781)"/>
    </g>
  </g>
  <g id="Group_479" data-name="Group 479" transform="translate(27.586 39.442)">
    <g id="Group_478" data-name="Group 478">
      <path id="Path_10283" data-name="Path 10283" d="M296.594,386.371a21.176,21.176,0,0,1-10.368,5.765l.362,1.593a22.8,22.8,0,0,0,11.165-6.209Z" transform="translate(-286.226 -386.371)"/>
    </g>
  </g>
  <g id="Group_481" data-name="Group 481" transform="translate(42.893 18.572)">
    <g id="Group_480" data-name="Group 480">
      <path id="Path_10284" data-name="Path 10284" d="M438.237,181.93l-1.578.423a21.369,21.369,0,0,1-.487,12.583l1.539.545A23,23,0,0,0,438.237,181.93Z" transform="translate(-436.172 -181.93)"/>
    </g>
  </g>
  <g id="Group_483" data-name="Group 483" transform="translate(40.017 11.433)">
    <g id="Group_482" data-name="Group 482">
      <path id="Path_10285" data-name="Path 10285" d="M412.084,112h-3.267a.816.816,0,0,0-.817.816h0v3.267a.816.816,0,0,0,.816.817h3.267a.817.817,0,0,0,.817-.816h0v-3.267A.816.816,0,0,0,412.084,112Zm-.817,3.267h-1.633v-1.633h1.633Z" transform="translate(-408 -112)"/>
    </g>
  </g>
  <g id="Group_485" data-name="Group 485" transform="translate(20.417 0)">
    <g id="Group_484" data-name="Group 484">
      <path id="Path_10286" data-name="Path 10286" d="M220.084,0h-3.267A.816.816,0,0,0,216,.816h0V4.083a.816.816,0,0,0,.816.817h3.267a.817.817,0,0,0,.817-.816h0V.817A.817.817,0,0,0,220.084,0Zm-.817,3.267h-1.633V1.633h1.633Z" transform="translate(-216 0)"/>
    </g>
  </g>
  <g id="Group_487" data-name="Group 487" transform="translate(1.633 10.617)">
    <g id="Group_486" data-name="Group 486">
      <path id="Path_10287" data-name="Path 10287" d="M36.084,104H32.817a.816.816,0,0,0-.817.816h0v3.267a.816.816,0,0,0,.816.817h3.267a.816.816,0,0,0,.817-.816h0v-3.267A.816.816,0,0,0,36.084,104Zm-.817,3.267H33.633v-1.633h1.633Z" transform="translate(-32 -104)"/>
    </g>
  </g>
  <g id="Group_489" data-name="Group 489" transform="translate(1.633 33.483)">
    <g id="Group_488" data-name="Group 488">
      <path id="Path_10288" data-name="Path 10288" d="M36.084,328H32.817a.816.816,0,0,0-.817.816h0v3.267a.816.816,0,0,0,.816.817h3.267a.816.816,0,0,0,.817-.816h0v-3.267A.816.816,0,0,0,36.084,328Zm-.817,3.267H33.633v-1.633h1.633Z" transform="translate(-32 -328)"/>
    </g>
  </g>
  <g id="Group_491" data-name="Group 491" transform="translate(20.417 44.1)">
    <g id="Group_490" data-name="Group 490">
      <path id="Path_10289" data-name="Path 10289" d="M220.084,432h-3.267a.816.816,0,0,0-.817.816h0v3.267a.816.816,0,0,0,.816.817h3.267a.816.816,0,0,0,.817-.816h0v-3.267A.816.816,0,0,0,220.084,432Zm-.817,3.267h-1.633v-1.633h1.633Z" transform="translate(-216 -432)"/>
    </g>
  </g>
  <g id="Group_493" data-name="Group 493" transform="translate(39.2 33.483)">
    <g id="Group_492" data-name="Group 492">
      <path id="Path_10290" data-name="Path 10290" d="M404.084,328h-3.267a.816.816,0,0,0-.817.816h0v3.267a.816.816,0,0,0,.816.817h3.267a.816.816,0,0,0,.817-.816h0v-3.267A.816.816,0,0,0,404.084,328Zm-.817,3.267h-1.633v-1.633h1.633Z" transform="translate(-400 -328)"/>
    </g>
  </g>
  <g id="Group_495" data-name="Group 495" transform="translate(6.533 8.167)">
    <g id="Group_494" data-name="Group 494">
      <path id="Path_10291" data-name="Path 10291" d="M96.333,80a16.333,16.333,0,1,0,16.333,16.333A16.333,16.333,0,0,0,96.333,80Zm-4.774,2.445a13.815,13.815,0,0,0-2.289,3.7c-1.058-.119-2.086-.264-3.07-.436A14.7,14.7,0,0,1,91.559,82.445Zm-6.667,4.68c1.2.239,2.462.442,3.779.6a26.868,26.868,0,0,0-1.3,7.792h-5.7A14.616,14.616,0,0,1,84.892,87.125ZM81.675,97.15h5.7a26.87,26.87,0,0,0,1.3,7.792c-1.317.158-2.579.361-3.779.6A14.617,14.617,0,0,1,81.675,97.15Zm4.525,9.806c.984-.173,2.012-.317,3.07-.436a13.816,13.816,0,0,0,2.289,3.7A14.708,14.708,0,0,1,86.2,106.956Zm9.317,3.976c-1.748-.407-3.328-2.1-4.5-4.581,1.458-.12,2.964-.189,4.5-.208Zm0-6.422c-1.761.021-3.489.106-5.153.256A25.015,25.015,0,0,1,89,97.15h6.512Zm0-8.993H89A25.015,25.015,0,0,1,90.364,87.9c1.664.151,3.392.236,5.153.256Zm0-8.993c-1.535-.018-3.04-.088-4.5-.208,1.17-2.478,2.751-4.173,4.5-4.581Zm15.475,8.993h-5.7a26.871,26.871,0,0,0-1.3-7.792c1.317-.158,2.579-.361,3.779-.6A14.617,14.617,0,0,1,110.992,95.517Zm-4.525-9.806c-.984.173-2.012.317-3.07.436a13.817,13.817,0,0,0-2.289-3.7A14.708,14.708,0,0,1,106.467,85.711ZM97.15,81.735c1.748.407,3.328,2.1,4.5,4.581-1.458.12-2.964.189-4.5.208Zm0,6.422c1.761-.021,3.489-.106,5.153-.256a25.015,25.015,0,0,1,1.359,7.616H97.15Zm0,8.993h6.512a25.015,25.015,0,0,1-1.359,7.616c-1.664-.151-3.392-.236-5.153-.256Zm0,13.781v-4.789c1.535.018,3.04.088,4.5.208C100.478,108.828,98.9,110.524,97.15,110.931Zm3.957-.709a13.815,13.815,0,0,0,2.289-3.7c1.058.119,2.086.264,3.07.436A14.7,14.7,0,0,1,101.107,110.222Zm6.667-4.68c-1.2-.239-2.462-.442-3.779-.6a26.869,26.869,0,0,0,1.3-7.792h5.7A14.616,14.616,0,0,1,107.775,105.542Z" transform="translate(-80 -80)"/>
    </g>
  </g>
</svg>
