<svg xmlns="http://www.w3.org/2000/svg" width="221" height="63" viewBox="0 0 221 63">
    <g>
        <g>
            <g>
                <g>
                    <g>
                        <g>
                            <g>
                                <g>
                                    <g>
                                        <g>
                                            <g>
                                                <g>
                                                    <g>
                                                        <g>
                                                            <g>
                                                                <g>
                                                                    <g fill="none" stroke="#000" stroke-width="0.5px">
                                                                        <path stroke="none" d="M0 0H221V63H0z" transform="translate(-697 -1363) translate(697 1363)"/>
                                                                        <path d="M0.25 0.25H220.75V62.75H0.25z" transform="translate(-697 -1363) translate(697 1363)"/>
                                                                    </g>
                                                                    <path fill="#ed1c24" d="M0 0H62V63H0z" transform="translate(-697 -1363) translate(856 1363)"/>
                                                                </g>
                                                            </g>
                                                        </g>
                                                    </g>
                                                </g>
                                            </g>
                                            <g>
                                                <path fill="#fff" d="M8.865 107.246a1.238 1.238 0 0 1-.878-.363L.364 99.26A1.241 1.241 0 0 1 2.12 97.5l6.745 6.745 6.744-6.745a1.241 1.241 0 0 1 1.756 1.756l-7.623 7.623a1.238 1.238 0 0 1-.877.367z" transform="translate(-697 -1363) rotate(-90 1094.294 309.435)"/>
                                            </g>
                                        </g>
                                    </g>
                                </g>
                            </g>
                        </g>
                    </g>
                </g>
            </g>
        </g>
    </g>
</svg>
