<svg id="hospitality" xmlns="http://www.w3.org/2000/svg" width="54.904" height="49.414" viewBox="0 0 54.904 49.414">
  <path id="Path_10226" data-name="Path 10226" d="M67.848,138.541a3.184,3.184,0,0,0,.311-1.376v-4.575a3.206,3.206,0,0,0-3.2-3.2H63.571a2.062,2.062,0,0,0-2.046-1.83H32.471a.915.915,0,0,0-.915.915v.915H29.113a3.2,3.2,0,0,0,.284-1.77l-1.258-10.066a3.208,3.208,0,0,0-3.178-2.805H23.778a3.185,3.185,0,0,0-1.376.311A3.207,3.207,0,0,0,19.2,112H16.915a.915.915,0,0,0-.915.915v4.575h1.83v-3.66H19.2a1.374,1.374,0,0,1,1.373,1.373v30.655H17.83V119.321H16v32.943a.915.915,0,0,0,.915.915h2.193a5.483,5.483,0,0,0,5.209-3.754l.579-1.736H56.263v-1.83H22.406v-5.49H67.7a1.374,1.374,0,0,1,1.373,1.373v4.118H58.093v1.83h3.916l.579,1.736a5.484,5.484,0,0,0,5.209,3.754h2.193a.915.915,0,0,0,.915-.915V141.74A3.207,3.207,0,0,0,67.848,138.541Zm-44.882,9.147-.386,1.157a3.655,3.655,0,0,1-3.472,2.5H17.83v-3.66Zm38.788-18.073v5.262H38.877v-5.49H61.525A.229.229,0,0,1,61.754,129.615Zm-28.367-.229h3.66v5.49h-3.66Zm-9.608-12.811h1.183a1.375,1.375,0,0,1,1.362,1.2l1.258,10.066a1.373,1.373,0,0,1-1.362,1.543H22.406V117.948A1.374,1.374,0,0,1,23.778,116.575Zm-1.373,21.962v-7.321h9.151v4.575a.915.915,0,0,0,.915.915h30.2a.915.915,0,0,0,.915-.915v-4.575h1.373a1.374,1.374,0,0,1,1.373,1.373v4.575a1.374,1.374,0,0,1-1.373,1.373Zm46.669,12.811H67.8a3.655,3.655,0,0,1-3.472-2.5l-.386-1.158h5.136Z" transform="translate(-16 -103.764)"/>
  <path id="Path_10227" data-name="Path 10227" d="M282.165,163.329l1.9,1.038,1.038,1.9a.915.915,0,0,0,1.606,0l1.038-1.9,1.9-1.038a.915.915,0,0,0,0-1.606l-1.9-1.038-1.038-1.9a.915.915,0,0,0-1.606,0l-1.038,1.9-1.9,1.038a.915.915,0,0,0,0,1.606Zm3.011-1.167a.916.916,0,0,0,.364-.364l.364-.665.364.665a.915.915,0,0,0,.364.364l.665.363-.665.364a.913.913,0,0,0-.364.364l-.364.665-.364-.665a.915.915,0,0,0-.364-.364l-.665-.364Z" transform="translate(-251.299 -144.779)"/>
  <path id="Path_10228" data-name="Path 10228" d="M184.476,77.018l1.9,1.038,1.038,1.9a.915.915,0,0,0,1.606,0l1.038-1.9,1.9-1.038a.915.915,0,0,0,0-1.606l-1.9-1.038-1.038-1.9a.915.915,0,0,0-1.606,0l-1.038,1.9-1.9,1.038a.915.915,0,0,0,0,1.606Zm3.011-1.167a.914.914,0,0,0,.364-.364l.364-.665.364.665a.915.915,0,0,0,.364.364l.665.364-.665.364a.915.915,0,0,0-.364.364l-.364.665-.364-.665a.915.915,0,0,0-.364-.364l-.665-.364Z" transform="translate(-164.784 -68.34)"/>
  <path id="Path_10229" data-name="Path 10229" d="M334.788,45.018l1.9,1.038,1.038,1.9a.915.915,0,0,0,1.606,0l1.038-1.9,1.9-1.038a.915.915,0,0,0,0-1.606l-1.9-1.038-1.038-1.9a.915.915,0,0,0-1.606,0l-1.038,1.9-1.9,1.038a.915.915,0,0,0,0,1.606Zm3.011-1.167a.915.915,0,0,0,.364-.364l.364-.665.364.665a.914.914,0,0,0,.364.364l.665.364-.665.364a.915.915,0,0,0-.364.364l-.364.665-.364-.665a.915.915,0,0,0-.364-.364l-.665-.364Z" transform="translate(-297.902 -40)"/>
</svg>
