<svg xmlns="http://www.w3.org/2000/svg" width="61.75" height="49" viewBox="0 0 61.75 49">
    <g>
        <g>
            <g>
                <path d="M216.122 384H205.83a1.029 1.029 0 0 0-1.029 1.029v7.2a1.029 1.029 0 0 0 1.029 1.029h10.292a1.028 1.028 0 0 0 1.029-1.029v-7.2a1.028 1.028 0 0 0-1.029-1.029zm-1.029 7.2h-8.233v-5.146h8.233z" transform="translate(0 -51.2) translate(24.7 90.938) translate(-204.801 -384)"/>
            </g>
        </g>
        <g>
            <g>
                <path d="M0 0H2.058V7.204H0z" transform="translate(0 -51.2) translate(29.846 91.967)"/>
            </g>
        </g>
        <g>
            <g>
                <path d="M183.746 51.2h-20.583a1.025 1.025 0 0 0-1.029 1.021v46.958a1.025 1.025 0 0 0 1.029 1.021h20.583a1.024 1.024 0 0 0 1.029-1.021V52.221a1.025 1.025 0 0 0-1.029-1.021zm-1.029 46.958h-18.525V53.242h18.525z" transform="translate(0 -51.2) translate(19.554 51.2) translate(-162.134 -51.2)"/>
            </g>
        </g>
        <g>
            <g>
                <path d="M103.13 85.333H94.9a1.025 1.025 0 0 0-1.029 1.02V129.2a1.024 1.024 0 0 0 1.029 1.02h8.233a1.024 1.024 0 0 0 1.029-1.02V86.353a1.025 1.025 0 0 0-1.032-1.02zm-1.03 42.843h-6.175v-40.8h6.175z" transform="translate(0 -51.2) translate(11.321 55.317) translate(-93.867 -85.333)"/>
            </g>
        </g>
        <g>
            <g>
                <path d="M0 0H3.087V2.058H0z" transform="translate(0 -51.2) translate(9.262 55.317)"/>
            </g>
        </g>
        <g>
            <g>
                <path d="M0 0H26.758V2.058H0z" transform="translate(0 -51.2) translate(17.496 51.2)"/>
            </g>
        </g>
        <g>
            <g>
                <path d="M0 0H2.058V3.087H0z" transform="translate(0 -51.2) translate(23.671 85.889)"/>
            </g>
        </g>
        <g>
            <g>
                <path d="M0 0H2.058V3.087H0z" transform="translate(0 -51.2) translate(27.787 85.889)"/>
            </g>
        </g>
        <g>
            <g>
                <path d="M0 0H2.058V3.087H0z" transform="translate(0 -51.2) translate(31.904 85.889)"/>
            </g>
        </g>
        <g>
            <g>
                <path d="M0 0H2.058V3.087H0z" transform="translate(0 -51.2) translate(36.021 85.889)"/>
            </g>
        </g>
        <g>
            <g>
                <path d="M0 0H2.058V3.087H0z" transform="translate(0 -51.2) translate(23.671 80.788)"/>
            </g>
        </g>
        <g>
            <g>
                <path d="M0 0H2.058V3.087H0z" transform="translate(0 -51.2) translate(27.787 80.788)"/>
            </g>
        </g>
        <g>
            <g>
                <path d="M0 0H2.058V3.087H0z" transform="translate(0 -51.2) translate(31.904 80.788)"/>
            </g>
        </g>
        <g>
            <g>
                <path d="M0 0H2.058V3.087H0z" transform="translate(0 -51.2) translate(36.021 80.788)"/>
            </g>
        </g>
        <g>
            <g>
                <path d="M0 0H2.058V3.087H0z" transform="translate(0 -51.2) translate(23.671 75.687)"/>
            </g>
        </g>
        <g>
            <g>
                <path d="M0 0H2.058V3.087H0z" transform="translate(0 -51.2) translate(27.787 75.687)"/>
            </g>
        </g>
        <g>
            <g>
                <path d="M0 0H2.058V3.087H0z" transform="translate(0 -51.2) translate(31.904 75.687)"/>
            </g>
        </g>
        <g>
            <g>
                <path d="M0 0H2.058V3.087H0z" transform="translate(0 -51.2) translate(36.021 75.687)"/>
            </g>
        </g>
        <g>
            <g>
                <path d="M0 0H2.058V3.087H0z" transform="translate(0 -51.2) translate(23.671 70.585)"/>
            </g>
        </g>
        <g>
            <g>
                <path d="M0 0H2.058V3.087H0z" transform="translate(0 -51.2) translate(27.787 70.585)"/>
            </g>
        </g>
        <g>
            <g>
                <path d="M0 0H2.058V3.087H0z" transform="translate(0 -51.2) translate(31.904 70.585)"/>
            </g>
        </g>
        <g>
            <g>
                <path d="M0 0H2.058V3.087H0z" transform="translate(0 -51.2) translate(36.021 70.585)"/>
            </g>
        </g>
        <g>
            <g>
                <path d="M0 0H2.058V3.087H0z" transform="translate(0 -51.2) translate(23.671 65.484)"/>
            </g>
        </g>
        <g>
            <g>
                <path d="M0 0H2.058V3.087H0z" transform="translate(0 -51.2) translate(27.787 65.484)"/>
            </g>
        </g>
        <g>
            <g>
                <path d="M0 0H2.058V3.087H0z" transform="translate(0 -51.2) translate(31.904 65.484)"/>
            </g>
        </g>
        <g>
            <g>
                <path d="M0 0H2.058V3.087H0z" transform="translate(0 -51.2) translate(36.021 65.484)"/>
            </g>
        </g>
        <g>
            <g>
                <path d="M0 0H2.058V3.087H0z" transform="translate(0 -51.2) translate(23.671 60.382)"/>
            </g>
        </g>
        <g>
            <g>
                <path d="M0 0H2.058V3.087H0z" transform="translate(0 -51.2) translate(27.787 60.382)"/>
            </g>
        </g>
        <g>
            <g>
                <path d="M0 0H2.058V3.087H0z" transform="translate(0 -51.2) translate(31.904 60.382)"/>
            </g>
        </g>
        <g>
            <g>
                <path d="M0 0H2.058V3.087H0z" transform="translate(0 -51.2) translate(36.021 60.382)"/>
            </g>
        </g>
        <g>
            <g>
                <path d="M0 0H2.058V3.087H0z" transform="translate(0 -51.2) translate(23.671 55.317)"/>
            </g>
        </g>
        <g>
            <g>
                <path d="M0 0H2.058V3.087H0z" transform="translate(0 -51.2) translate(27.787 55.317)"/>
            </g>
        </g>
        <g>
            <g>
                <path d="M0 0H2.058V3.087H0z" transform="translate(0 -51.2) translate(31.904 55.317)"/>
            </g>
        </g>
        <g>
            <g>
                <path d="M0 0H2.058V3.087H0z" transform="translate(0 -51.2) translate(36.021 55.317)"/>
            </g>
        </g>
        <g>
            <g>
                <path d="M0 0H2.058V3.087H0z" transform="translate(0 -51.2) translate(15.437 90.938)"/>
            </g>
        </g>
        <g>
            <g>
                <path d="M0 0H2.058V3.087H0z" transform="translate(0 -51.2) translate(15.437 85.889)"/>
            </g>
        </g>
        <g>
            <g>
                <path d="M0 0H2.058V3.087H0z" transform="translate(0 -51.2) translate(15.437 80.788)"/>
            </g>
        </g>
        <g>
            <g>
                <path d="M0 0H2.058V3.087H0z" transform="translate(0 -51.2) translate(15.437 75.687)"/>
            </g>
        </g>
        <g>
            <g>
                <path d="M0 0H2.058V3.087H0z" transform="translate(0 -51.2) translate(15.437 70.585)"/>
            </g>
        </g>
        <g>
            <g>
                <path d="M0 0H2.058V3.087H0z" transform="translate(0 -51.2) translate(15.437 65.484)"/>
            </g>
        </g>
        <g>
            <g>
                <path d="M0 0H2.058V3.087H0z" transform="translate(0 -51.2) translate(15.437 60.382)"/>
            </g>
        </g>
        <g>
            <g>
                <path d="M342.063 85.333h-8.233a1.024 1.024 0 0 0-1.029 1.02V129.2a1.024 1.024 0 0 0 1.029 1.02h8.233a1.024 1.024 0 0 0 1.029-1.02V86.353a1.024 1.024 0 0 0-1.029-1.02zm-1.029 42.843h-6.175v-40.8h6.175z" transform="translate(0 -51.2) translate(40.137 55.317) translate(-332.8 -85.333)"/>
            </g>
        </g>
        <g>
            <g>
                <path d="M0 0H3.087V2.058H0z" transform="translate(0 -51.2) translate(49.4 55.317)"/>
            </g>
        </g>
        <g>
            <g>
                <path d="M0 0H2.058V3.087H0z" transform="translate(0 -51.2) translate(44.254 90.938)"/>
            </g>
        </g>
        <g>
            <g>
                <path d="M0 0H2.058V3.087H0z" transform="translate(0 -51.2) translate(44.254 85.889)"/>
            </g>
        </g>
        <g>
            <g>
                <path d="M0 0H2.058V3.087H0z" transform="translate(0 -51.2) translate(44.254 80.788)"/>
            </g>
        </g>
        <g>
            <g>
                <path d="M0 0H2.058V3.087H0z" transform="translate(0 -51.2) translate(44.254 75.687)"/>
            </g>
        </g>
        <g>
            <g>
                <path d="M0 0H2.058V3.087H0z" transform="translate(0 -51.2) translate(44.254 70.585)"/>
            </g>
        </g>
        <g>
            <g>
                <path d="M0 0H2.058V3.087H0z" transform="translate(0 -51.2) translate(44.254 65.484)"/>
            </g>
        </g>
        <g>
            <g>
                <path d="M0 0H2.058V3.087H0z" transform="translate(0 -51.2) translate(44.254 60.382)"/>
            </g>
        </g>
        <g>
            <g>
                <path d="M0 0H12.35V2.058H0z" transform="translate(0 -51.2) translate(0 98.142)"/>
            </g>
        </g>
        <g>
            <g>
                <path d="M0 0H12.35V2.058H0z" transform="translate(0 -51.2) translate(49.4 98.142)"/>
            </g>
        </g>
        <g>
            <g>
                <path d="M0 0H2.058V21.612H0z" transform="translate(0 -51.2) translate(4.117 77.558)"/>
            </g>
        </g>
        <g>
            <g>
                <path d="M0 0H2.058V10.292H0z" transform="translate(0 -51.2) translate(.412 78.924) rotate(-53 1.647 .823)"/>
            </g>
        </g>
        <g>
            <g>
                <path d="M0 0H10.292V2.058H0z" transform="translate(0 -51.2) translate(.41 78.924) rotate(-36.883 9.262 3.089)"/>
            </g>
        </g>
        <g>
            <g>
                <path d="M0 0H2.058V21.612H0z" transform="translate(0 -51.2) translate(55.575 77.558)"/>
            </g>
        </g>
        <g>
            <g>
                <path d="M0 0H2.057V10.292H0z" transform="translate(0 -51.2) translate(51.87 78.925) rotate(-53 1.646 .823)"/>
            </g>
        </g>
        <g>
            <g>
                <path d="M0 0H10.291V2.057H0z" transform="translate(0 -51.2) translate(51.864 78.93) rotate(-36.857 9.263 3.087)"/>
            </g>
        </g>
    </g>
</svg>
