<svg id="Group_497" data-name="Group 497" xmlns="http://www.w3.org/2000/svg" width="49.001" height="49" viewBox="0 0 49.001 49">
  <g id="Group_496" data-name="Group 496" transform="translate(0 0)">
    <g id="information_system_science" data-name="information system science" transform="translate(0 0)">
      <path id="Path_10357" data-name="Path 10357" d="M47.734,36.985V14.25a2.45,2.45,0,0,0-2.45-2.45H41.536a6.533,6.533,0,0,0-7.21-3.981,8.173,8.173,0,0,0-15.653,0A6.533,6.533,0,0,0,11.465,11.8H7.717a2.45,2.45,0,0,0-2.45,2.45V36.985L2,46.785v1.766A2.45,2.45,0,0,0,4.45,51h44.1A2.45,2.45,0,0,0,51,48.551V46.785ZM32.854,46.1l-.662-2.648a.817.817,0,0,0-.792-.618H21.6a.817.817,0,0,0-.792.618L20.146,46.1H3.949l2.723-8.167H46.329L49.051,46.1Zm-1.683,0H21.83l.408-1.633h8.525ZM17.517,20.784H19.15v3.745l-2.217,2.216a2.41,2.41,0,0,0-1.049-.245,2.45,2.45,0,1,0,2.45,2.45,2.41,2.41,0,0,0-.245-1.049l2.7-2.7V20.784h4.9v5.867a2.45,2.45,0,1,0,1.633,0V20.784h4.9v4.421l2.7,2.7a2.41,2.41,0,0,0-.245,1.05,2.45,2.45,0,1,0,2.45-2.45,2.41,2.41,0,0,0-1.049.245l-2.217-2.216V20.784h1.633A6.541,6.541,0,0,0,41.536,16.7h1.3V33.034H10.167V16.7h1.3a6.541,6.541,0,0,0,6.052,4.083ZM16.7,28.95a.817.817,0,1,1-.817-.817A.817.817,0,0,1,16.7,28.95Zm10.617,0a.817.817,0,1,1-.817-.817A.817.817,0,0,1,27.317,28.95Zm9.8-.817a.817.817,0,1,1-.817.817A.817.817,0,0,1,37.117,28.134ZM17.517,9.35a4.818,4.818,0,0,1,1.5.237.817.817,0,0,0,1.058-.626,6.533,6.533,0,0,1,12.849,0,.817.817,0,0,0,1.062.626,4.818,4.818,0,0,1,1.5-.237,4.9,4.9,0,1,1,0,9.8H17.517a4.9,4.9,0,1,1,0-9.8ZM6.9,14.25a.817.817,0,0,1,.817-.817H11.04a5.946,5.946,0,0,0,0,1.633H9.35a.817.817,0,0,0-.817.817V33.85a.817.817,0,0,0,.817.817h34.3a.817.817,0,0,0,.817-.817V15.884a.817.817,0,0,0-.817-.817h-1.69a5.946,5.946,0,0,0,0-1.633h3.323a.817.817,0,0,1,.817.817V36.3H6.9ZM48.551,49.367H4.45a.817.817,0,0,1-.817-.817v-.817H49.367v.817A.817.817,0,0,1,48.551,49.367Z" transform="translate(-2 -2.001)"/>
      <path id="Path_10358" data-name="Path 10358" d="M37,48h1.633v1.633H37Z" transform="translate(-8.416 -10.434)"/>
      <path id="Path_10359" data-name="Path 10359" d="M9,48h1.633v1.633H9Z" transform="translate(-3.283 -10.434)"/>
      <path id="Path_10360" data-name="Path 10360" d="M13,48h1.633v1.633H13Z" transform="translate(-4.017 -10.434)"/>
      <path id="Path_10361" data-name="Path 10361" d="M17,48h1.633v1.633H17Z" transform="translate(-4.75 -10.434)"/>
      <path id="Path_10362" data-name="Path 10362" d="M21,48h1.633v1.633H21Z" transform="translate(-5.483 -10.434)"/>
      <path id="Path_10363" data-name="Path 10363" d="M41,48h1.633v1.633H41Z" transform="translate(-9.149 -10.434)"/>
      <path id="Path_10364" data-name="Path 10364" d="M45,48h1.633v1.633H45Z" transform="translate(-9.883 -10.434)"/>
      <path id="Path_10365" data-name="Path 10365" d="M49,48h1.633v1.633H49Z" transform="translate(-10.616 -10.434)"/>
      <path id="Path_10366" data-name="Path 10366" d="M25,48h1.633v1.633H25Z" transform="translate(-6.216 -10.434)"/>
      <path id="Path_10367" data-name="Path 10367" d="M29,48h1.633v1.633H29Z" transform="translate(-6.95 -10.434)"/>
      <path id="Path_10368" data-name="Path 10368" d="M33,48h1.633v1.633H33Z" transform="translate(-7.683 -10.434)"/>
      <path id="Path_10369" data-name="Path 10369" d="M53,48h1.633v1.633H53Z" transform="translate(-11.349 -10.434)"/>
      <path id="Path_10370" data-name="Path 10370" d="M41,52h4.9v1.633H41Z" transform="translate(-9.149 -11.167)"/>
      <path id="Path_10371" data-name="Path 10371" d="M49,52h1.633v1.633H49Z" transform="translate(-10.616 -11.167)"/>
      <path id="Path_10372" data-name="Path 10372" d="M53,52h1.633v1.633H53Z" transform="translate(-11.349 -11.167)"/>
      <path id="Path_10373" data-name="Path 10373" d="M9,52h1.633v1.633H9Z" transform="translate(-3.283 -11.167)"/>
      <path id="Path_10374" data-name="Path 10374" d="M13,52h1.633v1.633H13Z" transform="translate(-4.017 -11.167)"/>
      <path id="Path_10375" data-name="Path 10375" d="M17,52h4.9v1.633H17Z" transform="translate(-4.75 -11.167)"/>
    </g>
  </g>
</svg>
