<svg id="international_management" data-name="international management" xmlns="http://www.w3.org/2000/svg" width="42.979" height="49" viewBox="0 0 42.979 49">
  <path id="Path_10292" data-name="Path 10292" d="M58.973,28.216c-.1,0-.2.008-.317.008A4.275,4.275,0,0,0,55.7,29.478a4.087,4.087,0,0,0-1.21,2.908,4.168,4.168,0,0,0,4.156,4.156h4.7a.718.718,0,0,1,0,1.435h-4.7a5.574,5.574,0,0,1-3.961-9.514,5.7,5.7,0,0,1,3.068-1.587,2.444,2.444,0,0,1-.521-1.511V22.509A2.462,2.462,0,0,1,59.5,20.056a2.513,2.513,0,0,1-.024-.353V17.821a1.7,1.7,0,0,1,1.7-1.7h2.534a.718.718,0,0,1,.716.719V19.7a2.514,2.514,0,0,1-.024.353,2.451,2.451,0,0,1,1.552.714,2.626,2.626,0,0,1,.45.613,20.08,20.08,0,0,1,2.1-1.245,21.591,21.591,0,0,1,2.6-1.126,20.073,20.073,0,0,0-14.959-11.3c-.415,1.24-.879,2.612-1.308,3.847-.377,1.088-.705,2.008-.911,2.537A6.8,6.8,0,0,1,52.2,16.852a4.823,4.823,0,0,1-2.941,1.11,8.359,8.359,0,0,0-1.4.206.715.715,0,0,1-.353-1.386,9.566,9.566,0,0,1,1.639-.249,3.484,3.484,0,0,0,2.113-.762A5.5,5.5,0,0,0,52.6,13.575c.223-.57.54-1.462.9-2.482.369-1.066.8-2.344,1.21-3.562-.581-.049-1.167-.076-1.761-.076a20.139,20.139,0,0,0-5.046.637,19.915,19.915,0,0,0-4.4,1.723,2.479,2.479,0,0,1-.656,1.172,2.5,2.5,0,0,1-1.02.616v3.709a2.464,2.464,0,0,1-2.461,2.461H38.315a2.464,2.464,0,0,1-2.146-1.259,19.869,19.869,0,0,0-2.192,4.468c-.092.263-.176.529-.258.8h5.7c1.687,0,2.737-.857,3.885-2.054.364-.383.738-.76,1.126-1.118a.717.717,0,0,1,.971,1.055c-.369.339-.722.695-1.066,1.055-1.449,1.511-2.789,2.5-4.907,2.5H33.35a20.191,20.191,0,0,0-.461,4.3,19.972,19.972,0,0,0,2.081,8.9h6.079a2.445,2.445,0,0,1-.225-1.025V32.532A2.467,2.467,0,0,1,43.1,30.077a2.473,2.473,0,0,1-.024-.35V27.842a1.7,1.7,0,0,1,1.7-1.7h2.534a.718.718,0,0,1,.719.719v2.868a2.469,2.469,0,0,1-.027.35,2.467,2.467,0,0,1,2.273,2.455v2.857a2.463,2.463,0,0,1-1.742,2.352v2.206a7.642,7.642,0,0,0,1.2,1.107,2.594,2.594,0,0,0,1.481.5,5.7,5.7,0,0,1,1.435.174.714.714,0,1,1-.355,1.384,4.749,4.749,0,0,0-1.091-.127,3.957,3.957,0,0,1-2.281-.749c-.146-.1-.29-.212-.426-.325a2.468,2.468,0,0,1-2.42,2.008H45.026a2.464,2.464,0,0,1-2.461-2.461v-3.6H35.757a20.25,20.25,0,0,0,3.006,3.841,20.076,20.076,0,0,0,16.654,5.721c-.071-.185-.138-.364-.206-.537-.157-.41-.293-.751-.4-1a9.877,9.877,0,0,0-.521-1.077.715.715,0,1,1,1.243-.708,10.938,10.938,0,0,1,.6,1.232c.119.279.258.632.415,1.036.095.244.2.521.315.822a20.008,20.008,0,0,0,10.265-5.491,20.239,20.239,0,0,0,2.93-3.714H66.593a.718.718,0,0,1,0-1.435h4.262a20.115,20.115,0,0,0,.819-16.212,19.93,19.93,0,0,0-2.509,1.083,18.554,18.554,0,0,0-2.485,1.53v2.423a2.471,2.471,0,0,1-1.742,2.355v3.711a2.464,2.464,0,0,1-2.461,2.458H61.434a2.464,2.464,0,0,1-2.461-2.458ZM43.816,31.494a3.15,3.15,0,0,1-.532.014,1.028,1.028,0,0,0-1.025,1.025v2.857a1.028,1.028,0,0,0,1.025,1.025.716.716,0,0,1,.716.716v4.322a1.028,1.028,0,0,0,1.025,1.025h1.045A1.028,1.028,0,0,0,47.1,41.452V37.131a.716.716,0,0,1,.719-.716,1.028,1.028,0,0,0,1.023-1.025V32.533a1.028,1.028,0,0,0-1.023-1.025c-.171,0-.38.013-.543,0a2.469,2.469,0,0,1-3.456-.011Zm2.466-1.031a1.038,1.038,0,0,0,.307-.735V27.576H44.774a.27.27,0,0,0-.266.266v1.886a1.047,1.047,0,0,0,1.042,1.042,1.027,1.027,0,0,0,.733-.307ZM41.312,3.586a2.541,2.541,0,0,1-.024.353,2.463,2.463,0,0,1,2.273,2.453V8.177a21.139,21.139,0,0,1,3.977-1.468,21.566,21.566,0,1,1-11.684,7.778V11.6A2.477,2.477,0,0,1,34.11,9.248V6.392a2.467,2.467,0,0,1,2.276-2.453,2.542,2.542,0,0,1-.027-.353V1.7a1.7,1.7,0,0,1,1.7-1.7H40.6a.718.718,0,0,1,.716.719Zm-.754,1.777A2.466,2.466,0,0,1,37.1,5.352a3.182,3.182,0,0,1-.534.014,1.028,1.028,0,0,0-1.023,1.025V9.248a1.028,1.028,0,0,0,1.023,1.025.718.718,0,0,1,.719.716v4.322a1.019,1.019,0,0,0,.3.724,1.03,1.03,0,0,0,.724.3h1.045a1.033,1.033,0,0,0,1.025-1.025V10.99a.715.715,0,0,1,.716-.716,1.028,1.028,0,0,0,1.025-1.025V6.392A1.028,1.028,0,0,0,41.1,5.366c-.168,0-.377.013-.543,0Zm-.987-1.042a1.038,1.038,0,0,0,.307-.735V1.435H38.062A.269.269,0,0,0,37.8,1.7V3.586a1.038,1.038,0,0,0,1.774.735ZM60.224,21.472a3.472,3.472,0,0,1-.532.011,1.033,1.033,0,0,0-1.025,1.025v2.857a1.031,1.031,0,0,0,.3.724,1.019,1.019,0,0,0,.724.3.718.718,0,0,1,.716.719v4.322a1.028,1.028,0,0,0,1.025,1.023h1.045A1.028,1.028,0,0,0,63.5,31.431V27.11a.718.718,0,0,1,.719-.719,1.028,1.028,0,0,0,1.023-1.025V22.509a1.033,1.033,0,0,0-1.023-1.025c-.171,0-.38.013-.543,0a2.473,2.473,0,0,1-3.456-.008Zm2.466-1.034A1.029,1.029,0,0,0,63,19.7V17.552H61.181a.27.27,0,0,0-.266.269V19.7a1.038,1.038,0,0,0,1.774.735Z" transform="translate(-31.454 0)"/>
</svg>
