<svg xmlns="http://www.w3.org/2000/svg" width="42.117" height="48.597" viewBox="0 0 42.117 48.597">
    <g>
        <g>
            <path d="M61.176 42.393a7.059 7.059 0 0 1 1.146-3.029.74.74 0 0 0 .039-.081c13.1-7.688 13.885-24.487 13.892-24.674a.809.809 0 0 0-.6-.811 15.421 15.421 0 0 1-4.319-1.944A2.426 2.426 0 0 0 68.03 9.1a20.2 20.2 0 0 1-2.506-3.276c-.013-.022-.028-.043-.043-.063a17.457 17.457 0 0 1-1.407-2.745C63.766.947 59.334 0 55.194 0s-8.571.947-8.88 3.013a17.457 17.457 0 0 1-1.407 2.745l-.043.063A20.2 20.2 0 0 1 42.359 9.1a2.423 2.423 0 0 0-3.307 2.756 15.425 15.425 0 0 1-4.318 1.944.809.809 0 0 0-.6.811c.007.186.789 16.985 13.892 24.674a.751.751 0 0 0 .039.081 7.145 7.145 0 0 1 1.142 3.029c-5.162.482-7.784 1.477-7.784 2.964 0 3.083 11.47 3.24 13.769 3.24s13.769-.156 13.769-3.24c.003-1.489-2.62-2.485-7.785-2.966zm7.788-31.863a.81.81 0 1 1-.81.81.811.811 0 0 1 .81-.811zm-1.62 3.645a1.215 1.215 0 1 1-1.215-1.215 1.215 1.215 0 0 1 1.215 1.214zM55.194 1.62c4.7 0 7.123 1.161 7.287 1.62-.164.458-2.592 1.62-7.287 1.62-4.738 0-7.167-1.183-7.291-1.608.125-.452 2.554-1.632 7.291-1.632zm-8.975 5.094l.033-.049c.436-.7.772-1.327 1.024-1.837a6.113 6.113 0 0 0 1.449.725.782.782 0 0 0 .177.062 20.724 20.724 0 0 0 6.293.865 20.724 20.724 0 0 0 6.293-.865.786.786 0 0 0 .175-.061 6.115 6.115 0 0 0 1.451-.725c.252.51.588 1.136 1.024 1.837l.033.049a21.8 21.8 0 0 0 2.665 3.478 2.4 2.4 0 0 0-.3 1.148v.041a2.791 2.791 0 0 0-.409-.041 2.829 2.829 0 0 0-2.806 2.554 3.2 3.2 0 0 0-.838-.124 3.239 3.239 0 0 0-3.183 2.67 3.562 3.562 0 0 0-4.107 1.14 3.562 3.562 0 0 0-4.107-1.14 3.239 3.239 0 0 0-3.182-2.672 3.2 3.2 0 0 0-.838.124 2.829 2.829 0 0 0-2.806-2.554 2.79 2.79 0 0 0-.409.041v-.041a2.4 2.4 0 0 0-.3-1.148 21.808 21.808 0 0 0 2.668-3.477zM64.1 17.009a1.62 1.62 0 1 1-1.62-1.62 1.62 1.62 0 0 1 1.62 1.62zm-4.05 2.835a2.025 2.025 0 1 1-2.025-2.025 2.025 2.025 0 0 1 2.029 2.025zm-5.67 0a2.025 2.025 0 1 1-2.025-2.025 2.025 2.025 0 0 1 2.03 2.025zm-4.86-2.835a1.62 1.62 0 1 1-1.62-1.62 1.62 1.62 0 0 1 1.625 1.62zm-5.265-4.05a1.215 1.215 0 1 1-1.215 1.215 1.215 1.215 0 0 1 1.22-1.215zm-2.835-2.43a.81.81 0 1 1-.81.81.81.81 0 0 1 .815-.81zm-5.62 4.643a17.052 17.052 0 0 0 4.113-1.945 2.406 2.406 0 0 0 1.511.542h.041a2.8 2.8 0 0 0-.041.409 2.838 2.838 0 0 0 2.835 2.835 2.789 2.789 0 0 0 .409-.041v.041a3.243 3.243 0 0 0 3.24 3.24 3.2 3.2 0 0 0 .838-.124 3.616 3.616 0 0 0 6.451 1.981 3.616 3.616 0 0 0 6.451-1.981 3.2 3.2 0 0 0 .838.124 3.243 3.243 0 0 0 3.24-3.24v-.041a2.791 2.791 0 0 0 .409.041 2.838 2.838 0 0 0 2.835-2.835 2.8 2.8 0 0 0-.041-.409h.041a2.406 2.406 0 0 0 1.511-.542 17.043 17.043 0 0 0 4.114 1.945c-.306 3.377-2.531 19.484-17.223 24.641a6.619 6.619 0 0 1-4.341 0C38.353 34.664 36.112 18.55 35.8 15.172zm19.393 31.8c-7.051 0-11.107-.994-12.02-1.616.512-.335 2.191-.969 6.059-1.344a6.723 6.723 0 0 1-.213 1.121.81.81 0 1 0 1.56.438 8.463 8.463 0 0 0-.161-5.073c.666.3 1.35.587 2.072.84a8.252 8.252 0 0 0 5.41 0c.721-.253 1.4-.539 2.07-.839a8.461 8.461 0 0 0-.162 5.073.81.81 0 1 0 1.56-.438 6.8 6.8 0 0 1-.215-1.121c3.869.375 5.549 1.008 6.061 1.344-.914.626-4.969 1.62-12.02 1.62z" transform="translate(-34.136) translate(34.136) translate(-34.136)"/>
        </g>
    </g>
</svg>
