<svg id="law" xmlns="http://www.w3.org/2000/svg" width="49" height="49" viewBox="0 0 49 49">
  <g id="Group_462" data-name="Group 462" transform="translate(9.638 16.405)">
    <g id="Group_461" data-name="Group 461">
      <path id="Path_10267" data-name="Path 10267" d="M102.338,171.7a.957.957,0,1,0,0,1.353A.958.958,0,0,0,102.338,171.7Z" transform="translate(-100.704 -171.42)"/>
    </g>
  </g>
  <g id="Group_464" data-name="Group 464" transform="translate(0 37.515)">
    <g id="Group_463" data-name="Group 463">
      <path id="Path_10268" data-name="Path 10268" d="M24.232,397.321a3.35,3.35,0,0,0-2.7-5.334H5.264a3.347,3.347,0,0,0-2.7,5.333A4.789,4.789,0,0,0,0,401.557v.957a.957.957,0,0,0,.957.957H25.839a.957.957,0,0,0,.957-.957v-.957A4.789,4.789,0,0,0,24.232,397.321Zm-19.984-3a1.426,1.426,0,0,1,1.015-.42H21.533a1.436,1.436,0,1,1,0,2.871H5.264a1.436,1.436,0,0,1-1.015-2.451Zm-2.334,7.236a2.874,2.874,0,0,1,2.871-2.871H22.011a2.874,2.874,0,0,1,2.871,2.871Z" transform="translate(0 -391.987)"/>
    </g>
  </g>
  <g id="Group_466" data-name="Group 466" transform="translate(0.002 0)">
    <g id="Group_465" data-name="Group 465">
      <path id="Path_10269" data-name="Path 10269" d="M48.129,40.208a6.027,6.027,0,0,0-1.153-1.324l-4.472-3.9a.95.95,0,0,0-.381-.332l-2.7-2.359L26.9,21.375a2.866,2.866,0,0,0-.841-4.571l1.158-1.158a3.83,3.83,0,0,0,3.7-.989,3.827,3.827,0,0,0,0-5.414l-8.12-8.12a3.827,3.827,0,0,0-6.4,3.7L4.838,16.372a3.852,3.852,0,0,0-.991-.13A3.828,3.828,0,0,0,1.14,22.777l8.12,8.12a3.827,3.827,0,0,0,6.4-3.7l1.156-1.156a2.872,2.872,0,0,0,4.572.839L34.724,42.2a.961.961,0,0,0,.13.162c.017.017.035.033.053.048l3.973,4.565c.1.117.2.231.314.341A5.692,5.692,0,0,0,43.239,49a5.874,5.874,0,0,0,.806-.056,5.791,5.791,0,0,0,4.273-2.958A5.663,5.663,0,0,0,48.129,40.208ZM18.734,2.476a1.913,1.913,0,0,1,2.707,0l8.12,8.12A1.914,1.914,0,0,1,26.855,13.3L18.735,5.183h0A1.916,1.916,0,0,1,18.734,2.476ZM13.321,29.544a1.916,1.916,0,0,1-2.707,0l-8.12-8.12A1.914,1.914,0,0,1,5.2,18.716l8.122,8.122A1.915,1.915,0,0,1,13.321,29.544Zm4.029-6.736-2.676,2.676L6.554,17.363,17.381,6.536,25.5,14.657l-2.681,2.681-.026.025-5.411,5.411Zm3.417,2-.006.006-.674.674a.957.957,0,0,1-1.365-1.342l5.436-5.436a.957.957,0,0,1,1.624.687.948.948,0,0,1-.281.677l-.67.67-.014.014Zm1.982.725,2.8-2.8,11.843,10.33-4.321,4.322Zm11.578,13.3,4.508-4.508,1.446,1.261-4.694,4.694Zm12.32,6.221a3.893,3.893,0,0,1-2.865,2,3.8,3.8,0,0,1-3.235-1.085c-.074-.074-.144-.15-.21-.228l-.009-.011-3.482-4,4.88-4.88,4,3.485.009.008a4.12,4.12,0,0,1,.79.909A3.779,3.779,0,0,1,46.648,45.052Z" transform="translate(-0.021 -0.001)"/>
    </g>
  </g>
  <g id="Group_468" data-name="Group 468" transform="translate(12.344 9.638)">
    <g id="Group_467" data-name="Group 467">
      <path id="Path_10270" data-name="Path 10270" d="M134.68,100.988a.957.957,0,0,0-1.353,0l-4.061,4.061a.957.957,0,0,0,1.353,1.353l4.061-4.061A.957.957,0,0,0,134.68,100.988Z" transform="translate(-128.985 -100.707)"/>
    </g>
  </g>
</svg>
