<svg xmlns="http://www.w3.org/2000/svg" width="39.815" height="39.88" viewBox="0 0 39.815 39.88">
    <g>
        <path d="M37.091 14.678a10.27 10.27 0 0 0-7.4-2.89 10.018 10.018 0 0 0-4.844 1.237v-9.2A3.827 3.827 0 0 0 21.021 0H3.823A3.827 3.827 0 0 0 0 3.822V14.78a3.827 3.827 0 0 0 3.823 3.82h6.82l5.457 4.289a.779.779 0 0 0 1.237-.8l-.873-3.489h3.654a10.029 10.029 0 0 0-.555 3.31v11.1c0 4.3 1.932 6.867 5.168 6.867 4.689 0 6.245-3.292 7.174-5.258l.023-.049a9.548 9.548 0 0 1 3.7-4.062c2.121-1.482 4.124-2.882 4.184-8.589a9.872 9.872 0 0 0-2.722-7.243zm-21.626 2.368a.779.779 0 0 0-.755.968l.563 2.244-3.879-3.046a.78.78 0 0 0-.481-.166H3.822a2.268 2.268 0 0 1-2.264-2.266V3.822a2.268 2.268 0 0 1 2.264-2.265h17.2a2.268 2.268 0 0 1 2.265 2.265V14.78a2.268 2.268 0 0 1-2.265 2.265zM38.256 21.9c-.051 4.906-1.582 5.975-3.519 7.329a11.134 11.134 0 0 0-4.217 4.672l-.023.049c-.871 1.843-2.064 4.367-5.766 4.367-3.141 0-3.61-3.327-3.61-5.31v-11.1a8.47 8.47 0 0 1 .7-3.4 3.828 3.828 0 0 0 3.019-3.666 8.475 8.475 0 0 1 4.846-1.507 8.729 8.729 0 0 1 6.3 2.429 8.35 8.35 0 0 1 2.272 6.13zm0 0"/>
        <path d="M305.075 218.115a.779.779 0 1 0 1.39-.7 5.613 5.613 0 0 0-1.02-1.419 6.371 6.371 0 0 0-4.592-1.794 6.265 6.265 0 0 0-5.912 6.9c.1.576.648.827 1.284 1.118a3.434 3.434 0 0 1 2 1.7c.532 1.226.289 2.23-.965 3.982a.779.779 0 1 0 1.267.907c1.316-1.837 2.01-3.477 1.127-5.51a4.9 4.9 0 0 0-2.783-2.5c-.122-.056-.3-.137-.427-.2a4.754 4.754 0 0 1 4.408-4.842 4.828 4.828 0 0 1 3.485 1.333 4.046 4.046 0 0 1 .738 1.025zm0 0" transform="translate(-271.907 -197.516)"/>
        <path d="M405.218 285.52a.779.779 0 0 0-.779.779c0 1.69-.271 3-1.594 3.929a.779.779 0 1 0 .892 1.277c1.991-1.391 2.26-3.412 2.26-5.206a.779.779 0 0 0-.779-.779zm0 0" transform="translate(-371.161 -263.281)"/>
        <path d="M60.927 57.558H75.4a.779.779 0 1 0 0-1.558H60.927a.779.779 0 0 0 0 1.558zm0 0" transform="translate(-55.464 -51.639)"/>
        <path d="M246.783 112a.779.779 0 1 0 .551.228.783.783 0 0 0-.551-.228zm0 0" transform="translate(-226.843 -103.277)"/>
        <path d="M60.927 113.558h11.36a.779.779 0 1 0 0-1.558h-11.36a.779.779 0 1 0 0 1.558zm0 0" transform="translate(-55.464 -103.277)"/>
        <path d="M112.151 168h-11.372a.779.779 0 0 0 0 1.558h11.372a.779.779 0 0 0 0-1.558zm0 0" transform="translate(-92.211 -154.915)"/>
        <path d="M60.844 168h-.065a.779.779 0 0 0 0 1.558h.065a.779.779 0 0 0 0-1.558zm0 0" transform="translate(-55.327 -154.915)"/>
    </g>
</svg>
