<svg xmlns="http://www.w3.org/2000/svg" width="17.17" height="24.419" viewBox="0 0 17.17 24.419">
    <g>
        <g>
            <g>
                <path d="M84.585 0a8.587 8.587 0 0 0-7.3 13.1L84.1 24.081a.715.715 0 0 0 .608.338h.006a.715.715 0 0 0 .608-.348l6.641-11.088A8.587 8.587 0 0 0 84.585 0zm6.146 12.249L84.693 22.33l-6.2-9.984a7.159 7.159 0 1 1 12.234-.1z" transform="translate(-76) translate(76) translate(-76)"/>
            </g>
        </g>
        <g>
            <g>
                <path d="M170.292 90a4.292 4.292 0 1 0 4.292 4.292A4.3 4.3 0 0 0 170.292 90zm0 7.164a2.871 2.871 0 1 1 2.866-2.871 2.873 2.873 0 0 1-2.866 2.871z" transform="translate(-76) translate(80.292 4.292) translate(-166 -90)"/>
            </g>
        </g>
    </g>
</svg>
