<svg xmlns="http://www.w3.org/2000/svg" width="48.196" height="49" viewBox="0 0 48.196 49">
  <g id="marketing" transform="translate(-2 -1)">
    <path id="Path_10392" data-name="Path 10392" d="M30.115,49.672H28.508V41.8a.8.8,0,1,0-1.607,0v7.872H6.016V33.607H12.7A.8.8,0,1,0,12.7,32H5.213a.8.8,0,0,0-.8.8V49.672H2.8a.8.8,0,0,0-.8.8v1.607A4.016,4.016,0,0,0,6.016,56.1H26.9a4.016,4.016,0,0,0,4.016-4.016V50.475A.8.8,0,0,0,30.115,49.672Zm-.8,2.41a2.41,2.41,0,0,1-2.41,2.41H25.3v-.8a.8.8,0,1,0-1.607,0v.8H9.23v-.8a.8.8,0,1,0-1.607,0v.8H6.016a2.41,2.41,0,0,1-2.41-2.41v-.8h25.7Z" transform="translate(0 -6.098)"/>
    <path id="Path_10393" data-name="Path 10393" d="M53.016,7.607h1.607a.8.8,0,0,0,0-1.607H53.016a2.41,2.41,0,0,0-2.41,2.41v.8h-.8a.8.8,0,1,0,0,1.607h.8v2.41a.8.8,0,0,0,1.607,0V10.82h.8a.8.8,0,1,0,0-1.607h-.8v-.8A.8.8,0,0,1,53.016,7.607Z" transform="translate(-9.246 -0.984)"/>
    <path id="Path_10394" data-name="Path 10394" d="M56.049,2H46.41A2.41,2.41,0,0,0,44,4.41V6.016a.8.8,0,1,0,1.607,0V4.41a.8.8,0,0,1,.8-.8h9.639a.8.8,0,0,1,.8.8v9.639a.8.8,0,0,1-.8.8H46.41a.8.8,0,0,1-.8-.8V9.23A.8.8,0,1,0,44,9.23v4.82a2.41,2.41,0,0,0,2.41,2.41h9.639a2.41,2.41,0,0,0,2.41-2.41V4.41A2.41,2.41,0,0,0,56.049,2Z" transform="translate(-8.262 -0.197)"/>
    <path id="Path_10395" data-name="Path 10395" d="M49,41.213A3.213,3.213,0,1,0,52.213,38,3.213,3.213,0,0,0,49,41.213Zm4.82,0a1.607,1.607,0,1,1-1.607-1.607A1.607,1.607,0,0,1,53.82,41.213Z" transform="translate(-9.246 -7.279)"/>
    <path id="Path_10396" data-name="Path 10396" d="M56.049,33H46.41A2.41,2.41,0,0,0,44,35.41v9.639a2.41,2.41,0,0,0,2.41,2.41h9.639a2.41,2.41,0,0,0,2.41-2.41V43.443a.8.8,0,0,0-1.607,0v1.607a.8.8,0,0,1-.8.8H46.41a.8.8,0,0,1-.8-.8V35.41a.8.8,0,0,1,.8-.8h9.639a.8.8,0,0,1,.8.8v4.82a.8.8,0,1,0,1.607,0V35.41A2.41,2.41,0,0,0,56.049,33Z" transform="translate(-8.262 -6.295)"/>
    <path id="Path_10397" data-name="Path 10397" d="M24.378,12.306a.8.8,0,0,0,.787.032l4.82-2.41a.8.8,0,0,0,0-1.43l-4.82-2.41A.8.8,0,0,0,24,6.8v4.82A.8.8,0,0,0,24.378,12.306Zm1.229-4.2,2.217,1.109-2.217,1.109Z" transform="translate(-4.328 -0.984)"/>
    <path id="Path_10398" data-name="Path 10398" d="M25.23,15.459A7.23,7.23,0,1,0,18,8.23,7.23,7.23,0,0,0,25.23,15.459Zm0-12.852A5.623,5.623,0,1,1,19.607,8.23,5.623,5.623,0,0,1,25.23,2.607Z" transform="translate(-3.148)"/>
    <path id="Path_10399" data-name="Path 10399" d="M36.8,21.82a.8.8,0,0,0,.643-.321l2.41-3.213a.8.8,0,1,0-1.285-.964l-2.41,3.213A.8.8,0,0,0,36.8,21.82Z" transform="translate(-6.689 -3.148)"/>
    <path id="Path_10400" data-name="Path 10400" d="M39.161,25.7a.8.8,0,0,0,1.125.161l3.213-2.41a.8.8,0,1,0-.964-1.285l-3.213,2.41a.8.8,0,0,0-.161,1.125Z" transform="translate(-7.279 -4.131)"/>
    <path id="Path_10401" data-name="Path 10401" d="M47.6,28.638A.8.8,0,0,0,46.638,28l-4.016.8a.807.807,0,0,0,.161,1.607h.161l4.016-.8a.8.8,0,0,0,.643-.964Z" transform="translate(-7.848 -5.307)"/>
    <path id="Path_10402" data-name="Path 10402" d="M2.8,25.459h9.639a.8.8,0,0,0,.8-.8V11.8a.8.8,0,0,0-.8-.8H2.8a.8.8,0,0,0-.8.8V24.656A.8.8,0,0,0,2.8,25.459Zm.8-12.852h8.033V23.852H3.607Z" transform="translate(0 -1.967)"/>
    <path id="Path_10403" data-name="Path 10403" d="M10.41,15H8.8a.8.8,0,0,0,0,1.607H10.41a.8.8,0,0,0,0-1.607Z" transform="translate(-1.18 -2.754)"/>
    <path id="Path_10404" data-name="Path 10404" d="M10.016,19H6.8a.8.8,0,1,0,0,1.607h3.213a.8.8,0,1,0,0-1.607Z" transform="translate(-0.787 -3.541)"/>
    <path id="Path_10405" data-name="Path 10405" d="M10.016,23H6.8a.8.8,0,1,0,0,1.607h3.213a.8.8,0,0,0,0-1.607Z" transform="translate(-0.787 -4.328)"/>
    <path id="Path_10406" data-name="Path 10406" d="M30.792,27.579a.806.806,0,0,0-1.4.8l3.542,6.129-12.852,4.82h-.12l-2.089,1.2-1.39.8a1.6,1.6,0,0,1-2.193-.586l-1.607-2.779a1.607,1.607,0,0,1,.6-2.121l2.779-1.607,2.008,3.478a.806.806,0,1,0,1.4-.8L17.4,33.339l10.081-8.314.329.57a.806.806,0,0,0,1.4-.8l-.8-1.39a.814.814,0,0,0-1.213-.217l-11.246,9.27-3.422,1.976a3.213,3.213,0,0,0-1.478,3.639l-.8.458a2.408,2.408,0,0,0,1.2,4.5,2.458,2.458,0,0,0,1.2-.321l.8-.458a3.117,3.117,0,0,0,1.406.835,3.044,3.044,0,0,0,.843.112,3.165,3.165,0,0,0,1.607-.434l.7-.4,1.607,2.787a2.408,2.408,0,1,0,4.169-2.41l-1.462-2.546,12.049-4.522a.806.806,0,0,0,.418-1.149ZM11.818,41.307a.8.8,0,1,1-.8-1.39l.7-.4.8,1.39Zm10.571,2.249a.8.8,0,0,1-1.39.8l-1.607-2.787,1.333-.763h.064Z" transform="translate(-1.384 -4.328)"/>
  </g>
</svg>
