<svg xmlns="http://www.w3.org/2000/svg" width="68.213" height="49" viewBox="0 0 68.213 49">
    <g>
        <g>
            <g>
                <path d="M67.128 88.683l-.186-1.083h-7.731l.246 1.445a75.805 75.805 0 0 1 .974 9.444H56.11V87.6a3.288 3.288 0 0 0-3.3-3.267h-2.2a1.1 1.1 0 0 1-1.1-1.089v-2.177a3.288 3.288 0 0 0-3.3-3.267h-8.8v-3.267h13.2V68H17.6v6.533h13.2V77.8h-7.436a3.287 3.287 0 0 0-2.953 1.805l-.985 1.948a1.093 1.093 0 0 1-.982.6H13.2a3.288 3.288 0 0 0-3.3 3.267v7.622H6.6v-8.709H0v23.956h6.6v-8.711h3.3v8.711a3.288 3.288 0 0 0 3.3 3.267h5.69a1.114 1.114 0 0 1 .778.319l4.212 4.168a3.293 3.293 0 0 0 2.334.957H52.81a3.288 3.288 0 0 0 3.3-3.267v-8.711h4.32c-.111 2.54-.344 5.059-.7 7.5l-.488 3.388h7.725l.444-3.079a78.513 78.513 0 0 0 .8-11.165 78.5 78.5 0 0 0-1.083-12.983zM9.9 97.4H4.4v8.711H2.2v-19.6h2.2v8.711h5.5zm9.9-25.044v-2.178h28.609v2.178h-13.2V77.8h-2.2v-5.444zm-3.3 37.022h-3.3a1.1 1.1 0 0 1-1.1-1.089V85.422a1.1 1.1 0 0 1 1.1-1.089h3.3v5.444h4.4a1.1 1.1 0 0 1 1.1 1.09v10.889a1.1 1.1 0 0 1-1.1 1.089h-4.4zm11 5.444h-1.284a1.116 1.116 0 0 1-.778-.319l-4.212-4.168a3.294 3.294 0 0 0-2.334-.957H18.7v-4.356h2.2a3.288 3.288 0 0 0 3.3-3.267V90.867a3.288 3.288 0 0 0-3.3-3.267h-2.2v-3.284a3.274 3.274 0 0 0 2.7-1.788l.985-1.948a1.1 1.1 0 0 1 .984-.6h4.141zm8.8 0h-2.2v-4.356h-2.2v4.356h-2.2v-11.978h2.2v5.444h2.2v-5.444h2.2zm4.4 0h-2.2v-11.978h2.2zm4.4 0h-2.2v-11.978h2.2zm8.8-1.089a1.1 1.1 0 0 1-1.1 1.089h-1.1V107.2h-2.2v7.622h-2.2v-11.978h2.2v2.178h2.2v-2.178h2.2zm0-13.067H29.7v-2.177h24.2zM38.5 96.31v-4.354h6.6v4.356zm15.4 0h-6.6v-6.532h-11v6.533h-6.6v-9.8h15.4v-2.178H29.7v-4.355h16.5a1.1 1.1 0 0 1 1.1 1.089v2.178a3.288 3.288 0 0 0 3.3 3.267h2.2a1.1 1.1 0 0 1 1.1 1.089zm11.322 16.212l-.174 1.21h-3.267l.13-.9a78.654 78.654 0 0 0 .76-8.867l.032-1.12H56.11v-2.178h6.59l-.03-1.118a78.9 78.9 0 0 0-.866-9.771h3.275a76.294 76.294 0 0 1 .935 11.888 76.123 76.123 0 0 1-.782 10.858z" transform="translate(0 -68) translate(0 68) translate(0 -68)"/>
            </g>
        </g>
        <g>
            <g>
                <path d="M0 0H2V2H0z" transform="translate(0 -68) translate(17.111 94.998)"/>
            </g>
        </g>
        <g>
            <g>
                <path d="M0 0H2V2H0z" transform="translate(0 -68) translate(32.111 92.03)"/>
            </g>
        </g>
        <g>
            <g>
                <path d="M0 0H2V2H0z" transform="translate(0 -68) translate(49.111 92.03)"/>
            </g>
        </g>
    </g>
</svg>
