<svg xmlns="http://www.w3.org/2000/svg" id="head-h1" width="434.791" height="52" viewBox="0 0 434.791 52">
    <defs>
        <style>
            .cls-1{fill:#e27f5b}.cls-2{fill:#ecab8c}.cls-3{fill:#fff}.cls-4{fill:#221714}.cls-5{fill:#d61518}.cls-6{fill:#991e23}.cls-7{fill:#878888}.cls-8{fill:#b3b3b4}.cls-9{fill:#f7d7c4}.cls-10{fill:#b91c22}.cls-11{fill:#77171b}.cls-14{fill:#231815}
        </style>
    </defs>
    <g id="Group_10">
        <g id="Group_9">
            <g id="Group_8">
                <g id="Group_7">
                    <path id="Path_2" d="M12.724 2.858h14.741l.324-1.458H12.4z" class="cls-1" transform="translate(6.391 -1.4)"/>
                    <path id="Path_3" d="M22.6 31.593l16.685-9.558-7.613-4.535c-4.374 2.592-8.91 5.184-8.91 5.184v8.91z" class="cls-2" transform="translate(12.715 8.581)"/>
                    <path id="Path_4" d="M34.509 1.9H19.443L1.3 12.43 19.443 22.8h15.066l18.143-10.37zm-15.39 10.53c3.888-2.268 5.508-3.078 7.614-4.374 2.268 1.3 3.888 2.268 7.776 4.374-3.888 2.27-5.509 3.077-7.776 4.37-2.106-1.293-3.726-2.264-7.614-4.37z" class="cls-2" transform="translate(-.49 -1.09)"/>
                    <path id="Path_5" d="M27.627 14.8H12.4l7.614 11.988z" class="cls-3" transform="translate(6.391 6.907)"/>
                    <path id="Path_6" d="M12.4 35.394h15.227L20.014 29.4z" class="cls-4" transform="translate(6.391 15.958)"/>
                    <path id="Path_7" d="M17.1 5.6v8.91c2.268-1.3 3.888-2.268 7.776-4.374C20.988 7.868 19.368 6.9 17.1 5.6z" class="cls-5" transform="translate(9.305 1.204)"/>
                    <path id="Path_8" d="M12.3 10.136c3.888 2.268 5.508 3.078 7.614 4.374V5.6c-2.106 1.3-3.726 2.268-7.614 4.536z" class="cls-4" transform="translate(6.329 1.204)"/>
                    <path id="Path_9" d="M14.414 20.7L6.8 25.074l7.614 4.374a77.273 77.273 0 0 0 0-8.748z" class="cls-2" transform="translate(2.92 10.565)"/>
                    <path id="Path_10" d="M6.8 17.9v8.91l7.614-4.374C12.308 21.14 10.688 20.168 6.8 17.9z" class="cls-4" transform="translate(2.92 8.829)"/>
                    <path id="Path_11" d="M19.281 18.768L1.3 8.4v29.645l18.143 10.367 7.457-5.993V30.755zm-1.3 18.467c-3.888-2.268-5.508-3.078-7.614-4.374v-8.91c3.888 2.268 5.508 3.24 7.614 4.536v8.748z" class="cls-5" transform="translate(-.49 2.94)"/>
                    <path id="Path_12" d="M26.072 28.325s16.361-9.558 16.685-9.72V8.4L24.614 18.768 17 30.755v11.664l7.614 5.994L42.6 38.045V27.677l-16.69 9.558v-8.91z" class="cls-6" transform="translate(9.243 2.94)"/>
                    <path id="Path_13" d="M6.4 25.622l1.944-.322c1.3-.81 4.374-2.592 5.67-3.24l1.3-1.458-1.944.324c-1.3.81-4.374 2.592-5.67 3.24z" class="cls-7" transform="translate(2.672 10.503)"/>
                    <path id="Path_14" d="M14.254 10.384c1.458-.81 5.832-3.4 6.318-3.726V5.2L11.5 10.384z" class="cls-3" transform="translate(5.833 .956)"/>
                    <path id="Path_15" d="M26.172 10.384L17.1 5.2v1.458c.486.324 4.86 2.916 6.48 3.726z" class="cls-1" transform="translate(9.305 .956)"/>
                    <path id="Path_16" d="M.8 8.1l1.3 1.62c1.782.972 16.685 9.558 17.009 9.72l.648-.324v-.81c-.324-.162-15.227-8.748-17.009-9.72z" class="cls-8" transform="translate(-.8 2.754)"/>
                    <path id="Path_17" d="M38.609 8.586c-1.782.972-16.685 9.558-16.847 9.72l-.162.81.81.324c.324-.162 15.227-8.748 17.009-9.72l1.3-1.62z" class="cls-3" transform="translate(12.095 2.754)"/>
                    <path id="Path_18" d="M2.906 12.678c1.782-.972 16.685-9.558 17.009-9.72L19.591 1.5C17.323 2.8 2.906 11.058.8 12.192z" class="cls-9" transform="translate(-.8 -1.338)"/>
                    <path id="Path_19" d="M40.491 12.192C38.385 11.058 24.13 2.8 22.024 1.5L21.7 2.958c.324.162 15.227 8.748 16.847 9.72z" class="cls-10" transform="translate(12.157 -1.338)"/>
                    <path id="Path_20" d="M20.177 36.93l-.648-.486C18.881 35.958 2.682 26.886 2.2 26.4l-1.3.81L19.529 37.9z" class="cls-6" transform="translate(-.738 14.098)"/>
                    <path id="Path_21" d="M21.5 36.93l.648.972L40.777 27.21l-1.3-.81c-.648.324-16.523 9.558-17.333 10.044z" class="cls-4" transform="translate(12.033 14.098)"/>
                    <path id="Path_22" d="M32.5 9.72v8.748l1.3.81V8.1z" class="cls-4" transform="translate(18.852 2.754)"/>
                    <path id="Path_23" d="M22.3 24.22s16.037-9.4 16.685-9.72l1.3.81c-.648.324-16.523 9.558-16.685 9.72z" class="cls-11" transform="translate(12.529 6.721)"/>
                    <path id="Path_24" d="M22.3 30.868V20.5l1.3.81v7.29z" class="cls-5" transform="translate(12.529 10.441)"/>
                    <path id="Path_25" d="M17.348 33.988l.81-.324V22.486l-.81-.486-.648.486v11.178z" class="cls-3" transform="translate(9.057 11.371)"/>
                    <path id="Path_26" d="M12.662 15.21l.972.486h12.635l.81-.486.162-.81H12.5z" class="cls-7" transform="translate(6.453 6.659)"/>
                    <path id="Path_27" d="M12.848 14.9l-.648.324 7.29 11.664.648-.486v-.972c-.324-.486-6.318-10.044-6.318-10.044z" class="cls-2" transform="translate(6.267 6.969)"/>
                    <path id="Path_28" d="M24.39 14.9l-.972.486S17.262 24.944 17.1 25.43v.97l.648.486 7.29-11.664z" class="cls-5" transform="translate(9.305 6.969)"/>
                    <path id="Path_29" fill="#595757" d="M27.2 33.024l-1.455-.324H14.406l-1.3.324L12.3 34h15.551z" transform="translate(6.329 18.004)"/>
                    <path id="Path_30" d="M20.014 29.524l-.648-.324c-.486.324-6.318 5.022-6.966 5.508l.648.486 1.3-.324c1.782-1.458 5.022-4.05 5.67-4.536z" class="cls-8" transform="translate(6.391 15.834)"/>
                    <path id="Path_31" d="M17.1 29.524v.81c.648.486 3.888 3.078 5.67 4.536l1.458.324.648-.486c-.648-.486-6.48-5.184-6.966-5.508z" class="cls-7" transform="translate(9.305 15.834)"/>
                    <path id="Path_32" d="M32.5 30.306v-8.748l1.3-1.458v11.016z" class="cls-11" transform="translate(18.852 10.193)"/>
                    <path id="Path_33" d="M40.181 20.1l-1.3 1.458c-1.458.81-13.121 7.614-16.685 9.558l1.3-2.268c1.62-.972 12.96-7.452 14.579-8.424z" class="cls-3" transform="translate(12.467 10.193)"/>
                    <path id="Path_34" d="M36.462 21.712L29.5 17.5l-1.3.81c.486.324 4.86 2.916 6.318 3.726z" class="cls-4" transform="translate(16.186 8.581)"/>
                    <path id="Path_35" d="M7.7 26.21v-6.48L6.4 17.3v10.53z" class="cls-6" transform="translate(2.672 8.457)"/>
                    <path id="Path_36" d="M14.014 23.294c-1.134-.648-5.346-3.078-6.314-3.564L6.4 17.3l8.91 5.346z" class="cls-10" transform="translate(2.672 8.457)"/>
                    <path id="Path_37" d="M11.1 21.31v7.29l1.3 2.268V20.5z" class="cls-9" transform="translate(5.585 10.441)"/>
                    <path id="Path_38" d="M8.344 23.5c1.134.648 4.7 2.754 5.67 3.24l1.3 2.268L6.4 23.824z" class="cls-3" transform="translate(2.672 12.301)"/>
                    <path id="Path_39" d="M17.348 5.2L16.7 7.144v6.642l.648 1.944.652-1.944v-6.48z" class="cls-7" transform="translate(9.057 .956)"/>
                    <path id="Path_40" d="M11.5 8.4l9.072 5.184v-1.458c-.648-.324-5.508-3.078-6.318-3.726z" class="cls-5" transform="translate(5.833 2.94)"/>
                    <path id="Path_41" d="M23.48 8.4c-.972.486-5.832 3.4-6.48 3.726v1.458L26.072 8.4z" class="cls-3" transform="translate(9.243 2.94)"/>
                </g>
            </g>
            <path id="Path_42" fill="#f4af8f" d="M2.2 37.745V9.72L.9 8.1v30.293z" transform="translate(-.738 2.754)"/>
        </g>
    </g>
    <g id="Group_17" transform="translate(62.044 .162)">
        <g id="Group_11" transform="translate(60.1 .324)">
            <path id="Path_43" d="M84.138 10.786H79.6l-.81 2.268H76.2L80.412 2.2h2.916l4.212 10.854h-2.592zM80.25 8.842h3.078l-1.62-4.374z" class="cls-14" transform="translate(-76.2 -1.39)"/>
            <path id="Path_44" d="M92.1 2.3v10.854h-1.944v-.81c-.162.162-.648.81-2.754.81-3.24 0-3.4-1.944-3.4-4.212 0-2.592.486-4.05 3.564-4.05 1.782 0 2.268.486 2.592.81V2.3zm-5.994 6.48c0 1.944.162 2.592 1.782 2.592 1.782 0 2.106-.162 2.106-2.106 0-2.268-.324-2.592-1.944-2.592S86.106 7 86.106 8.78" class="cls-14" transform="translate(-71.364 -1.328)"/>
            <path id="Path_45" d="M98.2 10.156c0 .972.162 1.458.162 1.944h-1.944a1.46 1.46 0 0 0-.162-.81c-.324.648-1.134.81-2.754.81-1.782 0-3.4 0-3.4-2.43 0-.81 0-2.43 2.106-2.592l3.564-.162c.162 0 .486 0 .486-.486 0-.81-.486-.81-1.782-.81-1.782 0-2.106 0-2.106.972h-2.108C90.262 4.324 91.558 4 94.15 4c2.43 0 3.888.162 3.888 2.592v3.564zm-1.944-1.944c0 .162-.162.324-.81.324l-2.592.164c-.81 0-.81.486-.81.81 0 .648.486.81 1.782.81s2.268 0 2.268-1.3v-.81z" class="cls-14" transform="translate(-67.583 -.274)"/>
            <path id="Path_46" d="M102.356 6.978c0-1.134-.486-1.3-1.782-1.3-1.944 0-2.268 0-2.268 2.268 0 1.944.162 2.268 1.944 2.268 1.458 0 2.106 0 2.106-1.458h2.106c0 2.916-1.134 3.4-3.888 3.4-3.4 0-4.374-.648-4.374-4.05 0-3.078.486-4.212 3.888-4.212 3.564 0 4.212.81 4.212 3.24h-1.944z" class="cls-14" transform="translate(-63.801 -.336)"/>
            <path id="Path_47" d="M104.568 2.3v3.564c.162-.324.648-.972 2.754-.972 2.268 0 3.078.81 3.078 2.754v5.346h-2.106V7.97c0-1.134-.81-1.3-1.782-1.3-1.458 0-2.106.324-2.106 1.62v4.7H102.3V2.3z" class="cls-14" transform="translate(-60.02 -1.328)"/>
            <path id="Path_48" d="M110.906 4.082H108.8V2.3h2.106zm0 8.91H108.8V5.054h2.106z" class="cls-14" transform="translate(-55.99 -1.328)"/>
            <path id="Path_49" d="M113.082 3.806a11.752 11.752 0 0 0-.81-1.458l2.106-.486a7.213 7.213 0 0 1 .972 1.944h1.62a5 5 0 0 0-.81-1.62l2.106-.486a5.661 5.661 0 0 1 .81 2.106h1.3a5.871 5.871 0 0 0 .81-2.106l2.268.486-.81 1.62h1.3v3.24h-1.782v.81a10.243 10.243 0 0 1-2.754 1.62h4.86v1.782h-5.346V13.2a1.323 1.323 0 0 1-1.3 1.458H114.7l-.324-1.944h1.944c.324 0 .486 0 .486-.486v-.81H111.3V9.476h5.508v-.648h.486a3.256 3.256 0 0 0 1.3-.648h-5.184V7.046h-1.782v-3.24zm8.91 1.782h-8.262V6.4h8.262z" class="cls-14" transform="translate(-54.44 -1.7)"/>
            <path id="Path_50" d="M132.45 14.536h-1.944v-.324h-8.262v.488H120.3V1.9h12.15v12.636zm-2.75-2.106h.81V3.682h-3.078v.486h2.592v.972h-2.592v.486h2.916V6.76h-7.776V5.626h2.916V5.14h-2.43v-.972h2.43v-.486h-3.078v8.91h3.078v-1.458a6.751 6.751 0 0 1-2.106 1.134l-.81-1.458a9.23 9.23 0 0 0 2.592-1.3h-1.944V7.246h6.966v2.268l.486.324c-.162.324-.486.486-.972.972a4.121 4.121 0 0 0 1.134.324zm-1.62-4.374h-3.564V8.7h3.564zm-.98 1.458a9.6 9.6 0 0 0 .972.648c.324-.324.648-.486.648-.648zm0 2.916h2.43a8.476 8.476 0 0 1-2.43-1.458z" class="cls-14" transform="translate(-48.861 -1.576)"/>
        </g>
        <g id="Group_16">
            <g id="Group_15">
                <g id="Group_12" transform="translate(0 18.305)">
                    <path id="Rectangle_31" d="M0 0H3.726V5.832H0z" class="cls-14" transform="translate(95.09 .81)"/>
                    <path id="Rectangle_32" d="M0 0H3.726V5.832H0z" class="cls-14" transform="translate(100.922 .81)"/>
                    <path id="Rectangle_33" d="M0 0H3.726V5.832H0z" class="cls-14" transform="translate(134.293 .81)"/>
                    <path id="Rectangle_34" d="M0 0H3.726V5.832H0z" class="cls-14" transform="translate(140.125 .81)"/>
                    <path id="Rectangle_35" d="M0 0H14.255V4.86H0z" class="cls-14" transform="translate(78.891 1.944)"/>
                    <path id="Path_51" d="M114.355 19.6H83.9v4.536h13.122v2.754a9.651 9.651 0 0 1-9.4 9.558v4.86a14.761 14.761 0 0 0 14.741-14.579v-2.593h11.988z" class="cls-14" transform="translate(-11.327 -8.584)"/>
                    <path id="Rectangle_36" d="M0 0H25.433V4.86H0z" class="cls-14" transform="translate(208.162 12.15)"/>
                    <path id="Path_52" d="M139.019 21.724h-8.586V13.3h-5.022v8.424H117.8V13.3h-5.184v8.424H105v4.536h7.614v6.48h5.186v-6.48h7.614v4.374a9.824 9.824 0 0 1-9.558 9.72v4.86a14.622 14.622 0 0 0 14.579-14.579v-4.376h8.586z" class="cls-14" transform="translate(1.754 -12.49)"/>
                    <path id="Path_53" d="M155.825 12.8L127.8 28.837v5.832l12.636-7.128v17.982h5.508V24.464l9.882-5.832z" class="cls-14" transform="translate(15.888 -12.8)"/>
                    <path id="Path_54" d="M253.171 17.026l2.592-3.726h-5.022l-2.754 3.726h-2.916l-1.458-3.726h-5.022l1.458 3.726h-2.43l-1.457-3.726h-5.022l1.458 3.726h-4.7v8.424h4.05v-4.86h22.193v4.86h4.05v-8.424z" class="cls-14" transform="translate(77.944 -12.49)"/>
                    <path id="Path_55" d="M90.665 17.188V13.3H72.036v22.679a4.429 4.429 0 0 1-4.536 4.536v4.7a10.15 10.15 0 0 0 5.994-2.268v2.268a17.221 17.221 0 0 0 11.826-4.7l5.508 5.508v-6.156l-2.754-2.754a17.56 17.56 0 0 0 2.592-9.234v-5.993H76.734v-4.86h13.931m-4.374 8.91v2.106a10.647 10.647 0 0 1-1.458 5.994l-6.642-6.642v6.156l3.888 3.888a10.976 10.976 0 0 1-6.8 3.4 9.9 9.9 0 0 0 1.3-4.86V25.774h9.72z" class="cls-14" transform="translate(-21.494 -12.49)"/>
                    <path id="Path_56" d="M177.379 21.724h-12.15V13.3h-5.346v8.424H146.6v4.86h13.283v4.374a9.651 9.651 0 0 1-9.4 9.558v4.86c8.586 0 14.579-6.318 14.741-14.579v-4.214h12.15z" class="cls-14" transform="translate(27.543 -12.49)"/>
                    <path id="Path_57" d="M216.813 33.163h-5.184v-1.3h2.592V20.2h-11.178v-1.3H216v-3.4h-12.957v-2.1h-4.536v2.106h-12.8v3.4h12.8v1.3h-11.015v11.661h19.6v1.3H184.9v3.4h22.193v2.754a1.6 1.6 0 0 1-1.62 1.458h-2.106v4.374h1.944a6.086 6.086 0 0 0 5.994-5.994v-2.594h5.184v-3.4m-17.981-4.212h-6.642v-1.62h6.642v1.62m0-4.374h-6.642v-1.62h6.642v1.62m4.536-1.62h6.966v1.62h-6.966v-1.62m0 4.374h6.966v1.62h-6.966z" class="cls-14" transform="translate(51.287 -12.428)"/>
                    <path id="Path_58" d="M188.2 32.236l7.128 4.05V31.75L188.2 27.7z" class="cls-14" transform="translate(53.333 -3.563)"/>
                    <path id="Path_59" d="M220.426 16.7h5.184v2.43h-5.184V16.7m0 7.29v-2.43h5.184v2.43h-5.184m10.044 14.579V13.3H216.7v14.255h9.072V39.7a1.192 1.192 0 0 1-1.3 1.3h-1.944v4.212h1.944a5.947 5.947 0 0 0 5.832-5.994z" class="cls-14" transform="translate(71.001 -12.49)"/>
                    <path id="Path_60" d="M258.193 27.424h-12.312v-.648L254.143 19h-20.087v3.4h10.854l-3.726 3.4v1.458H227.9v3.726h13.283v4.86a1.452 1.452 0 0 1-1.458 1.458h-2.105v4.374h2.106a5.98 5.98 0 0 0 5.994-5.994V31.15h12.312v-3.726z" class="cls-14" transform="translate(77.944 -8.956)"/>
                    <path id="Path_61" d="M74.374 13.3H61.9v31.913h4.05v-7.29a9.058 9.058 0 0 0 7.938-8.748V22.21h-1.944l2.43-8.91m-4.86 3.888l-1.134 4.86h-2.268v-4.86h3.4m.324 11.178v.648a5.245 5.245 0 0 1-3.726 4.374v-7.452H70v2.43z" class="cls-14" transform="translate(-24.965 -12.49)"/>
                    <path id="Path_62" d="M216.582 24.054h-5.022v-2.43h5.022v2.43m0-4.86h-5.022v-2.43h5.022v2.43m-9.72 26.081h4.7v-17.82h8.91V13.2H206.7v32.075z" class="cls-14" transform="translate(64.802 -12.552)"/>
                    <path id="Path_63" d="M277.135 35.683a13.291 13.291 0 0 1-7.128-2.268A17.54 17.54 0 0 0 273.9 22.4h-4.05a15.7 15.7 0 0 1-3.078 8.424 15.232 15.232 0 0 1-3.082-8.424h-4.05a18.543 18.543 0 0 0 3.888 11.016 13.291 13.291 0 0 1-7.128 2.268v3.888a17.536 17.536 0 0 0 10.206-3.4 17.161 17.161 0 0 0 10.206 3.4v-3.889z" class="cls-14" transform="translate(95.612 -6.849)"/>
                    <path id="Path_64" d="M281.785 17.512h-8.424V13.3h-3.888v4.212h-7.452v3.726h4.212l-5.184 5.022-2.916-3.726h2.592v-3.726h-2.592V13.3h-4.212v5.508H248.9v3.726h5.022l-5.022 8.1v6.642l5.022-8.262v16.2h4.212v-17.5l2.916 3.564h.162l10.368-10.044 10.206 9.882v-5.18l-5.022-4.7h5.022z" class="cls-14" transform="translate(90.963 -12.49)"/>
                    <path id="Path_65" d="M57.891 39.219a12.232 12.232 0 0 1-1.782-2.268 5.754 5.754 0 0 1-.648-1.458 5.754 5.754 0 0 1-.648 1.458 12.233 12.233 0 0 1-1.782 2.268A18.947 18.947 0 0 1 39.1 45.375v-4.536a13.97 13.97 0 0 0 13.931-13.608v-2.753h-12.8v-4.536h12.8V13.3h5.184v6.642h12.96v4.536h-12.96v2.592a14 14 0 0 0 13.932 13.769v4.536a18.564 18.564 0 0 1-14.256-6.156z" class="cls-14" transform="translate(-39.1 -12.49)"/>
                </g>
                <g id="Group_13" transform="translate(233.271)">
                    <path id="Path_66" d="M188.608 13.6a5.4 5.4 0 0 1-5.508-5.67c0-3.888 2.592-5.832 5.508-5.832s5.508 1.944 5.508 5.832c.162 3.89-2.592 5.67-5.508 5.67zm-2.916-5.67c0 3.078 1.782 3.726 2.916 3.726.972 0 2.916-.486 2.916-3.726 0-3.078-1.944-3.726-2.916-3.726s-2.916.488-2.916 3.728z" class="cls-14" transform="translate(-183.1 -1.128)"/>
                    <path id="Path_67" d="M190.9 2.3h4.05c3.726 0 5.67 1.944 5.67 5.67 0 4.7-3.4 5.346-5.67 5.346h-4.05zm2.43 8.91h1.782c1.944 0 2.916-1.458 2.916-3.4 0-1.62-.81-3.4-2.916-3.4h-1.782z" class="cls-14" transform="translate(-178.265 -1.004)"/>
                    <path id="Path_68" d="M207.806 9.39c-.648 3.4-2.754 4.212-4.86 4.212-3.24 0-5.346-2.268-5.346-5.67 0-3.564 2.106-5.832 5.346-5.832a4.563 4.563 0 0 1 3.726 1.782 6.833 6.833 0 0 1 .972 2.43h-2.592a2.067 2.067 0 0 0-2.268-2.106c-2.754 0-2.754 3.24-2.754 3.888s0 3.726 2.754 3.726c1.782 0 2.106-1.3 2.268-2.268h2.754z" class="cls-14" transform="translate(-174.111 -1.128)"/>
                    <path id="Path_69" d="M211.242 2.61c.162 0 .324 0 .324.162s-.324.162-.324.162a14.443 14.443 0 0 0-.324 1.782c1.134 0 3.24 0 3.24 3.4A8.6 8.6 0 0 1 212.7 13.3a2.3 2.3 0 0 1-2.106.972 4.022 4.022 0 0 1-1.458-.162v-.486a10.708 10.708 0 0 0-.162-1.782 2.341 2.341 0 0 0 1.134.324c.324 0 .648 0 .81-.324a6.061 6.061 0 0 0 .972-3.726c0-1.458-.972-1.3-1.62-1.3a21.452 21.452 0 0 1-3.564 7.29 13.388 13.388 0 0 0-2.106-1.134 17.3 17.3 0 0 0 3.24-5.832c-.648.162-1.782.486-2.268.648l-.81-2.268a33.513 33.513 0 0 1 3.564-.648c.324-1.458.324-2.43.486-3.078zm3.726.648a10.4 10.4 0 0 1 2.43 5.184 1.354 1.354 0 0 1-.972 1.458 13.756 13.756 0 0 1-1.458.486 9.431 9.431 0 0 0-.81-1.782c.324 0 .81-.162.81-.648a6.717 6.717 0 0 0-.648-1.944c-.324-.648-.972-1.134-1.134-1.62z" class="cls-14" transform="translate(-169.771 -1.314)"/>
                    <path id="Path_70" d="M217.226 5.1c.162 0 .162 0 .162.162s-.162.162-.324.162a18.858 18.858 0 0 0-.972 2.43 7.943 7.943 0 0 1 4.05-1.3 3.355 3.355 0 0 1 3.564 3.4c0 2.592-2.592 4.374-7.128 4.374h-.972a8.244 8.244 0 0 0-.648-2.268 6.727 6.727 0 0 0 2.106.162c3.078 0 4.374-1.134 4.374-2.268a1.451 1.451 0 0 0-1.62-1.458 6.4 6.4 0 0 0-4.374 2.268l-1.944-.648a43.722 43.722 0 0 1 1.458-5.832zm-.81-3.4a14.007 14.007 0 0 1 4.7 1.62 23.987 23.987 0 0 1-1.3 2.106 14.737 14.737 0 0 0-4.05-1.782z" class="cls-14" transform="translate(-164.254 -1.376)"/>
                    <path id="Path_71" d="M228.09 14.721h-1.944v-2.43a16.1 16.1 0 0 1-3.888 2.43c-.648-.972-.972-1.134-1.458-1.3a12.446 12.446 0 0 0 4.05-2.268h-4.05V9.538h5.346v-.324h-3.726V7.756h3.726v-.324h-4.7v-1.62h2.592a2.375 2.375 0 0 0-.324-.648H220.8v-1.62h1.62a5.394 5.394 0 0 0-.486-.972l1.62-.972a5 5 0 0 1 .81 1.62l-.648.324h.972v-1.62h1.782c.162 0 .324 0 .324.162s-.162.162-.324.324v1.134h.648v-1.62h1.782s.324 0 .324.162-.162.162-.324.324v1.134h1.134l-.81-.324a12.841 12.841 0 0 0 .648-1.458l1.944.648.162.162c0 .162-.162.162-.324.162a3.024 3.024 0 0 0-.486.648h1.944V5H230.2c-.162.324-.162.486-.324.648h2.43v1.46h-4.374v.324h3.564V8.89h-3.564v.486h5.346v1.458h-4.05a10.654 10.654 0 0 0 4.05 2.106 4.018 4.018 0 0 0-1.3 1.458 11.673 11.673 0 0 1-3.888-2.43v2.754zm-2.106-9.558c.162.162.162.324.324.648h1.782c.162-.162.162-.324.324-.648z" class="cls-14" transform="translate(-159.728 -1.438)"/>
                    <path id="Path_72" d="M238.9 14.312h-2.11V9.128h.486a6.584 6.584 0 0 1-1.458-1.62 7.509 7.509 0 0 1-1.62 1.62h.81c.162 0 .324 0 .324.162a.348.348 0 0 1-.324.324 5.707 5.707 0 0 1-1.134 3.4 4.02 4.02 0 0 1-1.782 1.458 3.158 3.158 0 0 0-1.458-1.458 3.852 3.852 0 0 0 2.106-1.458 2.664 2.664 0 0 0 .324-1.458 14.708 14.708 0 0 1-2.268 1.134 4.114 4.114 0 0 0-1.3-1.62 7.414 7.414 0 0 0 4.05-2.268H230.8V2h10.692v5.508h-2.916a7.547 7.547 0 0 0 4.374 2.106 5.616 5.616 0 0 0-1.3 1.782 8.206 8.206 0 0 1-2.43-1.134v4.05zm-4.216-10.854h-2.106v.648h2.106zm0 1.944h-2.106v.648h2.106zm2.268-1.3h2.106v-.644h-2.106zm0 1.944h2.106V5.4h-2.106z" class="cls-14" transform="translate(-154.335 -1.19)"/>
                    <path id="Path_73" d="M238.3 8.3V6.36h11.826V8.3h-4.536c-.162 4.86-3.564 5.994-4.536 6.318a16.135 16.135 0 0 0-1.62-1.782c3.888-.972 3.888-3.564 4.05-4.7H238.3zm10.692-5.18l1.458 1.458a4.922 4.922 0 0 0-.81 1.134 11.78 11.78 0 0 0-1.3-1.458v.324h-7.938V2.634h7.938v1.458zm.81-1.62l1.458 1.458c-.324.162-.486.324-.972.972a5.589 5.589 0 0 0-1.3-1.458z" class="cls-14" transform="translate(-148.879 -1.5)"/>
                    <path id="Path_74" d="M256.92 5.874a.159.159 0 0 1 .162.162l-.162.162h-.32a23.631 23.631 0 0 1-7.128 2.592v2.268c0 .972.324.972 2.754.972a27.869 27.869 0 0 0 5.184-.324 10.941 10.941 0 0 0-.324 2.268h-2.596c-5.508 0-5.832-.162-6.318-.486a2.341 2.341 0 0 1-.972-2.268V2.31l2.268.162c.162 0 .324 0 .324.162s-.162.162-.324.324v4.05a14.5 14.5 0 0 0 5.67-2.592zm-1.134-3.24a11.778 11.778 0 0 1 1.458 1.3c-.162 0-.648.486-.972.81a6.06 6.06 0 0 0-1.458-1.458zm1.458-1.134a11.782 11.782 0 0 1 1.456 1.3 5.137 5.137 0 0 1-.972.81l-1.458-1.458z" class="cls-14" transform="translate(-143.362 -1.5)"/>
                    <path id="Path_75" d="M264.358 10.132v1.782H254.8v-1.782h4.86l.648-3.888h-4.05V4.3h6.48l-.972 5.832z" class="cls-14" transform="translate(-138.651 .236)"/>
                    <path id="Path_76" d="M273.788 5.1v2.268H261.8V5.1z" class="cls-14" transform="translate(-134.311 .732)"/>
                </g>
                <g id="Group_14" transform="translate(.324 .324)">
                    <path id="Path_77" d="M46.752 11.42v1.78c0 1.458-.972 1.458-3.4 1.458a5.465 5.465 0 0 0-.648-1.944h1.456c.486 0 .486 0 .486-.81v-.484H39.3V9.8h5.346v-.81h.648a1.753 1.753 0 0 0 .648-.81h-3.888V6.56H48.7l.81.972A18.35 18.35 0 0 1 47.076 9.8h4.86v1.62zm-1.944-7.128c-.324-.486-.81-1.3-1.3-1.944l1.786-.648a12.06 12.06 0 0 1 1.458 1.944c-.162.162-1.134.486-1.3.648H47.4c.648-.972.972-1.458 1.458-2.268l1.944.648.162.162c0 .162-.162.162-.486.324-.324.486-.486.648-.81 1.134h2.106v3.726H49.83V5.912h-8.424v2.106h-1.944V4.292h1.944a12.335 12.335 0 0 0-1.134-1.458l1.62-.81a5.749 5.749 0 0 1 1.3 1.944c-.648.324-.648.324-.81.486h2.43z" class="cls-14" transform="translate(-39.3 -1.7)"/>
                    <path id="Path_78" d="M58.43 10.872a11.185 11.185 0 0 0 3.24 2.106 4.114 4.114 0 0 0-1.3 1.62 10.167 10.167 0 0 1-3.24-2.268 9.222 9.222 0 0 1-3.4 2.268 4.6 4.6 0 0 0-1.458-1.62A8.918 8.918 0 0 0 56 10.872a8.565 8.565 0 0 1-1.134-2.43c-.162.162-.162.324-.324.486a3.674 3.674 0 0 0-1.782-1.134A8.471 8.471 0 0 0 54.7 5.04h-1.3v1.134h-1.45a10.077 10.077 0 0 0 .972 1.944c.162.162.648.972.81 1.134a8.066 8.066 0 0 0-1.3 1.3 12.576 12.576 0 0 0-.648-1.134V14.6h-1.94v-4.214a4.895 4.895 0 0 1-.486 1.458A5.044 5.044 0 0 0 47.9 10.71a9.6 9.6 0 0 0 1.782-4.536h-1.458V4.23h1.62V1.8h1.944c.162 0 .162 0 .162.162s-.162.162-.162.324V4.23h1.3V3.1h3.078V1.8l2.106.162a.566.566 0 0 1 .324.162c0 .162-.162.162-.324.324v.81h3.078V5.04H59.4a10.067 10.067 0 0 1 1.944 2.754 3.928 3.928 0 0 0-1.62.972c-.162-.162-.162-.324-.324-.486a5.578 5.578 0 0 1-.97 2.592zm-2.106-3.564a6.859 6.859 0 0 0 .648 1.944 3.846 3.846 0 0 0 .81-1.944l1.458.648a10.362 10.362 0 0 0-1.62-2.106l1.458-.81H54.7l1.62.648a.566.566 0 0 1 .324.162c0 .162-.162.162-.324.324a3.389 3.389 0 0 0-.648.972c-.162.162-.162.324-.324.648z" class="cls-14" transform="translate(-33.969 -1.638)"/>
                    <path id="Path_79" d="M58.1 5.364a15.352 15.352 0 0 1 2.1 1.782A11.421 11.421 0 0 0 59.068 8.6 8.566 8.566 0 0 0 56.8 6.984zM56.962 13.3a16.976 16.976 0 0 0 2.106-4.21 4.316 4.316 0 0 0 1.62.972 28.937 28.937 0 0 1-1.782 4.05v.162a.159.159 0 0 1-.162.162c-.162 0-.162 0-.324-.162zm2.106-11.5a7.67 7.67 0 0 1 2.106 1.782 14.165 14.165 0 0 0-1.3 1.62 13.445 13.445 0 0 0-2.106-1.944zm8.424 7.452a13.891 13.891 0 0 1 2.754 4.212 10.9 10.9 0 0 0-1.782 1.136l-.648-1.3c-.972.162-3.078.648-6.156.972a.348.348 0 0 1-.324.324c-.162 0-.162-.162-.162-.324l-.486-1.944h1.62a17.555 17.555 0 0 0 1.3-3.078h-2.92V7.146h3.564V5.688h-2.916V3.906h2.916V1.8h2.106c.162 0 .324 0 .324.162s-.162.162-.324.324v1.458h3.078v1.782h-3.078v1.458h3.726v1.782h-3.726v.162c0 .162-.324.324-.648.324a8.377 8.377 0 0 1-1.134 2.592 4.825 4.825 0 0 0 2.268-.324 13.144 13.144 0 0 0-.972-1.3z" class="cls-14" transform="translate(-28.451 -1.638)"/>
                    <path id="Path_80" d="M73.076 1.962c.324 0 .324.162.324.162 0 .162 0 .162-.324.324-.162 4.374-.162 7.614 5.508 10.368a3.768 3.768 0 0 0-1.458 1.784 8.471 8.471 0 0 1-2.754-1.944A13.967 13.967 0 0 1 72.1 9.738a6.287 6.287 0 0 1-2.1 2.754 8.369 8.369 0 0 1-2.916 1.944 5.135 5.135 0 0 0-1.782-1.62A7.24 7.24 0 0 0 70 8.6c.648-1.62.81-3.078.648-6.8z" class="cls-14" transform="translate(-23.182 -1.638)"/>
                </g>
            </g>
        </g>
    </g>
</svg>
