<svg xmlns="http://www.w3.org/2000/svg" width="20.597" height="20.582" viewBox="0 0 20.597 20.582">
    <g>
        <g>
            <g>
                <path stroke="#000" stroke-width="0.5px" d="M20.494 16.461l-4.052-2.7a1.183 1.183 0 0 0-1.584.257l-1.18 1.518a.5.5 0 0 1-.647.136l-.225-.124a13.569 13.569 0 0 1-3.536-2.777 13.624 13.624 0 0 1-2.777-3.538l-.123-.225a.505.505 0 0 1 .13-.649l1.52-1.18A1.183 1.183 0 0 0 8.278 5.6l-2.7-4.052a1.177 1.177 0 0 0-1.588-.362L2.3 2.2a2.39 2.39 0 0 0-1.09 1.414c-.61 2.223-.151 6.06 5.5 11.713 4.5 4.5 7.843 5.7 10.144 5.7a5.91 5.91 0 0 0 1.568-.2 2.388 2.388 0 0 0 1.414-1.09l1.019-1.693a1.177 1.177 0 0 0-.361-1.583zm-.218 1.244L19.26 19.4a1.724 1.724 0 0 1-1.018.789c-2.052.563-5.638.1-11.064-5.329S1.285 5.848 1.849 3.8a1.727 1.727 0 0 1 .79-1.019L4.333 1.76a.51.51 0 0 1 .688.155l1.468 2.2 1.232 1.851a.513.513 0 0 1-.111.687l-1.517 1.18a1.168 1.168 0 0 0-.309 1.5l.12.219A14.152 14.152 0 0 0 8.8 13.24a14.167 14.167 0 0 0 3.689 2.891l.219.121a1.168 1.168 0 0 0 1.5-.309l1.18-1.517a.514.514 0 0 1 .687-.111l4.052 2.7a.51.51 0 0 1 .149.69z" transform="translate(-.737 -.703) translate(1 1.018) translate(-1 -1.018)"/>
            </g>
        </g>
    </g>
</svg>
