<svg id="physical_education" data-name="physical education" xmlns="http://www.w3.org/2000/svg" width="57.015" height="48.954" viewBox="0 0 57.015 48.954">
  <path id="Path_10276" data-name="Path 10276" d="M57.014,17.411V13.45a1.943,1.943,0,0,0-1.941-1.941,2.564,2.564,0,0,1-2.566-2.566V1.969A1.972,1.972,0,0,0,50.537,0H48.162a1.972,1.972,0,0,0-1.97,1.97V6.052a4.647,4.647,0,0,1-4.5,4.668,4.579,4.579,0,0,1-4.657-4.579V1.969A1.972,1.972,0,0,0,35.063,0H32.688a1.972,1.972,0,0,0-1.97,1.97V4.486a.835.835,0,1,0,1.67,0V1.969a.3.3,0,0,1,.3-.3h2.375a.3.3,0,0,1,.3.3V6.141a6.25,6.25,0,0,0,6.356,6.249,6.325,6.325,0,0,0,6.144-6.339V1.969a.3.3,0,0,1,.3-.3h2.375a.3.3,0,0,1,.3.3V8.944a4.235,4.235,0,0,0,4.236,4.236.271.271,0,0,1,.271.271V16.9L41.612,23.489,27.882,16.9V13.45a.271.271,0,0,1,.271-.271,4.24,4.24,0,0,0,4.236-4.236V7.827a.835.835,0,1,0-1.67,0V8.944a2.569,2.569,0,0,1-2.566,2.566,1.941,1.941,0,0,0-1.941,1.941V17.4q0,.028,0,.056V31.332l-4.3,2.574a4.03,4.03,0,0,0-2-.534H14.933V18.944h4.983a4.014,4.014,0,1,0,0-8.029h-.875V10a3.282,3.282,0,0,0-3.278-3.278h-.83V5.088a1.728,1.728,0,0,0-1.726-1.726H10.723A1.728,1.728,0,0,0,9,5.088V6.725h-.83A3.282,3.282,0,0,0,4.888,10v.912H4.014a4.028,4.028,0,0,0-1.08.147.835.835,0,1,0,.449,1.609,2.345,2.345,0,0,1,.631-.086h15.9a2.344,2.344,0,1,1,0,4.688H4.014A2.346,2.346,0,0,1,1.67,14.93a2.4,2.4,0,0,1,.033-.4.835.835,0,1,0-1.647-.279A4.07,4.07,0,0,0,0,14.93a4.019,4.019,0,0,0,4.015,4.014H9V33.372H4.014a4.015,4.015,0,1,0,0,8.029h.875v.912a3.282,3.282,0,0,0,3.277,3.278H9v1.637a1.728,1.728,0,0,0,1.726,1.726h2.484a1.728,1.728,0,0,0,1.726-1.726V45.591h.033a5.854,5.854,0,0,0,.57.644,5.78,5.78,0,0,0,4.06,1.653h30.11A3.193,3.193,0,0,0,52.9,44.7V39.753h.446a3.677,3.677,0,0,0,3.673-3.673V17.411ZM10.667,5.089a.056.056,0,0,1,.056-.056h2.484a.056.056,0,0,1,.056.056V6.725h-2.6ZM6.559,10.915V10A1.609,1.609,0,0,1,8.167,8.4h7.6A1.609,1.609,0,0,1,17.371,10v.912Zm28.465,18.53a.893.893,0,0,1,.836.586,6.784,6.784,0,0,0,12.8-.127.679.679,0,0,1,.642-.46h.519a1.4,1.4,0,0,1,1.4,1.4V41.37H39.662l-2.74-3.925a.835.835,0,0,0-1.37.956l2.072,2.969h-2l-5.159-7.393,1.413-.847,1.766,2.532a.835.835,0,0,0,1.37-.956l-1.778-2.548a2.958,2.958,0,0,0,.747-1.957v-.756ZM31.638,41.37l-3.984-5.71,1.372-.823,4.558,6.533Zm-4.041,0-2.793-4,1.413-.847L29.6,41.371h-2Zm-7.735-4.286a1.769,1.769,0,0,0,.146.223,2.845,2.845,0,0,0,3.343.9l2.21,3.167H15.514a4.167,4.167,0,0,1,1.952-2.849Zm12.449-7.461V30.2a1.277,1.277,0,0,1-.6,1.082l-.044.027-2.8,1.68-.043.026-2.779,1.666-.016.01-3.153,1.89a1.175,1.175,0,0,1-1.536-.292.067.067,0,0,1,.016-.1l.957-.573.033-.02,9.937-5.956.037-.021ZM10.667,18.944h2.6V33.372h-2.6ZM6.559,42.313V41.4h4.718a.835.835,0,0,0,0-1.67H4.014a2.344,2.344,0,1,1,0-4.688h15.9l.1,0-3.41,2.044a5.817,5.817,0,0,0-2.6,6.587l.006.02,0,.013c.02.071.043.142.066.212H8.166a1.609,1.609,0,0,1-1.607-1.608Zm6.7,4.915a.056.056,0,0,1-.056.056H10.723a.056.056,0,0,1-.056-.056V45.591h2.6ZM51.225,44.7a1.52,1.52,0,0,1-1.519,1.519c-19.265,0-30.132,0-30.22,0a4.151,4.151,0,0,1-3.919-3.176H51.225Zm2.116-6.617H52.9V30.849a3.077,3.077,0,0,0-3.074-3.074H49.3a2.349,2.349,0,0,0-2.224,1.592,5.114,5.114,0,0,1-9.649.1,2.567,2.567,0,0,0-2.407-1.688c-1.862.048-2.571-.183-3.608.438L27.882,30.33V18.754l13.369,6.414a.835.835,0,0,0,.723,0l13.37-6.415V36.08a2,2,0,0,1-2,2Zm0,0" transform="translate(0.001 0)"/>
  <path id="Path_10277" data-name="Path 10277" d="M354.728,132.145h-.561a.835.835,0,1,0,0,1.67h.177V136.7h-.1a.835.835,0,1,0,0,1.67h1.874a.835.835,0,0,0,0-1.67h-.1v-3.273A1.287,1.287,0,0,0,354.728,132.145Zm0,0" transform="translate(-313.986 -117.43)"/>
</svg>
