<svg id="political_science" data-name="political science" xmlns="http://www.w3.org/2000/svg" width="49" height="49" viewBox="0 0 49 49">
  <path id="Path_10352" data-name="Path 10352" d="M8.533,17.517h6.533v8.167H11.8a.817.817,0,0,0-.817.817V39.566a.817.817,0,0,0,.817.817h1.633v9.8A.817.817,0,0,0,14.25,51h24.5a.817.817,0,0,0,.817-.817v-9.8H41.2a.817.817,0,0,0,.817-.817V26.5a.817.817,0,0,0-.817-.817H39.856l.926-3.009,1.4,1.865a.817.817,0,0,0,1.428-.232l1.633-4.9a.817.817,0,0,0-.122-.749l-2.45-3.267a.817.817,0,0,0-1.434.25L38.75,23.723l-2.486-8.08a.817.817,0,0,0-1.434-.25L32.38,18.66a.819.819,0,0,0-.122.749l1.633,4.9a.817.817,0,0,0,1.428.232l1.4-1.865.925,3.008H30.583V17.517A5.723,5.723,0,0,0,24.867,11.8h-.09a5.717,5.717,0,1,0-7.987,0H10.5L5.844,7.139a.816.816,0,0,0-1.155,0l-2.45,2.45A.816.816,0,0,0,2.2,10.7l5.717,6.533a.818.818,0,0,0,.614.278Zm33.792.14L43.556,19.3l-1.005,3.015-1.176-1.568Zm-7.377,4.657L33.943,19.3l1.231-1.641.951,3.089Zm2.985,27.054H15.067V40.383h4.9v6.533a.817.817,0,0,0,1.138.751L26.5,45.355l5.395,2.312a.817.817,0,0,0,1.138-.751V40.383h4.9ZM21.6,40.383h9.8v5.294l-4.578-1.962a.816.816,0,0,0-.644,0L21.6,45.677ZM40.383,38.75H12.617V27.316H40.383ZM16.7,7.717A4.083,4.083,0,1,1,20.783,11.8,4.088,4.088,0,0,1,16.7,7.717ZM5.267,8.871l4.323,4.323a.815.815,0,0,0,.577.239h14.7a4.088,4.088,0,0,1,4.083,4.083v8.167H26.5V16.7H24.867v8.983h-4.9V19.343l1.548-3.094-1.461-.731L18.42,18.784a.814.814,0,0,0-.087.366v6.533H16.7V16.7a.817.817,0,0,0-.817-.817H8.9L3.935,10.2Z" transform="translate(-2 -2)"/>
  <path id="Path_10353" data-name="Path 10353" d="M31.083,35a4.083,4.083,0,1,0,4.083,4.083A4.088,4.088,0,0,0,31.083,35Zm0,6.533a2.45,2.45,0,1,1,2.45-2.45A2.453,2.453,0,0,1,31.083,41.533Z" transform="translate(-6.583 -8.05)"/>
  <path id="Path_10354" data-name="Path 10354" d="M54.783,2H41.717a2.453,2.453,0,0,0-2.45,2.45V9.012l-3.027,3.027a.816.816,0,0,0,.577,1.394H54.783a2.453,2.453,0,0,0,2.45-2.45V4.45A2.453,2.453,0,0,0,54.783,2Zm.817,8.983a.818.818,0,0,1-.817.817h-16l1.873-1.873A.814.814,0,0,0,40.9,9.35V4.45a.818.818,0,0,1,.817-.817H54.783a.818.818,0,0,1,.817.817Z" transform="translate(-8.233 -2)"/>
  <path id="Path_10355" data-name="Path 10355" d="M44,6H55.433V7.633H44Z" transform="translate(-9.7 -2.733)"/>
  <path id="Path_10356" data-name="Path 10356" d="M44,10H55.433v1.633H44Z" transform="translate(-9.7 -3.467)"/>
</svg>
