<svg xmlns="http://www.w3.org/2000/svg" width="49.687" height="49" viewBox="0 0 49.687 49">
    <g>
        <path d="M120 264h2.481v1.654H120z" transform="translate(-15.999 -15.511) translate(-93.248 -223.16)"/>
        <path d="M176 304h2.481v1.654H176z" transform="translate(-15.999 -15.511) translate(-143.458 -259.083)"/>
        <path d="M120 304h4.136v1.654H120z" transform="translate(-15.999 -15.511) translate(-93.248 -259.083)"/>
        <path d="M56 304h4.963v1.654H56z" transform="translate(-15.999 -15.511) translate(-35.865 -259.083)"/>
        <path d="M104 344h9.925v1.654H104z" transform="translate(-15.999 -15.511) translate(-78.902 -295.006)"/>
        <path d="M56 344h3.308v1.654H56z" transform="translate(-15.999 -15.511) translate(-35.865 -295.006)"/>
        <path d="M152 384h4.963v1.654H152z" transform="translate(-15.999 -15.511) translate(-121.939 -330.929)"/>
        <path d="M56 384h8.271v1.654H56z" transform="translate(-15.999 -15.511) translate(-35.865 -330.929)"/>
        <path d="M104 424h4.963v1.654H104z" transform="translate(-15.999 -15.511) translate(-78.902 -366.933)"/>
        <path d="M56 424h3.308v1.654H56z" transform="translate(-15.999 -15.511) translate(-35.865 -366.933)"/>
        <path d="M63.973 211.308a.827.827 0 0 0-.827-.827h-4.963a.827.827 0 0 0-.827.827v4.136H53.22a.827.827 0 0 0-.827.827v4.136h-4.135a.827.827 0 0 0-.827.827v4.136h-4.136a.827.827 0 0 0-.827.827v4.963h-5.932a2.481 2.481 0 1 0 0 1.654h.969v2.481a.828.828 0 0 1-.827.827h-18.2a.828.828 0 0 1-.827-.827v-19.024h4.139a2.484 2.484 0 0 0 2.481-2.481v-4.136h12.407a.828.828 0 0 1 .827.827v.827h1.654v-.827A2.484 2.484 0 0 0 36.678 208H24.129a2.465 2.465 0 0 0-1.755.727l-5.648 5.648a2.465 2.465 0 0 0-.726 1.754v19.166a2.484 2.484 0 0 0 2.481 2.481h18.2a2.484 2.484 0 0 0 2.481-2.481v-2.481h26.465v-1.654h-1.654zm-41.356-.484v2.966a.828.828 0 0 1-.827.827h-2.966zm11.58 21.99a.827.827 0 1 1 .827-.827.827.827 0 0 1-.824.827zm9.925-5.79h3.308v4.136h-3.308zm4.963-4.963h3.308v9.1h-3.308zm4.963-4.963h3.308v14.061h-3.308zm4.963 14.061v-19.023h3.308v19.024z" transform="translate(-15.999 -15.511) translate(-.001 -173.265)"/>
        <path d="M18.481 72.532a2.481 2.481 0 0 0 2.239-3.55L23.2 66.5a2.48 2.48 0 0 0 3.408-1.412H30.2a2.481 2.481 0 0 0 4.786-.417l4.671-4a2.481 2.481 0 1 0-1.125-1.214l-3.957 3.392a2.48 2.48 0 0 0-4.375.589h-3.59a2.481 2.481 0 1 0-4.578 1.9l-2.482 2.474a2.481 2.481 0 1 0-1.069 4.72zm22.332-14.888a.827.827 0 1 1-.827.827.827.827 0 0 1 .827-.827zm-8.271 5.79a.827.827 0 1 1-.827.827.827.827 0 0 1 .827-.827zm-8.271 0a.827.827 0 1 1-.827.827.827.827 0 0 1 .827-.827zm-5.79 5.79a.827.827 0 1 1-.827.827.827.827 0 0 1 .827-.827z" transform="translate(-15.999 -15.511) translate(0 -36.293)"/>
        <path d="M177.528 35.376l-5.467 5.6h-7.244a2.475 2.475 0 0 0-2.759-1.658 2.552 2.552 0 0 0 0 5.009 2.475 2.475 0 0 0 2.759-1.658h1.8v15.249h1.654V42.67h4.129a.817.817 0 0 0 .585-.248l5.97-6.114a10.647 10.647 0 0 0 14.372-4.2 11.2 11.2 0 0 0-3.53-14.873 10.624 10.624 0 0 0-14.65 3.028 11.219 11.219 0 0 0 2.378 15.111zm-15.05 7.293a.847.847 0 1 1 .827-.847.837.837 0 0 1-.827.848zm28.14-9.726l-4.793-5.522h7.218a9.391 9.391 0 0 1-2.426 5.523zm2.426-7.216h-8.234V17.3a9.225 9.225 0 0 1 8.233 8.428zm-9.888-8.427v9.279a.854.854 0 0 0 .21.562l6.017 6.933a8.922 8.922 0 0 1-10.483.226 9.426 9.426 0 0 1-3.726-10.04 9.163 9.163 0 0 1 7.986-6.963z" transform="translate(-15.999 -15.511) translate(-129.109)"/>
    </g>
</svg>
