<svg id="robotics" xmlns="http://www.w3.org/2000/svg" width="34.365" height="49" viewBox="0 0 34.365 49">
  <path id="Path_10261" data-name="Path 10261" d="M50.338,33.912a3.208,3.208,0,0,0,3.2-3.2v-.159h2.54a.724.724,0,0,0,.724-.724V20.093a.724.724,0,0,0-.724-.724h-2.54v-.158a3.208,3.208,0,0,0-3.2-3.2H41.587V13.167a4.445,4.445,0,1,0-3.928,0v2.841H28.908a3.208,3.208,0,0,0-3.2,3.2v.158h-2.54a.724.724,0,0,0-.724.724v9.731a.724.724,0,0,0,.724.724H25.7v.159a3.208,3.208,0,0,0,3.2,3.2h5.03v2.2H25.645a3.208,3.208,0,0,0-3.2,3.2v13.7a.724.724,0,0,0,.724.724H56.082a.724.724,0,0,0,.724-.724v-13.7a3.208,3.208,0,0,0-3.2-3.2H45.308v-2.2Zm5.021-13.1V29.1H53.543V20.816ZM36.626,9.186a3,3,0,1,1,3,3A3,3,0,0,1,36.626,9.186ZM39.106,13.6a4.105,4.105,0,0,0,1.034,0v2.41H39.106ZM23.887,29.1V20.816H25.7V29.1Zm3.263,1.606v-11.5a1.759,1.759,0,0,1,1.757-1.757H50.338A1.759,1.759,0,0,1,52.1,19.211v11.5a1.759,1.759,0,0,1-1.757,1.757H44.6l-.02,0a.064.064,0,0,0-.02,0H34.683l-.02,0a.064.064,0,0,0-.02,0H28.908a1.759,1.759,0,0,1-1.757-1.757ZM48.2,52.288H31.044V46.319H48.2Zm7.156-12.974V52.288H49.649V45.6a.724.724,0,0,0-.724-.724H30.32a.724.724,0,0,0-.724.724v6.693H23.888V39.315a1.759,1.759,0,0,1,1.757-1.757H53.6A1.759,1.759,0,0,1,55.358,39.315Zm-11.5-3.2H35.385v-2.2h8.476Z" transform="translate(-22.44 -4.735)"/>
  <path id="Path_10262" data-name="Path 10262" d="M46.159,45.1a3.2,3.2,0,1,0-3.2,3.205A3.2,3.2,0,0,0,46.159,45.1Zm-3.2,1.758A1.757,1.757,0,1,1,44.712,45.1,1.757,1.757,0,0,1,42.955,46.861Z" transform="translate(-32.594 -26.534)"/>
  <path id="Path_10263" data-name="Path 10263" d="M75.954,48.308a3.2,3.2,0,1,0-3.2-3.2,3.2,3.2,0,0,0,3.2,3.2Zm0-4.961A1.757,1.757,0,1,1,74.2,45.1,1.757,1.757,0,0,1,75.954,43.347Z" transform="translate(-51.949 -26.534)"/>
  <path id="Path_10264" data-name="Path 10264" d="M51.875,63.849a.724.724,0,0,0,.724.724h8.579a.724.724,0,0,0,0-1.447H52.6A.724.724,0,0,0,51.875,63.849Z" transform="translate(-39.705 -38.984)"/>
  <path id="Path_10265" data-name="Path 10265" d="M92.022,90.549a1.964,1.964,0,1,0-1.964-1.964A1.964,1.964,0,0,0,92.022,90.549Zm0-2.481a.517.517,0,1,1-.517.517A.517.517,0,0,1,92.022,88.068Z" transform="translate(-62.101 -52.765)"/>
  <path id="Path_10266" data-name="Path 10266" d="M28.442,88.585a1.964,1.964,0,1,0,1.964-1.964A1.964,1.964,0,0,0,28.442,88.585Zm1.964-.517a.517.517,0,1,1-.517.517A.517.517,0,0,1,30.406,88.068Z" transform="translate(-25.96 -52.765)"/>
</svg>
