<svg xmlns="http://www.w3.org/2000/svg" width="46.749" height="48.597" viewBox="0 0 46.749 48.597">
    <g>
        <path d="M147.982 369.476a.712.712 0 0 0 .712-.712v-.639a.712.712 0 1 0-1.424 0v.639a.712.712 0 0 0 .712.712z" transform="translate(-9.736) translate(-124.48 -332.539)"/>
        <path d="M147.982 401.559a.712.712 0 0 0 .712-.712v-.639a.712.712 0 0 0-1.424 0v.639a.712.712 0 0 0 .712.712z" transform="translate(-9.736) translate(-124.48 -361.577)"/>
        <path d="M147.982 433.642a.712.712 0 0 0 .712-.712v-.639a.712.712 0 1 0-1.424 0v.639a.712.712 0 0 0 .712.712z" transform="translate(-9.736) translate(-124.48 -390.615)"/>
        <path d="M147.982 465.724a.712.712 0 0 0 .712-.712v-.639a.712.712 0 0 0-1.424 0v.639a.712.712 0 0 0 .712.712z" transform="translate(-9.736) translate(-124.48 -419.651)"/>
        <path d="M185.042 131.677a.712.712 0 0 0-.712.712v1.511a.712.712 0 0 0 1.424 0v-1.508a.712.712 0 0 0-.712-.715z" transform="translate(-9.736) translate(-158.022 -119.179)"/>
        <path d="M210.019 131.677a.712.712 0 0 0-.712.712v1.511a.712.712 0 1 0 1.424 0v-1.508a.712.712 0 0 0-.712-.715z" transform="translate(-9.736) translate(-180.628 -119.179)"/>
        <path d="M234.995 131.677a.712.712 0 0 0-.712.712v1.511a.712.712 0 0 0 1.424 0v-1.508a.712.712 0 0 0-.712-.715z" transform="translate(-9.736) translate(-203.234 -119.179)"/>
        <path d="M259.972 131.677a.712.712 0 0 0-.712.712v1.511a.712.712 0 1 0 1.424 0v-1.508a.712.712 0 0 0-.712-.715z" transform="translate(-9.736) translate(-225.84 -119.179)"/>
        <path d="M408.5 183.66a3.209 3.209 0 1 0 3.209 3.209 3.213 3.213 0 0 0-3.209-3.209zm0 5a1.786 1.786 0 1 1 1.786-1.786 1.788 1.788 0 0 1-1.786 1.781z" transform="translate(-9.736) translate(-358.01 -166.227)"/>
        <path d="M54.205 38.321a.712.712 0 0 0 .712-.712v-12.93a5.982 5.982 0 0 0 0-8.074V15.52a7.459 7.459 0 0 0-5.479-7.182 1.685 1.685 0 0 0 .091-.543V3.209a1.707 1.707 0 0 0-1.708-1.7h-.635v-.8a.712.712 0 0 0-1.424 0v.8h-.635a1.707 1.707 0 0 0-1.708 1.7v2.27h-19.2v-.317a.712.712 0 1 0-1.424 0v.318h-.026a.712.712 0 0 0 0 1.424h.026v1.321a7.461 7.461 0 0 0-5.946 7.3v9a2.78 2.78 0 0 0 2.772 2.775h.579v.682a1.881 1.881 0 0 0 1.879 1.879h.715v.684H22.4a.712.712 0 1 0 0 1.424h.39v.684h-6.753a1.678 1.678 0 0 0-1.537 1.001h-.848a2.214 2.214 0 0 0-2.211 2.211v7.324a1.782 1.782 0 0 0-1.707 1.778v1.848a1.784 1.784 0 0 0 1.784 1.785H54.7a1.784 1.784 0 0 0 1.782-1.782v-1.851a1.783 1.783 0 0 0-1.565-1.767v-2.268a.712.712 0 1 0-1.424 0v2.254H28.948v-8.109h24.545v2.533a.712.712 0 0 0 .712.712zm-3.714-13.109a4.57 4.57 0 1 1 4.57-4.57 4.576 4.576 0 0 1-4.57 4.57zm-5.65-22a.285.285 0 0 1 .285-.278h2.694a.285.285 0 0 1 .285.278V7.8a.285.285 0 0 1-.285.278h-2.695a.285.285 0 0 1-.285-.278zM24.214 6.9h19.2v.9a1.7 1.7 0 0 0 .025.278H24.214zm-5.73 7.019h3.859a.448.448 0 0 1 .447.447v7.489a.448.448 0 0 1-.447.447h-4.075V15.52a5.972 5.972 0 0 1 .216-1.598zm3.136 14.059V27.3h3.764v.682a.461.461 0 0 1-.455.455h-2.853a.461.461 0 0 1-.456-.459zm-8.754 7.887a.789.789 0 0 1 .788-.788h.706v8.108h-1.493zm-1.348 11.308a.363.363 0 0 1-.358-.358v-1.848a.363.363 0 0 1 .358-.358h2.843v2.311c0 .052 0 .1.008.154 0 .015 0 .03.005.044s0 .036.006.054h-2.862zm4.267-.253v-12.6a.253.253 0 0 1 .253-.253h11.233a.253.253 0 0 1 .253.253v12.6a.253.253 0 0 1-.253.253H16.037a.253.253 0 0 1-.253-.253zM54.7 44.609a.363.363 0 0 1 .358.358v1.848a.363.363 0 0 1-.358.358H28.929c0-.018 0-.036.006-.054s0-.03.005-.044c0-.051.008-.1.008-.154v-2.312H54.7zM43.024 33.653V22.475a2.512 2.512 0 0 0-2.509-2.509h-2.974a.712.712 0 0 0 0 1.424h2.974a1.086 1.086 0 0 1 1.085 1.085v11.178H28.806a1.678 1.678 0 0 0-1.535-1.005h-3.057v-.684h.39a.712.712 0 1 0 0-1.424h-.39v-.684h.715a1.881 1.881 0 0 0 1.879-1.879V27.3h.575a2.78 2.78 0 0 0 2.777-2.777v-2.048a1.086 1.086 0 0 1 1.085-1.085h2.974a.712.712 0 0 0 0-1.424h-2.973a2.512 2.512 0 0 0-2.509 2.509v2.044a1.355 1.355 0 0 1-1.354 1.354h-7.762a1.355 1.355 0 0 1-1.354-1.354v-.789h4.076a1.873 1.873 0 0 0 1.871-1.871v-7.49a1.873 1.873 0 0 0-1.871-1.869h-3.259a6.026 6.026 0 0 1 5.207-3H47.47a6.031 6.031 0 0 1 6.023 5.955 5.994 5.994 0 1 0 0 10.38v7.821H43.024z" transform="translate(-9.736)"/>
    </g>
</svg>
