<svg id="software_engineering" data-name="software engineering" xmlns="http://www.w3.org/2000/svg" width="55.56" height="48.656" viewBox="0 0 55.56 48.656">
  <g id="Group_422" data-name="Group 422" transform="translate(0 0)">
    <g id="Group_421" data-name="Group 421">
      <path id="Path_10207" data-name="Path 10207" d="M52.914,31.809H43.849a.814.814,0,0,0,0,1.628h9.065a1.019,1.019,0,0,1,1.017,1.018V64.843H13.293V33.437H40.14a.814.814,0,0,0,0-1.628H2.645A2.648,2.648,0,0,0,0,34.454V69.478a3.539,3.539,0,0,0,3.535,3.535h11.1a.814.814,0,0,0,0-1.628H3.535a1.91,1.91,0,0,1-1.907-1.907V66.47h52.3v3.007a1.91,1.91,0,0,1-1.907,1.907H18.348a.814.814,0,0,0,0,1.628h4.816c-.036.1-.072.208-.11.309a5.6,5.6,0,0,1-2.681,3.261,1.986,1.986,0,0,0-1.142,1.8v.1a1.988,1.988,0,0,0,1.986,1.985h6.228a.814.814,0,1,0,0-1.628H21.217a.358.358,0,0,1-.358-.357v-.1a.372.372,0,0,1,.221-.331,7.161,7.161,0,0,0,3.5-4.152c.107-.284.206-.581.294-.885H30.69c.088.3.187.6.294.885a7.159,7.159,0,0,0,3.5,4.152.371.371,0,0,1,.22.331v.1a.358.358,0,0,1-.357.357h-3.19a.814.814,0,1,0,0,1.628h3.19a1.987,1.987,0,0,0,1.985-1.985v-.1a1.987,1.987,0,0,0-1.141-1.8,5.6,5.6,0,0,1-2.682-3.262c-.038-.1-.075-.2-.11-.309H52.024a3.539,3.539,0,0,0,3.535-3.535V34.454A2.648,2.648,0,0,0,52.914,31.809ZM11.665,64.843H1.628V34.454a1.019,1.019,0,0,1,1.017-1.018h9.02Z" transform="translate(0 -31.809)"/>
    </g>
  </g>
  <g id="Group_424" data-name="Group 424" transform="translate(45.148 5.673)">
    <g id="Group_423" data-name="Group 423">
      <path id="Path_10208" data-name="Path 10208" d="M421.139,84.091h-3.6a1.489,1.489,0,0,0-1.487,1.487v22.117a.814.814,0,0,0,.814.814h4.944a.814.814,0,0,0,.814-.814V85.578A1.489,1.489,0,0,0,421.139,84.091Zm-.14,22.79h-3.316V88.6H421Zm0-19.906h-3.316V85.719H421Z" transform="translate(-416.055 -84.091)"/>
    </g>
  </g>
  <g id="Group_426" data-name="Group 426" transform="translate(47.357 11.297)">
    <g id="Group_425" data-name="Group 425">
      <path id="Path_10209" data-name="Path 10209" d="M437.755,135.915h-.524a.814.814,0,1,0,0,1.628h.524a.814.814,0,1,0,0-1.628Z" transform="translate(-436.417 -135.915)"/>
    </g>
  </g>
  <g id="Group_428" data-name="Group 428" transform="translate(47.357 14.105)">
    <g id="Group_427" data-name="Group 427">
      <path id="Path_10210" data-name="Path 10210" d="M437.755,161.794h-.524a.814.814,0,1,0,0,1.628h.524a.814.814,0,1,0,0-1.628Z" transform="translate(-436.417 -161.794)"/>
    </g>
  </g>
  <g id="Group_430" data-name="Group 430" transform="translate(47.357 16.913)">
    <g id="Group_429" data-name="Group 429">
      <path id="Path_10211" data-name="Path 10211" d="M437.755,187.673h-.524a.814.814,0,1,0,0,1.628h.524a.814.814,0,1,0,0-1.628Z" transform="translate(-436.417 -187.673)"/>
    </g>
  </g>
  <g id="Group_432" data-name="Group 432" transform="translate(47.357 19.722)">
    <g id="Group_431" data-name="Group 431">
      <path id="Path_10212" data-name="Path 10212" d="M437.755,213.551h-.524a.814.814,0,1,0,0,1.628h.524a.814.814,0,1,0,0-1.628Z" transform="translate(-436.417 -213.551)"/>
    </g>
  </g>
  <g id="Group_434" data-name="Group 434" transform="translate(47.357 22.53)">
    <g id="Group_433" data-name="Group 433">
      <path id="Path_10213" data-name="Path 10213" d="M437.755,239.43h-.524a.814.814,0,1,0,0,1.628h.524a.814.814,0,1,0,0-1.628Z" transform="translate(-436.417 -239.43)"/>
    </g>
  </g>
  <g id="Group_436" data-name="Group 436" transform="translate(47.357 25.338)">
    <g id="Group_435" data-name="Group 435">
      <path id="Path_10214" data-name="Path 10214" d="M437.755,265.309h-.524a.814.814,0,1,0,0,1.628h.524a.814.814,0,1,0,0-1.628Z" transform="translate(-436.417 -265.309)"/>
    </g>
  </g>
  <g id="Group_438" data-name="Group 438" transform="translate(3.633 6.801)">
    <g id="Group_437" data-name="Group 437">
      <path id="Path_10215" data-name="Path 10215" d="M35.428,94.479H34.29a.814.814,0,1,0,0,1.628h1.138a.814.814,0,1,0,0-1.628Z" transform="translate(-33.476 -94.479)"/>
    </g>
  </g>
  <g id="Group_440" data-name="Group 440" transform="translate(3.633 9.677)">
    <g id="Group_439" data-name="Group 439">
      <path id="Path_10216" data-name="Path 10216" d="M38.69,120.982h-4.4a.814.814,0,1,0,0,1.628h4.4a.814.814,0,1,0,0-1.628Z" transform="translate(-33.476 -120.982)"/>
    </g>
  </g>
  <g id="Group_442" data-name="Group 442" transform="translate(3.633 11.661)">
    <g id="Group_441" data-name="Group 441">
      <path id="Path_10217" data-name="Path 10217" d="M38.69,139.271h-4.4a.814.814,0,1,0,0,1.628h4.4a.814.814,0,1,0,0-1.628Z" transform="translate(-33.476 -139.271)"/>
    </g>
  </g>
  <g id="Group_444" data-name="Group 444" transform="translate(3.633 13.646)">
    <g id="Group_443" data-name="Group 443">
      <path id="Path_10218" data-name="Path 10218" d="M38.69,157.56h-4.4a.814.814,0,1,0,0,1.628h4.4a.814.814,0,1,0,0-1.628Z" transform="translate(-33.476 -157.56)"/>
    </g>
  </g>
  <g id="Group_446" data-name="Group 446" transform="translate(3.633 18.898)">
    <g id="Group_445" data-name="Group 445">
      <path id="Path_10219" data-name="Path 10219" d="M35.428,205.959H34.29a.814.814,0,1,0,0,1.628h1.138a.814.814,0,1,0,0-1.628Z" transform="translate(-33.476 -205.959)"/>
    </g>
  </g>
  <g id="Group_448" data-name="Group 448" transform="translate(3.633 21.774)">
    <g id="Group_447" data-name="Group 447">
      <path id="Path_10220" data-name="Path 10220" d="M38.69,232.464h-4.4a.814.814,0,1,0,0,1.628h4.4a.814.814,0,1,0,0-1.628Z" transform="translate(-33.476 -232.464)"/>
    </g>
  </g>
  <g id="Group_450" data-name="Group 450" transform="translate(3.633 23.758)">
    <g id="Group_449" data-name="Group 449">
      <path id="Path_10221" data-name="Path 10221" d="M38.69,250.752h-4.4a.814.814,0,1,0,0,1.628h4.4a.814.814,0,1,0,0-1.628Z" transform="translate(-33.476 -250.752)"/>
    </g>
  </g>
  <g id="Group_452" data-name="Group 452" transform="translate(3.633 25.743)">
    <g id="Group_451" data-name="Group 451">
      <path id="Path_10222" data-name="Path 10222" d="M38.69,269.04h-4.4a.814.814,0,1,0,0,1.628h4.4a.814.814,0,1,0,0-1.628Z" transform="translate(-33.476 -269.04)"/>
    </g>
  </g>
  <g id="Group_454" data-name="Group 454" transform="translate(16.043 9.154)">
    <g id="Group_453" data-name="Group 453">
      <path id="Path_10223" data-name="Path 10223" d="M173.882,123.807l-4.068-2.467-.006,0-4.279-2.6h0l-4.049-2.456a.813.813,0,0,0-.844,0l-4.048,2.456,0,0-4.278,2.595-.008,0-4.067,2.467a.814.814,0,0,0,0,1.392l12.4,7.523a.814.814,0,0,0,.844,0l12.4-7.523a.814.814,0,0,0,0-1.392Zm-6.052-1.767-2.491,1.511-2.713-1.646,2.491-1.511Zm-4.06,2.463-2.713,1.646-2.713-1.646,2.713-1.646Zm-2.713-6.572,2.491,1.511-2.491,1.511-2.491-1.511ZM157,120.395l2.491,1.511-2.713,1.646-2.491-1.511Zm-6.773,4.109,2.491-1.511,2.491,1.511-2.491,1.511Zm4.06,2.463,2.491-1.511,2.713,1.646L157,128.612Zm6.773,4.109-2.491-1.511,2.491-1.511,2.491,1.511Zm4.06-2.463-2.491-1.511,2.713-1.646,2.491,1.511Zm4.282-2.6-2.491-1.511,2.491-1.511,2.491,1.511Z" transform="translate(-147.84 -116.166)"/>
    </g>
  </g>
  <g id="Group_456" data-name="Group 456" transform="translate(34.29 23.992)">
    <g id="Group_455" data-name="Group 455">
      <path id="Path_10224" data-name="Path 10224" d="M317.548,252.9h-.734a.814.814,0,0,0,0,1.628h.734a.814.814,0,0,0,0-1.628Z" transform="translate(-316 -252.904)"/>
    </g>
  </g>
  <g id="Group_458" data-name="Group 458" transform="translate(34.29 26.08)">
    <g id="Group_457" data-name="Group 457">
      <path id="Path_10225" data-name="Path 10225" d="M321.426,272.151h-4.612a.814.814,0,0,0,0,1.628h4.612a.814.814,0,0,0,0-1.628Z" transform="translate(-316 -272.151)"/>
    </g>
  </g>
</svg>
