<svg id="system_engineering" data-name="system engineering" xmlns="http://www.w3.org/2000/svg" width="62.499" height="49" viewBox="0 0 62.499 49">
  <path id="Path_10376" data-name="Path 10376" d="M60.135,55.292H14.178a.916.916,0,1,0,0,1.831H60.135a.533.533,0,0,1,.533.533V88.033H49.592V85.614a.915.915,0,0,0-.916-.916H46.2A15.286,15.286,0,0,0,44,79.391l1.754-1.754a.915.915,0,0,0,0-1.295l-3.064-3.064a.916.916,0,0,0-1.295,0l-1.754,1.754a15.278,15.278,0,0,0-5.307-2.2V70.354a.915.915,0,0,0-.916-.915H29.083a.916.916,0,0,0-.916.915v2.479a15.284,15.284,0,0,0-5.307,2.2l-1.754-1.754a.915.915,0,0,0-1.295,0l-3.063,3.064a.915.915,0,0,0,0,1.295L18.5,79.391A15.281,15.281,0,0,0,16.3,84.7H13.823a.916.916,0,0,0-.916.916v2.419H1.831V57.656a.533.533,0,0,1,.533-.533h8.152a.916.916,0,1,0,0-1.831H2.364A2.366,2.366,0,0,0,0,57.656V96.187A2.366,2.366,0,0,0,2.364,98.55H23.212v3.91H21.456a.916.916,0,1,0,0,1.831H41.043a.916.916,0,1,0,0-1.831H39.287V98.55h7.14a.916.916,0,1,0,0-1.831H2.364a.533.533,0,0,1-.533-.533V89.864H60.668v6.323a.533.533,0,0,1-.533.533H50.089a.916.916,0,1,0,0,1.831H60.135A2.366,2.366,0,0,0,62.5,96.187V57.656A2.366,2.366,0,0,0,60.135,55.292Zm-22.68,47.169H25.043v-3.91H37.456ZM25.746,87.78a5.5,5.5,0,0,1,11.008,0q0,.126-.006.253h-11Q25.746,87.906,25.746,87.78Zm12.834.253q0-.127,0-.253a7.335,7.335,0,0,0-14.67,0q0,.126,0,.253H14.738v-1.5h2.33a.916.916,0,0,0,.905-.778,13.42,13.42,0,0,1,2.455-5.923.916.916,0,0,0-.09-1.19L18.69,76.989l1.769-1.769,1.649,1.649a.916.916,0,0,0,1.19.09A13.421,13.421,0,0,1,29.22,74.5.916.916,0,0,0,30,73.6v-2.33h2.5V73.6a.916.916,0,0,0,.778.905A13.422,13.422,0,0,1,39.2,76.959a.915.915,0,0,0,1.19-.09l1.649-1.649,1.769,1.769L42.16,78.638a.916.916,0,0,0-.09,1.19,13.422,13.422,0,0,1,2.455,5.923.915.915,0,0,0,.905.778h2.33v1.5Z" transform="translate(0 -55.292)"/>
  <path id="Path_10377" data-name="Path 10377" d="M60.679,104.867a.916.916,0,0,0-.916-.915H47.81a.916.916,0,0,0,0,1.831H59.764A.916.916,0,0,0,60.679,104.867Z" transform="translate(-41.17 -98.011)"/>
  <path id="Path_10378" data-name="Path 10378" d="M47.81,137.565a.915.915,0,1,0,0,1.831h3.876a.915.915,0,1,0,0-1.831Z" transform="translate(-41.17 -127.522)"/>
  <path id="Path_10379" data-name="Path 10379" d="M428.893,139.4h3.876a.915.915,0,1,0,0-1.831h-3.876a.915.915,0,1,0,0,1.831Z" transform="translate(-375.734 -127.522)"/>
  <path id="Path_10380" data-name="Path 10380" d="M428.893,173.01h3.876a.916.916,0,0,0,0-1.831h-3.876a.916.916,0,1,0,0,1.831Z" transform="translate(-375.734 -157.033)"/>
  <path id="Path_10381" data-name="Path 10381" d="M428.893,206.623h3.876a.916.916,0,0,0,0-1.831h-3.876a.916.916,0,1,0,0,1.831Z" transform="translate(-375.734 -186.543)"/>
</svg>
