<svg xmlns="http://www.w3.org/2000/svg" width="49" height="49" viewBox="0 0 49 49">
    <g>
        <path d="M41.306 49.129h-2.371V27.79a.79.79 0 0 0-.79-.79h-5.532v1.581h4.742v20.548h-7.9a.79.79 0 0 0-.79.79v.79h-14.23v-.79a.79.79 0 0 0-.79-.79h-7.9V28.581h6.323V27H4.952a.79.79 0 0 0-.79.79v21.339H1.79a.79.79 0 0 0-.79.79V51.5a3.956 3.956 0 0 0 3.952 3.952h33.193A3.956 3.956 0 0 0 42.1 51.5v-1.581a.79.79 0 0 0-.794-.79zm-.79 2.371a2.374 2.374 0 0 1-2.371 2.371H4.952A2.374 2.374 0 0 1 2.581 51.5v-.79h10.274v.79a.79.79 0 0 0 .79.79h15.807a.79.79 0 0 0 .79-.79v-.79h10.274z" transform="translate(-1 -1) translate(0 -5.452)"/>
        <path d="M17.694 32.581V31H9.79a.79.79 0 0 0-.79.79V47.6a.79.79 0 0 0 .79.79h26.871a.79.79 0 0 0 .79-.79V31.79a.79.79 0 0 0-.79-.79h-6.322v1.581h5.532v14.225h-25.29V32.581z" transform="translate(-1 -1) translate(-1.677 -6.29)"/>
        <path d="M50.984 1h-23.71A2.374 2.374 0 0 0 24.9 3.371v8.049a2.368 2.368 0 0 0-1.581 2.226v4.914L17.6 19.991a.79.79 0 0 0-.6.767v1.581a.79.79 0 0 0 .79.79h5.532v.463l-2.139 2.139a.788.788 0 0 0-.232.559v1.581a.79.79 0 0 0 1.084.734l3.658-1.464 3.658 1.464a.783.783 0 0 0 .293.056.79.79 0 0 0 .79-.79V26.29a.788.788 0 0 0-.232-.559l-2.139-2.139v-.463H33.6a.79.79 0 0 0 .79-.79v-1.581a.79.79 0 0 0-.6-.767l-5.725-1.431v-3.334h22.919a2.374 2.374 0 0 0 2.371-2.371V3.371A2.374 2.374 0 0 0 50.984 1zM32.806 21.375v.173h-5.532a.79.79 0 0 0-.79.79v1.581a.788.788 0 0 0 .232.559l2.139 2.139v.083l-2.868-1.148a.794.794 0 0 0-.586 0L22.532 26.7v-.086l2.139-2.139a.788.788 0 0 0 .232-.559v-1.577a.79.79 0 0 0-.79-.79h-5.532v-.173l5.719-1.432a.79.79 0 0 0 .6-.767v-5.532a.79.79 0 1 1 1.581 0v5.532a.79.79 0 0 0 .6.767zm18.968-8.52a.791.791 0 0 1-.79.79h-3.952v-1.58h-1.58v1.581H28.065a2.368 2.368 0 0 0-1.581-2.226V3.371a.791.791 0 0 1 .79-.79h18.178v1.58h1.581v-1.58h3.952a.791.791 0 0 1 .79.79z" transform="translate(-1 -1) translate(-3.355)"/>
        <path d="M0 0H2V1H0z" transform="translate(-1 -1) translate(42 6)"/>
        <path d="M0 0H2V1H0z" transform="translate(-1 -1) translate(42 9)"/>
        <path d="M0 0H15V2H0z" transform="translate(-1 -1) translate(26 10)"/>
        <path d="M0 0H15V2H0z" transform="translate(-1 -1) translate(26 7)"/>
        <path d="M32.79 46.484a.791.791 0 0 0 .559-.232l2.139-2.139h2.834a.79.79 0 0 0 .559-1.349l-5.532-5.532A.79.79 0 0 0 32 37.79v7.9a.79.79 0 0 0 .488.73.78.78 0 0 0 .302.064zm.79-6.786l2.834 2.834h-1.253a.787.787 0 0 0-.559.232l-1.022 1.022z" transform="translate(-1 -1) translate(-6.5 -7.548)"/>
    </g>
</svg>
