<svg id="travel_Tourism" data-name="travel &amp; Tourism" xmlns="http://www.w3.org/2000/svg" width="50.686" height="50.155" viewBox="0 0 50.686 50.155">
  <path id="Path_10172" data-name="Path 10172" d="M50.821,13.326a4.065,4.065,0,0,0-4.751-2.508L43.312,9.136a4.017,4.017,0,0,0-3.453-.34L29.766,12.468,21.479.758a.8.8,0,0,0-.928-.29L16.039,2.111a.8.8,0,0,0-.479,1.027l4.655,12.8L10.18,19.594,4.79,13.566a.8.8,0,0,0-.871-.219l-3.013,1.1A.8.8,0,0,0,.427,15.47L4.812,27.519a.8.8,0,0,0,.753.527h.01l16.983-.208a.784.784,0,0,0,.264-.049l1.5-.549,4.386,12.051a.8.8,0,0,0,1.027.479l4.519-1.645a.8.8,0,0,0,.524-.819L33.665,23.844l14.763-5.376a4.013,4.013,0,0,0,2.393-5.141ZM17.339,3.344l3.185-1.16,7.681,10.852L21.72,15.4ZM4.4,21.7,2.207,15.676l1.75-.636,4.6,5.145ZM29.946,37.99,24.463,22.927l7.3-2.656L33.136,36.83ZM47.881,16.963,33.528,22.189l-.257-3.1a.8.8,0,0,0-.366-.609.809.809,0,0,0-.706-.079l-9.037,3.289a.8.8,0,0,0-.478,1.027l1.1,3.012-1.377.5-16.278.2L4.949,23.2,40.4,10.3a2.415,2.415,0,0,1,2.076.2l.768.468-2.353.857.548,1.507L45,12.043l.543.331a.8.8,0,0,0,.685.071,2.405,2.405,0,1,1,1.653,4.518Z" transform="translate(-0.378 -0.42)"/>
  <path id="Path_10173" data-name="Path 10173" d="M0,0H1.6V1.6H0Z" transform="translate(35.254 13.325) rotate(-19.993)"/>
  <path id="Path_10174" data-name="Path 10174" d="M0,0H1.6V1.6H0Z" transform="translate(32.241 14.422) rotate(-19.993)"/>
  <path id="Path_10175" data-name="Path 10175" d="M0,0H1.6V1.6H0Z" transform="translate(29.229 15.52) rotate(-19.993)"/>
  <path id="Path_10176" data-name="Path 10176" d="M0,0H1.6V1.6H0Z" transform="translate(26.216 16.617) rotate(-19.993)"/>
  <path id="Path_10177" data-name="Path 10177" d="M0,0H1.6V1.6H0Z" transform="translate(23.202 17.714) rotate(-19.993)"/>
  <path id="Path_10178" data-name="Path 10178" d="M0,0H1.6V1.6H0Z" transform="translate(20.189 18.812) rotate(-19.993)"/>
  <path id="Path_10179" data-name="Path 10179" d="M0,0H1.6V1.6H0Z" transform="translate(17.176 19.909) rotate(-19.993)"/>
  <path id="Path_10180" data-name="Path 10180" d="M0,0H1.6V1.6H0Z" transform="translate(14.156 21.016) rotate(-19.993)"/>
  <path id="Path_10181" data-name="Path 10181" d="M0,0H1.6V1.6H0Z" transform="translate(11.142 22.113) rotate(-19.993)"/>
  <path id="Path_10182" data-name="Path 10182" d="M17.809,43.206h4.956a2.4,2.4,0,1,0,0-1.6H17.809a4.809,4.809,0,0,0,0,9.618H31.434v-1.6H17.809a3.206,3.206,0,0,1,0-6.412Zm7.213-1.6a.8.8,0,1,1-.8.8A.8.8,0,0,1,25.022,41.6Z" transform="translate(-2.884 -8.278)"/>
  <path id="Path_10183" data-name="Path 10183" d="M38,52h1.6v1.6H38Z" transform="translate(-7.848 -10.661)"/>
  <path id="Path_10184" data-name="Path 10184" d="M44.246,52H37.434v1.6h6.812a2,2,0,0,1,0,4.007H19v1.6H44.246a3.607,3.607,0,0,0,0-7.213Z" transform="translate(-4.075 -10.661)"/>
  <path id="Path_10185" data-name="Path 10185" d="M4.4,57a2.4,2.4,0,1,0,2.257,3.206h7.361V58.6H6.661A2.4,2.4,0,0,0,4.4,57Zm0,3.206a.8.8,0,1,1,.8-.8A.8.8,0,0,1,4.4,60.206Z" transform="translate(-0.7 -11.653)"/>
</svg>
