<svg xmlns="http://www.w3.org/2000/svg" width="31.756" height="33.952" viewBox="0 0 31.756 33.952">
    <g>
        <path d="M45.62 2.2h-.6v-.6a1.6 1.6 0 1 0-3.192 0v.6h-2.3v-.6a1.6 1.6 0 1 0-3.192 0v.6h-2.3v-.6a1.6 1.6 0 0 0-3.192 0v.6h-2.3v-.6a1.6 1.6 0 1 0-3.192 0v.6h-.6a2.7 2.7 0 0 0-2.694 2.694v12.169l-1.217-1.217a1.6 1.6 0 0 0-2.257 0L17.025 17.4a1.6 1.6 0 0 0 0 2.257l5.027 5.027v6.574a2.7 2.7 0 0 0 2.694 2.695h16.919a.5.5 0 1 0 0-.995H24.746a1.7 1.7 0 0 1-1.7-1.7v-5.579l4.054 4.057a.485.485 0 0 0 .037.033l.027.02.013.009.035.021h.007l.038.018h.006l.038.014h.008l.036.009h.011l.036.005h2.961l.631.631a.5.5 0 0 0 .7-.7l-.631-.631v-2.9-.049-.011c0-.004 0-.025-.006-.038v-.009c0-.013-.006-.025-.009-.038v-.007c0-.013-.009-.026-.014-.039l-.019-.04-.022-.037-.008-.011-.021-.028c-.01-.013-.022-.025-.033-.037l-4.057-4.057h17.108a.5.5 0 0 0 0-.995H26.394a.5.5 0 0 0-.368.164l-2.98-2.98V8.685H47.32v3.392a.5.5 0 1 0 .995 0V4.892A2.7 2.7 0 0 0 45.62 2.2zM30.066 28.887h-1.41l1.409-1.409zm-10.433-8.028l.85-.85 7.822 7.822-.85.85zm9.376 6.269L21.187 19.3l.85-.85 7.822 7.822zM17.728 18.1l1.554-1.554a.6.6 0 0 1 .85 0l1.2 1.2-2.4 2.4-1.2-1.2a.6.6 0 0 1-.004-.846zM43.423.995a.6.6 0 0 1 .6.6v2.2a.6.6 0 1 1-1.2 0V1.6a.6.6 0 0 1 .6-.6zm-5.493 0a.6.6 0 0 1 .6.6v2.2a.6.6 0 1 1-1.2 0V1.6a.6.6 0 0 1 .6-.6zm-6.094.6a.6.6 0 1 1 1.2 0v2.2a.6.6 0 1 1-1.2 0zm-4.892-.6a.6.6 0 0 1 .6.6v2.2a.6.6 0 0 1-1.2 0V1.6a.6.6 0 0 1 .6-.6zm-3.9 6.7v-2.8a1.7 1.7 0 0 1 1.7-1.7h.6v.6a1.6 1.6 0 0 0 3.192 0v-.6h2.3v.6a1.6 1.6 0 1 0 3.192 0v-.6h2.3v.6a1.6 1.6 0 1 0 3.192 0v-.6h2.3v.6a1.6 1.6 0 1 0 3.192 0v-.6h.6a1.7 1.7 0 0 1 1.7 1.7v2.8z" transform="translate(-16.558)"/>
        <path d="M422.334 204.619a.5.5 0 0 0-.5.5v17.192a1.7 1.7 0 0 1-1.7 1.7h-1.965a.5.5 0 0 0 0 .995h1.965a2.7 2.7 0 0 0 2.694-2.695v-17.195a.5.5 0 0 0-.494-.497z" transform="translate(-16.558) translate(-374.517 -191.05)"/>
        <path d="M157.887 166.662h17.577a.5.5 0 0 0 0-.995h-17.577a.5.5 0 1 0 0 .995z" transform="translate(-16.558) translate(-131.493 -154.681)"/>
        <path d="M157.887 216.362h17.577a.5.5 0 0 0 0-.995h-17.577a.5.5 0 1 0 0 .995z" transform="translate(-16.558) translate(-131.493 -201.085)"/>
        <path d="M157.887 266.062h17.577a.5.5 0 0 0 0-.995h-17.577a.5.5 0 1 0 0 .995z" transform="translate(-16.558) translate(-131.493 -247.49)"/>
        <path d="M261.038 364.964a.5.5 0 0 0-.5-.5h-11.533a.5.5 0 1 0 0 .995h11.535a.5.5 0 0 0 .498-.495z" transform="translate(-16.558) translate(-216.569 -340.298)"/>
    </g>
</svg>
